<svg width="24" height="30" viewBox="0 0 24 30" fill="none" xmlns="http://www.w3.org/2000/svg">
<path d="M2.66667 21.9998H21.3333V12.7078C21.3333 7.5305 17.1547 3.33317 12 3.33317C6.84533 3.33317 2.66667 7.5305 2.66667 12.7078V21.9998ZM12 0.666504C18.6267 0.666504 24 6.05717 24 12.7078V24.6665H0V12.7078C0 6.05717 5.37333 0.666504 12 0.666504ZM8.66667 25.9998H15.3333C15.3333 26.8839 14.9821 27.7317 14.357 28.3569C13.7319 28.982 12.8841 29.3332 12 29.3332C11.1159 29.3332 10.2681 28.982 9.64298 28.3569C9.01786 27.7317 8.66667 26.8839 8.66667 25.9998V25.9998Z" fill="#1C3A5E"/>
</svg>
