<svg width="83" height="86" viewBox="0 0 83 86" fill="none" xmlns="http://www.w3.org/2000/svg">
<path d="M77.7027 19.5348L46.1682 1.23704C43.3857 -0.412345 39.8819 -0.412345 37.0994 1.23704L4.48285 20.4626C1.75192 22.0605 0.051527 24.9984 0.051527 28.1941L0 58.0891C0 61.2332 1.64886 64.1712 4.37979 65.8206L35.9658 84.7369C38.7483 86.3863 42.2521 86.4378 45.0346 84.7884L77.4966 66.0783C80.279 64.4804 81.9794 61.5425 81.9794 58.3468L82.134 27.3694C82.1855 24.1222 80.4851 21.1327 77.7027 19.5348ZM40.9124 60.4085L11.3875 43.5539L41.6338 25.5138L71.3133 42.6262L40.9124 60.4085Z" fill="white"/>
</svg>
