<svg width="103" height="171" viewBox="0 0 103 171" fill="none" xmlns="http://www.w3.org/2000/svg">
<ellipse cx="35" cy="163" rx="35" ry="8" fill="#1C274D"/>
<path d="M38.8707 17.5698C38.8707 17.5698 39.3429 12.3305 39.5092 12.2942C39.5303 9.621 44.5409 6.08608 45.6536 5.31604C51.6851 1.14675 55.4838 1.40279 61.6873 7.53445C66.5833 12.3725 64.9316 20.9289 64.7576 21.5194C66.0442 22.2091 64.8436 24.0148 63.4672 23.7435C63.4672 23.7435 63.8686 24.8938 62.6107 25.3734C61.3528 25.853 60.9494 25.4326 60.9494 25.4326C60.9494 25.4326 61.8097 26.6937 60.0088 27.0873C60.0088 27.0873 60.8041 27.5497 59.5749 27.9758C58.3456 28.4019 57.3114 26.5829 57.3114 26.5829C57.3114 26.5829 57.4605 27.9835 56.2809 28.3045C55.1014 28.6255 53.7383 27.2306 53.7383 27.2306C53.7383 27.2306 52.5091 28.7822 51.3984 28.6102C50.2876 28.4363 49.5918 27.202 49.5918 27.202C49.5918 27.202 49.7237 28.0867 48.6225 27.9319C47.6246 27.7924 47.7183 26.2848 47.745 26.002C47.7125 26.2886 47.5099 27.8249 46.8752 27.6586C45.6326 27.3338 45.927 26.3249 45.7033 26.6307C45.4796 26.9345 44.3708 26.6536 43.4417 26.0135C42.5948 25.4307 43.0154 24.4275 43.0154 24.4275C43.0154 24.4275 42.1799 24.6912 41.6198 23.7397C41.6198 23.7397 41.5625 25.1403 40.4957 24.5021C39.5609 23.9422 40.6219 22.32 40.6219 22.32C40.6219 22.32 39.8438 22.855 38.9147 22.2703C38.1691 21.8021 39.2703 21.0073 39.2703 21.0073C39.2703 21.0073 37.89 21.3168 37.4809 20.6901C37.0718 20.0633 38.8707 17.5679 38.8707 17.5679V17.5698Z" fill="url(#paint0_linear_915_582)"/>
<path d="M40.3524 16.5284C40.3524 16.7291 40.36 16.9106 40.3734 17.073V17.0806C40.4671 18.2462 40.8341 18.5749 40.9182 19.1061C40.9909 19.5666 41.4115 20.5334 42.1073 19.7041L42.1092 19.7022C42.1092 19.7022 42.4285 15.9418 42.3234 15.2329C42.3234 15.2329 42.1781 14.1705 41.6523 13.9317C40.9775 13.6241 40.3466 14.7552 40.3504 16.5265L40.3524 16.5284Z" fill="url(#paint1_linear_915_582)"/>
<path style="mix-blend-mode:multiply" opacity="0.6" d="M42.2814 17.3673C42.2814 17.3673 41.5034 15.1202 40.9968 14.9005C40.4901 14.6827 40.4787 16.4845 40.494 17.0864C40.5073 17.6902 40.6125 18.0609 40.6125 18.0609C40.6125 18.0609 40.5876 17.3482 40.6488 16.7826C40.7368 15.9724 41.0426 15.3113 41.2548 15.4126C41.467 15.5138 41.6047 16.5724 41.6066 16.689C41.6066 16.8074 41.4097 16.987 41.3217 17.6138C41.2338 18.2405 41.3581 18.9551 41.4842 18.9666C41.6104 18.9781 41.6353 18.4641 41.727 17.8794C41.8188 17.2947 42.1534 17.4647 42.2489 17.8679L42.2814 17.3654V17.3673Z" fill="url(#paint2_linear_915_582)"/>
<path style="mix-blend-mode:multiply" opacity="0.6" d="M42.2489 17.8678C42.2489 17.8678 42.052 17.2678 41.8437 17.4932C41.6334 17.7187 41.6467 18.4391 41.5034 18.5021C41.36 18.5652 41.274 17.9728 41.3887 17.4608C41.5034 16.9487 41.7347 16.5092 41.9469 16.6315L42.2814 17.3671L42.2489 17.8697V17.8678Z" fill="url(#paint3_linear_915_582)"/>
<path style="mix-blend-mode:multiply" d="M40.3753 17.0805C40.469 18.2461 40.8342 18.5747 40.9202 19.1059C40.9928 19.5664 41.4134 20.5333 42.1093 19.704C42.0711 19.7346 41.6983 20.0193 41.3981 19.8167C41.0808 19.6008 41.0368 19.1709 40.9431 18.827C40.8495 18.4849 40.513 18.206 40.3753 17.0786V17.0805Z" fill="url(#paint4_linear_915_582)"/>
<path d="M59.556 27.5516C60.659 27.7943 61.9896 27.6586 62.5325 26.7357C62.5421 26.7376 63.9893 27.0758 64.9681 24.7313C65.8169 22.6963 65.295 21.6703 65.295 21.6703C65.295 21.6703 66.119 20.9862 66.2451 20.4531C66.53 19.2512 66.1687 17.2182 65.3122 17.1838C64.4538 17.1494 63.8325 17.7895 63.8325 17.7895C63.8325 17.7895 63.2647 16.4042 62.5765 16.5284C61.8883 16.6526 60.1524 19.0105 60.1524 19.0105C60.1524 19.0105 59.1736 18.1774 58.7702 18.6837C58.3669 19.1901 57.8564 20.4722 57.8564 20.4722C57.8564 20.4722 56.7208 21.0665 56.8986 22.4307C56.8986 22.4307 56.4398 23.3594 57.3345 24.1275C57.5276 24.2937 57.7857 24.4523 58.1222 24.5918C58.1222 24.5918 57.5926 25.4994 57.8851 26.5217C58.0113 26.9631 58.7167 27.3663 59.554 27.5516H59.556Z" fill="#010101"/>
<path d="M57.8754 100.993L89.6275 84.1768L89.2586 90.5396L62.2151 109.481C60.7583 106.655 59.3073 103.829 57.8754 100.993Z" fill="url(#paint5_linear_915_582)"/>
<path opacity="0.2" d="M57.8756 100.993L80.0384 89.2554C81.0439 91.0954 82.0132 93.0234 83.122 94.8386L62.2152 109.483C60.7585 106.657 59.3074 103.831 57.8756 100.995V100.993Z" fill="#201829"/>
<path d="M88.884 90.958L87.2399 85.0556L90.8053 82.3003L101.414 99.4704C101.414 99.4704 98.9722 99.4743 88.884 90.9561V90.958Z" fill="#F78E1E"/>
<path d="M101.413 99.4706L90.8051 82.3004L91.9923 81.3813L102.14 98.8152L101.413 99.4706Z" fill="#2B2238"/>
<path d="M90.138 92.1429C90.3674 91.2696 90.8511 90.4996 91.2372 89.6914C91.2716 89.6187 91.3806 89.6818 91.3462 89.7544C90.9638 90.5531 90.4859 91.3136 90.2584 92.1754C90.2374 92.2537 90.115 92.2212 90.1361 92.141L90.138 92.1429Z" fill="#2B2238"/>
<path d="M91.0881 93.0579C91.3175 92.1847 91.8012 91.4146 92.1874 90.6064C92.2218 90.5338 92.3307 90.5968 92.2963 90.6694C91.914 91.4681 91.436 92.2286 91.2085 93.0904C91.1875 93.1687 91.0652 93.1362 91.0862 93.056L91.0881 93.0579Z" fill="#2B2238"/>
<path d="M92.1874 94.0306C92.4168 93.1573 92.9005 92.3873 93.2866 91.579C93.3211 91.5064 93.43 91.5695 93.3956 91.6421C93.0133 92.4408 92.5353 93.2013 92.3078 94.063C92.2868 94.1414 92.1645 94.1089 92.1855 94.0287L92.1874 94.0306Z" fill="#2B2238"/>
<path d="M39.5629 29.6666L24.8348 32.0703L25.2611 16.06C23.6017 15.5269 22.1354 16.318 20.5258 15.6396C19.675 19.2032 16.6048 35.0358 17.6983 38.4695C19.415 43.8579 38.6013 38.0052 38.6013 38.0052L39.5648 29.6685L39.5629 29.6666Z" fill="url(#paint6_linear_915_582)"/>
<path d="M20.4704 15.4698C20.4704 15.4698 19.7687 10.24 20.3939 10.3394C21.019 10.4368 21.3555 12.8902 21.3555 12.8902C21.3555 12.8902 21.107 8.85279 21.5887 8.84705C22.0705 8.84323 23.0569 12.7565 23.0569 12.7565C23.0569 12.7565 22.9977 8.02733 23.3877 8.08848C23.7777 8.14962 24.5787 12.7546 24.5787 12.7546C24.5787 12.7546 25.1159 9.31901 25.741 9.41646C26.3662 9.51391 25.6378 14.6787 25.6378 14.6787C25.6378 14.6787 27.3182 13.6622 27.712 14.2029C28.1078 14.7456 25.3071 16.7863 25.3071 16.7863L24.8368 33.5896L20.7724 19.6754L20.4704 15.4679V15.4698Z" fill="url(#paint7_linear_915_582)"/>
<path d="M27.5341 83.9058L38.7465 157.105L31.9656 157.199L18.5088 104.011L27.5341 83.9058Z" fill="url(#paint8_linear_915_582)"/>
<path opacity="0.2" d="M27.7999 148.508L39.3889 86.3703L25.5403 80.7393L21.5103 147.446C23.6209 147.706 25.7353 148.149 27.8019 148.507L27.7999 148.508Z" fill="#201829"/>
<path d="M33.541 45.9082L32.067 64.6853L55.547 65.2375L50.674 52.5137L33.541 45.9082Z" fill="#8BAACF"/>
<path d="M48.6264 23.2424L46.3171 30.5472L40.4901 29.7982L46.0552 39.3291L57.734 34.3936L53.2089 32.3185L55.4189 22.2603L48.6264 23.2424Z" fill="url(#paint9_linear_915_582)"/>
<path d="M54.0424 5.58323C54.0424 5.58323 45.5256 4.56288 42.5547 14.2333C39.582 23.9018 46.4336 27.4806 51.2474 27.4099C56.0612 27.3392 59.9592 22.7515 61.0489 19.9044C62.1405 17.0574 61.7084 6.88637 54.0424 5.58514V5.58323Z" fill="url(#paint10_linear_915_582)"/>
<path d="M33.063 53.4004C33.063 53.4004 39.6126 57.3671 52.2358 57.1761C52.2358 57.1761 61.7353 69.0305 61.3988 82.1574C61.1636 91.3711 57.0897 113.395 57.0897 113.395C57.0897 113.395 45.4109 122.916 42.4898 114.522C39.5686 106.128 36.7698 72.8615 36.7698 72.8615L43.2736 80.7549L35.5272 121.084L41.4364 144.928L22.6363 144.257C22.6363 144.257 16.5532 131.493 15.6795 118.644C14.3241 98.7009 23.3781 71.6348 33.063 53.4004Z" fill="#8BAACF"/>
<path d="M50.2036 113.687C48.4639 109.172 46.5063 104.196 45.5294 99.1843C61.1636 93.2781 76.5493 87.521 76.5493 87.521L82.2157 103.449L49.9608 117.541C49.1942 115.879 50.8632 115.397 50.2036 113.687Z" fill="#8BAACF"/>
<path d="M80.3995 106.275L70.8676 89.0074L77.6676 86.2998L84.9131 104.276L80.3995 106.275Z" fill="#8BAACF"/>
<path d="M65.1707 39.2661L88.1001 69.1027C88.1001 69.1027 91.3405 67.0697 92.0841 67.7996C94.0131 69.6893 95.5425 76.1324 92.1052 69.7352C92.1052 69.7352 95.38 79.8986 90.6484 70.104C90.6484 70.104 92.6213 79.4323 89.1573 71.323C89.1573 71.323 90.1705 79.1992 88.1287 72.1428C88.1287 72.1428 86.9645 73.744 85.4772 72.4065C83.9879 71.0689 59.0646 47.148 58.1507 44.1233C57.2369 41.0985 65.1726 39.2661 65.1726 39.2661H65.1707Z" fill="url(#paint11_linear_915_582)"/>
<path opacity="0.2" d="M38.7503 76.0044C33.8028 72.2517 30.1896 68.0767 27.5992 64.3105C21.4032 79.3789 17.1018 96.2872 15.1556 111.736C14.7408 128.199 22.6363 144.257 22.6363 144.257L41.4363 144.928L35.3685 121.053L39.8591 98.0757L39.9796 97.3018C39.7521 80.9017 38.7503 76.0083 38.7503 76.0083V76.0044Z" fill="#201829"/>
<path d="M21.4033 143.182L42.1323 144.011L42.5299 148.236L23.4374 151.272L21.4033 143.182Z" fill="#8BAACF"/>
<path opacity="0.2" d="M51.6393 55.034L50.6738 52.5118L33.5408 45.9082L32.9444 53.4978C38.0181 54.7207 45.3095 55.9569 51.6393 55.034Z" fill="#201829"/>
<path d="M32.5219 156.591L38.6128 155.896L40.7768 159.847L22.145 167.626C22.145 167.626 22.5235 165.216 32.5239 156.593L32.5219 156.591Z" fill="#F78E1E"/>
<path d="M22.1431 167.624L40.775 159.845L41.4957 161.162L22.6784 168.444L22.1431 167.624Z" fill="#2B2238"/>
<path d="M31.1607 157.646C31.9827 158.007 32.6633 158.603 33.3974 159.108C33.4643 159.154 33.4013 159.263 33.3343 159.217C32.6002 158.712 31.9197 158.116 31.0976 157.755C31.0231 157.723 31.0881 157.614 31.1607 157.646Z" fill="#2B2238"/>
<path d="M30.1054 158.441C30.9274 158.802 31.608 159.398 32.3421 159.902C32.409 159.948 32.3459 160.057 32.279 160.011C31.5449 159.507 30.8643 158.911 30.0423 158.549C29.9677 158.517 30.0327 158.408 30.1054 158.441Z" fill="#2B2238"/>
<path d="M28.9718 159.371C29.7939 159.732 30.4744 160.329 31.2086 160.833C31.2755 160.879 31.2124 160.988 31.1455 160.942C30.4114 160.437 29.7308 159.841 28.9087 159.48C28.8342 159.448 28.8992 159.339 28.9718 159.371Z" fill="#2B2238"/>
<path d="M38.5784 29.7832L30.8798 30.6335L31.524 41.7045L38.5784 29.7832Z" fill="#E9E4E3"/>
<path d="M44.1607 30.2531C44.1607 30.2531 41.3217 29.164 38.8823 29.6417C36.443 30.1193 31.7267 36.9026 30.3942 39.9178C29.0617 42.9329 28.0963 47.7232 28.0963 47.7232C28.0963 47.7232 45.82 56.7268 53.5148 54.2772L58.5599 45.3959L62.2323 49.4085L70.3075 43.1508C70.3075 43.1508 65.8685 35.7943 60.6896 34.5561L55.9618 33.1728C55.9618 33.1728 44.0517 36.4669 44.1645 30.2531H44.1607Z" fill="#E9E4E3"/>
<path d="M62.9205 20.2182C62.8287 20.4608 62.735 20.6786 62.6413 20.8697L62.6356 20.8793C61.9627 22.2512 61.2305 22.4843 60.8558 23.0939C60.5308 23.6193 59.4258 24.6034 58.6898 23.2849C58.6879 23.283 58.6859 23.2811 58.6859 23.2811C58.6859 23.2811 59.8712 18.5711 60.3587 17.759C60.3587 17.759 61.0699 16.5361 62.0143 16.4807C63.2282 16.41 63.7253 18.0685 62.9205 20.2182V20.2182Z" fill="url(#paint12_linear_915_582)"/>
<path style="mix-blend-mode:multiply" opacity="0.6" d="M59.4679 20.3673C59.4679 20.3673 61.7219 17.9884 62.628 17.9521C63.5342 17.9158 62.7408 20.1075 62.4464 20.8335C62.152 21.5596 61.8175 21.9628 61.8175 21.9628C61.8175 21.9628 62.1788 21.1087 62.3336 20.396C62.5573 19.3718 62.3681 18.4317 61.9857 18.4585C61.6034 18.4852 60.9037 19.7081 60.8501 19.8514C60.7947 19.9947 61.0298 20.3023 60.8884 21.103C60.7469 21.9036 60.2269 22.7156 60.0185 22.6717C59.8121 22.6278 60.0032 21.9934 60.1198 21.2424C60.2365 20.4915 59.6285 20.5469 59.2921 20.9921L59.4679 20.3673V20.3673Z" fill="url(#paint13_linear_915_582)"/>
<path style="mix-blend-mode:multiply" opacity="0.6" d="M59.2921 20.9922C59.2921 20.9922 59.8752 20.3521 60.1084 20.7209C60.3417 21.0896 59.9956 21.9571 60.1964 22.0985C60.3971 22.2399 60.8005 21.5578 60.8483 20.8852C60.8961 20.2107 60.7259 19.5744 60.3321 19.626L59.4661 20.3674L59.2902 20.9922H59.2921Z" fill="url(#paint14_linear_915_582)"/>
<path style="mix-blend-mode:multiply" d="M62.6357 20.8794C61.9627 22.2513 61.2305 22.4844 60.8558 23.094C60.5308 23.6194 59.4259 24.6035 58.6898 23.2851C58.7376 23.3386 59.2022 23.8545 59.7719 23.7417C60.3741 23.6233 60.6379 23.1207 60.9438 22.7462C61.2477 22.3717 61.9092 22.1864 62.6357 20.8794V20.8794Z" fill="url(#paint15_linear_915_582)"/>
<path d="M65.0903 15.7354C64.6907 16.5857 64.2816 15.4087 64.2816 15.4087C63.7979 16.7329 62.7885 16.6774 62.7885 16.6774C62.7885 16.6774 63.6526 17.2984 63.427 18.229C63.2034 19.1595 61.4981 18.6914 61.4981 18.6914C61.4981 18.6914 61.5574 20.4646 60.6933 20.5085C59.8272 20.5525 60.0739 19.834 60.0739 19.834C58.9956 20.0175 59.6877 19.0411 59.6877 19.0411C59.4124 18.636 60.5269 17.7704 60.5269 17.7704C60.0222 17.587 60.3472 16.58 60.3472 16.58C60.0719 17.0137 59.2843 16.5265 59.2843 16.5265C59.2843 16.5265 58.8943 17.1341 58.3131 16.922C57.7301 16.708 58.5062 14.4992 58.5062 14.4992C57.9805 14.1743 59.0874 11.8948 59.0874 11.8948C59.0874 11.8948 58.5999 12.1012 58.3839 11.8279C58.1717 11.5604 58.6649 10.7254 58.684 10.6929C58.6687 10.712 58.4106 11.0044 57.5351 10.7598C56.648 10.5114 56.908 9.07259 56.9214 9.0573C56.0592 9.2331 55.3308 8.47261 55.3308 8.47261C55.3308 8.47261 54.8988 9.19488 54.547 9.08788C54.1952 8.98087 53.2948 7.52487 53.2948 7.52487C52.5282 7.66818 51.8381 7.27074 51.8381 7.27074C51.9107 7.33379 50.9759 8.68853 50.3947 8.40191C49.8365 8.12676 49.7619 7.85543 49.7562 7.83632C49.7524 7.86308 49.6759 8.44968 49.0278 9.44519C48.3644 10.4655 47.6131 9.85027 47.6131 9.85027C47.6131 9.85027 47.6093 11.0827 47.3722 11.5375C47.1352 11.9922 46.7605 12.3381 46.7605 12.3381C46.7605 12.3381 46.4642 13.4139 46.0551 13.1807C45.6459 12.9495 45.7301 12.554 45.7243 12.4317C45.7186 12.3094 45.4548 12.7604 44.7895 12.8922C44.1242 13.0241 44.3918 12.2311 44.3918 12.2311C44.0592 12.6285 43.5316 12.4011 43.5316 12.4011C43.5316 12.4011 43.4398 13.7119 43.0479 14.0979C42.1551 14.9788 41.8511 13.1616 41.8511 13.1616C41.2279 12.8769 41.6561 12.0706 41.6561 12.0706C41.6561 12.0706 41.4611 12.2464 41.1113 11.8508C40.7634 11.4534 40.9526 10.028 41.4363 9.50825C41.8856 9.02673 41.9295 9.51971 41.9333 9.59423C41.9333 9.59996 41.9333 9.60378 41.9333 9.60378C41.9333 9.60378 40.9239 8.80317 41.0214 8.29109C41.1189 7.78091 41.746 6.92871 41.746 6.92871C41.746 6.92871 41.2317 6.33064 41.2528 5.74021C41.2738 5.1517 41.6332 3.80461 42.1819 3.87148C42.7133 3.93836 42.7497 4.37019 42.7477 4.41414C42.7477 4.41414 43.0479 3.50271 43.3213 3.23711C43.4991 3.06514 44.1089 2.82629 44.3326 2.83585C44.8736 2.86069 45.2062 3.19698 45.2062 3.19698C45.7587 2.91992 46.3303 2.29701 46.3303 2.29701C46.3303 2.29701 45.9518 1.97218 46.2883 1.53844C47.0205 0.590697 49.1578 0.191347 50.2227 0.0346639C51.6698 -0.179342 52.36 0.667128 52.3466 0.676682C53.7785 0.590697 54.8185 0.965207 54.8185 0.965207C54.8185 0.965207 54.8223 0.776041 55.4016 0.707254C55.956 0.642288 56.2982 0.907884 56.6404 1.4257L56.6461 1.43526C56.6461 1.43526 57.0839 1.1238 57.6765 1.55372C58.382 2.0639 58.8236 3.51608 58.468 5.37908C58.6974 5.44787 58.8217 5.49946 59.097 5.65041C62.0391 4.56891 61.9321 6.79305 61.9321 6.79305C61.9321 6.79305 62.4024 6.72044 63.2034 7.01087C63.9814 7.29176 63.9585 7.44271 63.8916 7.72168C63.8228 8.00829 63.2359 8.00256 63.2359 8.00256C64.8972 8.91973 64.6314 8.84903 64.6314 8.84903C65.226 9.35538 65.2011 9.81397 65.1514 10.0127C65.1342 10.0796 65.1151 10.1178 65.1151 10.1178C65.1151 10.1178 66.1111 10.863 66.0022 11.4114C65.8932 11.9598 65.2126 11.6712 65.2126 11.6712C65.2891 12.1356 65.1342 12.6534 64.9928 13.0011C64.8934 13.2438 64.8016 13.4043 64.8016 13.4043C64.8016 13.4043 65.4898 14.8871 65.0903 15.7373V15.7354Z" fill="#010101"/>
<g style="mix-blend-mode:multiply">
<path d="M65.0903 15.7355C64.6907 16.5858 64.2816 15.4088 64.2816 15.4088C63.7979 16.7329 62.7885 16.6775 62.7885 16.6775C62.7885 16.6775 63.6526 17.2985 63.427 18.229C63.2034 19.1596 61.4981 18.6915 61.4981 18.6915C61.4981 18.6915 61.5574 20.4646 60.6933 20.5086C59.8272 20.5525 60.0739 19.8341 60.0739 19.8341C58.9956 20.0175 59.6877 19.0411 59.6877 19.0411C59.4124 18.636 60.5269 17.7705 60.5269 17.7705C60.0222 17.587 60.3472 16.5801 60.3472 16.5801C60.0719 17.0138 59.2843 16.5266 59.2843 16.5266C59.2843 16.5266 58.8943 17.1342 58.3131 16.9221C57.7301 16.7081 58.5062 14.4992 58.5062 14.4992C57.9805 14.1744 59.0874 11.8949 59.0874 11.8949C59.0874 11.8949 58.5999 12.1012 58.3839 11.828C58.1678 11.5547 58.684 10.6911 58.684 10.6911C58.684 10.6911 58.4374 11.0121 57.5351 10.7599C56.648 10.5115 56.908 9.07265 56.9214 9.05736C56.0592 9.23315 55.3308 8.47267 55.3308 8.47267C55.3308 8.47267 54.8988 9.19494 54.547 9.08794C54.1953 8.98093 53.2948 7.52493 53.2948 7.52493C52.5282 7.66824 51.8381 7.2708 51.8381 7.2708C51.9107 7.33385 50.9759 8.68859 50.3947 8.40197C49.8365 8.12682 49.7619 7.85549 49.7562 7.83638C49.7524 7.86313 49.6759 8.44974 49.0278 9.44525C48.3644 10.4656 47.6131 9.85033 47.6131 9.85033C47.6131 9.85033 47.6093 11.0828 47.3722 11.5375C47.1352 11.9923 46.7605 12.3382 46.7605 12.3382C46.7605 12.3382 46.4642 13.4139 46.0551 13.1808C45.6459 12.9496 45.7301 12.5541 45.7243 12.4318C45.7186 12.3095 45.4548 12.7604 44.7895 12.8923C44.1242 13.0241 44.3918 12.2311 44.3918 12.2311C44.0592 12.6286 43.5316 12.4012 43.5316 12.4012C43.5316 12.4012 43.4398 13.712 43.0479 14.098C42.1551 14.9788 41.8511 13.1617 41.8511 13.1617C41.2279 12.877 41.6561 12.0706 41.6561 12.0706C41.6561 12.0706 41.4611 12.2464 41.1113 11.8509C40.7634 11.4535 40.9526 10.028 41.4363 9.5083C41.92 8.98858 41.9333 9.60384 41.9333 9.60384C41.9333 9.60384 40.9239 8.80323 41.0214 8.29115C41.1189 7.78097 41.746 6.92877 41.746 6.92877C41.746 6.92877 41.2317 6.3307 41.2528 5.74027C41.2738 5.15176 41.6332 3.80467 42.1819 3.87154C42.7133 3.93842 42.7497 4.37025 42.7477 4.4142C42.8586 5.12883 46.598 5.22246 46.598 5.22246C46.598 5.22246 45.8696 5.88358 47.1256 6.04217C48.7009 6.24089 50.0888 4.9473 50.0888 4.9473C50.0888 4.9473 51.5704 5.7804 52.7232 5.74409C56.1051 5.63518 58.1583 4.97597 58.5903 4.26516L58.468 5.37914L59.097 5.65047C59.097 5.65047 58.1927 5.92562 58.0627 7.04533C58.0054 7.53448 59.7737 8.14593 60.0337 7.66824C60.0337 7.66824 59.8559 8.73444 61.0125 8.77648C61.0125 8.77648 60.0949 9.01915 60.3377 10.0624C60.5786 11.1057 64.7423 11.4496 65.117 10.1198C65.117 10.1198 66.113 10.8649 66.0041 11.4133C65.8951 11.9617 65.2145 11.6732 65.2145 11.6732C65.3445 12.4604 64.8035 13.4063 64.8035 13.4063C64.8035 13.4063 65.4917 14.889 65.0922 15.7393L65.0903 15.7355Z" fill="#010101"/>
</g>
<g style="mix-blend-mode:multiply">
<path d="M65.0903 15.7355C64.6908 16.5858 64.2817 15.4088 64.2817 15.4088C63.798 16.7329 62.7886 16.6775 62.7886 16.6775C62.7886 16.6775 63.6527 17.2985 63.4271 18.2291C63.2034 19.1596 61.4982 18.6915 61.4982 18.6915C61.4982 18.6915 61.5574 20.4647 60.6933 20.5086C59.8273 20.5525 60.0739 19.8341 60.0739 19.8341C58.9957 20.0175 59.6878 19.0411 59.6878 19.0411C59.4125 18.636 60.527 17.7705 60.527 17.7705C60.0223 17.587 60.3473 16.5801 60.3473 16.5801C60.072 17.0138 59.2844 16.5266 59.2844 16.5266C59.2844 16.5266 58.8944 17.1342 58.3132 16.9221C57.7301 16.7081 58.5063 14.4992 58.5063 14.4992C57.9806 14.1744 59.0875 11.8949 59.0875 11.8949C59.0875 11.8949 58.6 12.1012 58.3839 11.828C58.1717 11.5605 58.665 10.7255 58.6841 10.693C58.6688 10.7121 58.4107 11.0044 57.5351 10.7599C56.6481 10.5115 56.9081 9.07266 56.9215 9.05738C56.0593 9.23317 55.3309 8.47268 55.3309 8.47268C55.3309 8.47268 54.8988 9.19495 54.5471 9.08795C54.1953 8.98094 53.2949 7.52494 53.2949 7.52494C52.5283 7.66825 51.8381 7.27081 51.8381 7.27081C51.9108 7.33386 50.9759 8.6886 50.3948 8.40198C49.8365 8.12683 49.762 7.8555 49.7563 7.8364C49.7524 7.86315 49.676 8.44975 49.0279 9.44526C48.3645 10.4656 47.6132 9.85034 47.6132 9.85034C47.6132 9.85034 47.6094 11.0828 47.3723 11.5376C47.1353 11.9923 46.7606 12.3382 46.7606 12.3382C46.7606 12.3382 46.4642 13.4139 46.0551 13.1808C45.646 12.9496 45.7301 12.5541 45.7244 12.4318C45.7187 12.3095 45.4548 12.7604 44.7896 12.8923C44.1243 13.0241 44.3919 12.2312 44.3919 12.2312C44.0593 12.6286 43.5316 12.4012 43.5316 12.4012C43.5316 12.4012 43.4399 13.712 43.048 14.098C42.1552 14.9788 41.8512 13.1617 41.8512 13.1617C41.228 12.877 41.6562 12.0707 41.6562 12.0707C41.6562 12.0707 41.4612 12.2464 41.1114 11.8509C40.7634 11.4535 40.9527 10.028 41.4364 9.50832C41.8856 9.0268 41.9296 9.51978 41.9334 9.5943C41.9334 9.60003 41.9334 9.60385 41.9334 9.60385C41.7671 10.5516 42.6694 9.8255 42.6694 9.8255C42.6694 9.8255 42.6618 10.4102 43.2888 10.2363C43.2525 10.2478 42.7918 10.4083 43.2774 10.6338C43.7821 10.8688 44.3365 10.0185 44.3365 10.0185C44.3365 10.0185 44.5219 10.5325 45.1471 10.5764C45.1471 10.5764 44.4779 10.8535 45.2159 11.0751C45.9538 11.2968 45.7645 9.8064 45.7645 9.8064C45.7645 9.8064 46.1756 10.2421 46.6688 9.7892C47.1639 9.33635 47.1181 8.30262 47.1181 8.30262C47.1181 8.30262 47.2997 9.02298 48.1198 8.91789C48.9399 8.8128 49.5536 7.3759 49.5536 7.3759C49.5536 7.3759 49.8442 7.72175 50.2151 7.84022C50.584 7.95677 50.9415 6.77592 50.9415 6.77592C50.9415 6.77592 50.9568 7.21731 51.8401 6.90203C51.8401 6.90203 51.7292 7.20011 52.3352 7.23833C52.9412 7.27654 53.7308 6.56574 53.7308 6.56574C53.7308 6.56574 53.6333 7.73321 54.0978 7.95677C54.5624 8.18033 54.7268 6.53325 54.7268 6.53325C54.7268 6.53325 55.2353 7.36635 55.7935 7.13897C56.3518 6.91158 56.5276 6.40332 56.5276 6.40332C56.5276 6.40332 56.239 7.21922 56.8871 7.32813C57.5084 7.43131 57.82 7.00712 57.8467 6.97082C57.8085 7.03578 57.0954 8.29116 58.0131 8.70197C57.9022 8.6542 57.0419 8.30071 57.2063 8.87585C57.3822 9.49112 58.3839 9.06502 58.3839 9.06502C58.3839 9.06502 57.994 9.50832 58.4184 9.86563C58.8084 10.1943 59.0473 9.93633 59.0856 9.89047C59.0301 9.96881 58.5101 10.7369 59.3781 11.1955C59.3341 11.1764 58.7625 10.9452 58.8944 11.3216C59.032 11.7133 59.7623 11.8299 59.7623 11.8299C59.7623 11.8299 59.141 12.2656 59.4163 12.619C59.5253 12.7585 59.705 12.7815 59.8847 12.7566C59.3494 12.9802 58.6592 13.4101 58.9861 14.0712C59.3628 14.8298 60.0816 14.4113 60.4333 14.14C60.202 14.3674 59.8961 14.7782 60.2269 15.1317C60.7144 15.6533 61.5555 14.4935 61.5555 14.4935C61.5555 14.4935 61.4886 15.1393 62.2514 15.0782C62.2514 15.0782 61.3969 15.6514 61.8958 15.9686C62.3967 16.2858 63.8802 16.0909 63.5342 15.34C63.5342 15.34 64.144 14.9425 63.8056 14.4438C63.8056 14.4438 64.7653 14.4706 64.7959 13.4044C64.7959 13.4044 65.4842 14.8871 65.0846 15.7374L65.0903 15.7355Z" fill="#010101"/>
</g>
<g style="mix-blend-mode:soft-light" opacity="0.5">
<path d="M52.6353 4.04559C52.6353 4.04559 53.1649 4.38189 52.5971 4.48698C52.0293 4.59207 51.1422 4.11056 51.1422 4.11056C49.4389 4.19081 48.9495 3.79146 49.2707 3.14371C49.2707 3.14371 48.2842 1.72019 49.9302 1.79853C50.347 1.81764 50.1137 2.15966 50.1061 2.1654C50.9702 2.11381 50.8115 2.51889 50.8115 2.51889C50.8115 2.51889 51.9624 1.97623 52.3141 1.96859C55.9025 1.88451 54.5088 2.90295 54.5088 2.90295C57.9117 4.4736 52.6315 4.0475 52.6315 4.0475L52.6353 4.04559Z" fill="#010101"/>
</g>
<path d="M47.1808 17.8542C47.4294 17.8389 46.8673 15.7619 45.4851 15.1218C43.8143 14.3499 43.0668 15.846 43.0037 16.1708C42.9387 16.4957 45.9879 17.9211 47.1827 17.8523L47.1808 17.8542Z" fill="url(#paint16_linear_915_582)"/>
<path d="M45.1953 17.4942C44.558 17.3945 44.1236 16.7881 44.2251 16.1396C44.3265 15.491 44.9255 15.0461 45.5629 15.1458C46.2002 15.2454 46.6346 15.8519 46.5331 16.5004C46.4316 17.1489 45.8327 17.5938 45.1953 17.4942Z" fill="url(#paint17_linear_915_582)"/>
<path d="M45.2059 17.426C44.6061 17.3323 44.1974 16.7609 44.293 16.15C44.3886 15.539 44.9524 15.1197 45.5522 15.2135C46.152 15.3073 46.5607 15.8786 46.4651 16.4896C46.3695 17.1005 45.8057 17.5198 45.2059 17.426Z" fill="url(#paint18_linear_915_582)"/>
<path style="mix-blend-mode:multiply" d="M44.6822 16.1575C44.5943 16.5492 44.8332 16.9371 45.2175 17.025C45.6018 17.1129 45.9841 16.8664 46.074 16.4766C46.1638 16.0868 45.9229 15.697 45.5387 15.6091C45.1544 15.5212 44.7721 15.7677 44.6822 16.1575Z" fill="url(#paint19_linear_915_582)"/>
<path d="M47.2058 17.4644C47.2058 17.4644 47.0739 14.7014 45.5292 14.1053C43.9826 13.5091 43.1453 15.8288 43.1453 15.8288C43.1453 15.8288 43.8067 14.6594 45.3017 15.0855C46.7986 15.5116 47.2058 17.4644 47.2058 17.4644V17.4644Z" fill="url(#paint20_linear_915_582)"/>
<path d="M47.2269 17.5791L46.8962 17.8466C46.8962 17.8466 47.2135 17.9517 47.2671 17.8676C47.3206 17.7836 47.2269 17.5791 47.2269 17.5791Z" fill="#D86B7C"/>
<path d="M46.6743 17.8273C46.6743 17.8273 45.3762 17.7337 44.342 17.2693C43.3077 16.8031 43.0458 16.27 43.0458 16.27C43.0458 16.27 44.602 17.319 46.6743 17.8273V17.8273Z" fill="#D86B7C"/>
<path d="M44.6268 15.9111C44.6823 15.9894 44.3592 15.9302 44.1413 15.7811C43.9482 15.6474 43.8755 15.485 43.9023 15.4639C43.9291 15.4448 44.4108 15.6034 44.6268 15.9111Z" fill="white"/>
<path d="M44.7951 16.0144C44.8926 16.0029 44.9882 16.0755 44.9806 16.1252C44.9729 16.1749 44.8468 16.2112 44.8009 16.1787C44.7531 16.1462 44.7416 16.0201 44.7951 16.0144V16.0144Z" fill="white"/>
<g style="mix-blend-mode:multiply" opacity="0.6">
<path d="M47.2268 17.5792C47.2268 17.5792 46.5519 16.0411 45.3495 15.5099C44.147 14.9787 43.3765 15.5634 43.3765 15.5634C43.3765 15.5634 43.7627 14.6691 45.382 15.1679C47.0012 15.6647 47.2268 17.5792 47.2268 17.5792V17.5792Z" fill="#CC78B1"/>
</g>
<path d="M47.2268 17.5793C47.2268 17.5793 46.8597 15.6704 45.185 15.1545C43.6901 14.6959 43.0688 15.98 43.0688 15.98C43.0688 15.98 43.1777 14.7571 44.2865 14.717C45.3399 14.6787 46.9286 15.6055 47.2268 17.5793V17.5793Z" fill="#401432"/>
<path d="M52.2663 18.6492C52.035 18.5594 53.2049 16.7537 54.7152 16.5664C56.5409 16.341 56.7952 17.9957 56.7589 18.3243C56.7206 18.653 53.3827 19.081 52.2663 18.6492Z" fill="url(#paint21_linear_915_582)"/>
<path d="M54.2687 18.9119C53.6314 18.8121 53.1971 18.2056 53.2987 17.5571C53.4003 16.9086 53.9993 16.4638 54.6367 16.5635C55.274 16.6633 55.7083 17.2698 55.6067 17.9183C55.5051 18.5668 54.9061 19.0116 54.2687 18.9119Z" fill="url(#paint22_linear_915_582)"/>
<path d="M54.2813 18.845C53.6815 18.7512 53.2727 18.1799 53.3684 17.5689C53.464 16.958 54.0277 16.5387 54.6275 16.6325C55.2273 16.7262 55.6361 17.2975 55.5404 17.9085C55.4448 18.5195 54.8811 18.9387 54.2813 18.845Z" fill="url(#paint23_linear_915_582)"/>
<path style="mix-blend-mode:multiply" d="M55.1645 17.7969C55.1301 18.1962 54.7821 18.4924 54.3902 18.458C53.9983 18.4236 53.7077 18.0739 53.7441 17.6746C53.7785 17.2752 54.1264 16.9791 54.5183 17.0135C54.9102 17.0479 55.2008 17.3975 55.1645 17.7969Z" fill="url(#paint24_linear_915_582)"/>
<path d="M52.3637 18.2708C52.3637 18.2708 53.3329 15.6798 54.9866 15.5843C56.6403 15.4887 56.7301 17.9517 56.7301 17.9517C56.7301 17.9517 56.4586 16.6371 54.9044 16.5855C53.3502 16.5358 52.3637 18.2689 52.3637 18.2689V18.2708Z" fill="url(#paint25_linear_915_582)"/>
<path d="M52.3083 18.374L52.5416 18.7294C52.5416 18.7294 52.207 18.7332 52.1821 18.6358C52.1554 18.5403 52.3083 18.374 52.3083 18.374V18.374Z" fill="#D86B7C"/>
<path d="M52.7575 18.7788C52.7575 18.7788 54.0231 19.0864 55.1491 18.9584C56.2751 18.8304 56.6899 18.4043 56.6899 18.4043C56.6899 18.4043 54.8872 18.9298 52.7594 18.7788H52.7575Z" fill="#D86B7C"/>
<path d="M55.2924 17.5791C55.2159 17.6364 55.5409 17.6803 55.7933 17.6039C56.0189 17.5351 56.1374 17.4014 56.1183 17.3746C56.0992 17.3478 55.5925 17.3517 55.2924 17.5791V17.5791Z" fill="white"/>
<path d="M55.1013 17.6267C55.0114 17.5866 54.8986 17.6267 54.891 17.6764C54.8833 17.7261 54.9923 17.7987 55.0458 17.7815C55.1013 17.7643 55.151 17.6497 55.1013 17.6267Z" fill="white"/>
<g style="mix-blend-mode:multiply" opacity="0.6">
<path d="M52.3083 18.3739C52.3083 18.3739 53.421 17.1166 54.7286 16.9771C56.0362 16.8376 56.5906 17.6306 56.5906 17.6306C56.5906 17.6306 56.497 16.6618 54.8032 16.6408C53.1094 16.6198 52.3103 18.3739 52.3103 18.3739H52.3083Z" fill="#CC78B1"/>
</g>
<path d="M52.3083 18.3741C52.3083 18.3741 53.2412 16.6678 54.9924 16.6889C56.5562 16.708 56.755 18.12 56.755 18.12C56.755 18.12 57.0246 16.922 55.9827 16.5455C54.9905 16.1863 53.1953 16.5857 52.3083 18.3741V18.3741Z" fill="#401432"/>
<path d="M46.9822 20.0766C46.9822 20.0766 47.0033 20.2046 47.464 20.2925C47.9247 20.3823 48.2937 20.8543 49.0794 20.9785C49.8651 21.1008 50.322 20.7588 50.7885 20.8123C51.255 20.8677 51.3525 20.7588 51.3525 20.7588C51.4691 20.4664 51.471 20.1664 51.4251 19.9008C51.4251 19.9008 51.4251 19.8932 51.4251 19.8913C51.341 19.425 51.1154 19.0716 51.1154 19.0716C50.0965 18.3665 48.9131 18.1811 47.7259 18.5423C47.7259 18.5423 47.5175 18.7142 47.3225 18.997V19.0009C47.1333 19.2741 46.9555 19.6505 46.9861 20.0766H46.9822Z" fill="url(#paint26_linear_915_582)"/>
<path d="M47.9897 20.5276C47.9897 20.5276 47.6819 20.1665 47.2193 20.2296L47.9897 20.5276Z" fill="#812852"/>
<path d="M51.0293 20.8277C51.0293 20.8277 50.6011 20.6227 50.0945 20.91L51.0293 20.8277Z" fill="#812852"/>
<g style="mix-blend-mode:multiply" opacity="0.6">
<path d="M46.9823 20.0767C46.9823 20.0767 47.0033 20.2048 47.464 20.2927C47.9247 20.3825 48.2937 20.8544 49.0794 20.9786C49.8652 21.1009 50.3221 20.7589 50.7885 20.8124C51.255 20.8678 51.3525 20.7589 51.3525 20.7589C51.4691 20.4665 51.471 20.1665 51.4251 19.9009C51.4309 19.9774 51.4538 20.4704 51.2512 20.5583C51.0313 20.6519 49.9034 20.4016 49.1884 20.2888C48.4734 20.1761 47.2575 19.9888 47.1505 19.7787C47.0472 19.5761 47.2977 19.0487 47.3225 19.001C47.1333 19.2742 46.9555 19.6506 46.9861 20.0767H46.9823Z" fill="#CC78B1"/>
</g>
<path style="mix-blend-mode:multiply" opacity="0.6" d="M47.7258 18.5404C47.7258 18.5404 47.8577 19.3678 47.7411 19.9162C47.7411 19.9162 48.0145 19.4079 47.8998 18.4927L47.7258 18.5404V18.5404Z" fill="url(#paint27_linear_915_582)"/>
<path style="mix-blend-mode:multiply" opacity="0.6" d="M51.0753 19.0657C51.0753 19.0657 50.6968 19.8147 50.6413 20.3707C50.6413 20.3707 50.5362 19.8013 50.9243 18.9663L51.0753 19.0657V19.0657Z" fill="url(#paint28_linear_915_582)"/>
<g style="mix-blend-mode:multiply" opacity="0.6">
<path d="M51.2511 20.5581C51.2511 20.5581 51.3409 20.6957 51.3543 20.7607C51.3677 20.8256 50.1748 21.6434 49.0067 21.46C47.8386 21.2766 46.9879 20.1989 46.9841 20.0766C46.9822 19.9543 47.1963 19.832 47.1963 19.832C47.1963 19.832 48.0872 20.1167 49.1883 20.2887C50.2914 20.4607 51.2511 20.5581 51.2511 20.5581V20.5581Z" fill="#CC78B1"/>
</g>
<path d="M48.2974 19.8742C48.4771 19.8054 48.2286 19.4863 48.1483 19.4863C48.068 19.4863 47.9973 19.6545 48.0221 19.7749C48.047 19.8952 48.2209 19.9029 48.2974 19.8742Z" fill="#FBCBBB"/>
<g style="mix-blend-mode:multiply">
<path d="M47.8617 15.1065C47.8617 15.1065 47.552 13.9008 46.9479 13.0506L47.0817 13.5989C47.0817 13.5989 46.9039 13.3563 46.6133 13.1327C46.3208 12.9092 43.956 12.2824 43.459 12.2939L43.5699 12.0933C43.5699 12.0933 42.6178 12.676 41.8263 14.0652C41.8263 14.0652 42.5528 13.4671 42.9696 13.4633C43.3863 13.4595 46.9995 14.5925 47.8216 15.3721L47.8636 15.1085L47.8617 15.1065Z" fill="#010101"/>
<path d="M52.3314 15.806C52.3314 15.806 52.9948 14.7532 53.8302 14.1265L53.5358 14.608C53.5358 14.608 53.7786 14.4303 54.1246 14.3061C54.4706 14.1819 56.9158 14.3061 57.3841 14.4704L57.3402 14.2468C57.3402 14.2468 58.0685 15.0933 58.3974 16.6582C58.3974 16.6582 57.8888 15.8672 57.4931 15.7353C57.0974 15.6035 53.3121 15.5806 52.2893 16.0716L52.3314 15.8079V15.806Z" fill="#010101"/>
</g>
<path style="mix-blend-mode:multiply" opacity="0.6" d="M51.3391 17.1283C51.3391 17.1283 50.5916 20.7225 51.3295 21.8116C52.0675 22.9027 55.6596 23.1912 57.5695 22.3218C59.4793 21.4524 58.6343 16.6487 58.6343 16.6487C58.6343 16.6487 57.7951 15.1411 55.088 14.9673C52.381 14.7934 51.3391 17.1264 51.3391 17.1264V17.1283Z" fill="url(#paint29_linear_915_582)"/>
<path style="mix-blend-mode:multiply" opacity="0.6" d="M48.4065 16.7042C48.4065 16.7042 47.9974 19.9258 47.053 20.669C46.1067 21.4104 42.9045 20.6614 41.486 19.3735C40.0675 18.0857 42.1436 14.1457 42.1436 14.1457C42.1436 14.1457 43.2945 13.0699 45.6957 13.6737C48.0968 14.2775 48.4084 16.7061 48.4084 16.7061L48.4065 16.7042Z" fill="url(#paint30_linear_915_582)"/>
<path d="M51.6622 17.7915C51.5915 17.7074 51.0906 17.138 50.0315 16.9049C48.8749 16.6507 48.0357 17.0119 47.9439 17.052" stroke="url(#paint31_linear_915_582)" stroke-miterlimit="10"/>
<path d="M58.77 18.6838L60.4963 17.5469" stroke="url(#paint32_linear_915_582)" stroke-miterlimit="10"/>
<g style="mix-blend-mode:multiply" opacity="0.4">
<path d="M50.6758 24.2996C50.0965 24.6799 49.4561 25.1289 48.7086 25.0716C47.9611 25.0143 47.2709 24.1964 46.8274 23.6309C47.8234 24.7811 49.3433 25.0104 50.6758 24.3015V24.2996Z" fill="#CC78B1"/>
</g>
<path d="M52.3045 22.6526C51.5437 23.8793 50.1844 24.9589 48.6741 24.7181C47.1123 24.4678 46.1736 23.0997 45.8601 21.6494C46.8981 22.1004 47.8789 22.6679 48.8596 23.2296C49.9952 22.9908 51.1518 22.7577 52.3064 22.6526H52.3045Z" fill="#F26665"/>
<path d="M45.6708 21.3896C45.7855 21.6992 45.9537 21.9896 46.1602 22.2514C46.8063 23.0711 47.8349 23.6348 48.8041 23.7896C49.6319 23.9214 50.5514 23.8182 51.3314 23.459C51.8208 23.2335 52.2548 22.9068 52.5798 22.4731C51.6067 22.7043 50.301 22.6737 49.2801 22.5304C49.1922 22.517 49.1043 22.5036 49.0201 22.4902C48.72 22.4463 48.4026 22.3852 48.0796 22.3068C47.2365 22.1043 46.3571 21.789 45.6688 21.3916L45.6708 21.3896Z" fill="#731C55"/>
<g style="mix-blend-mode:multiply" opacity="0.4">
<path d="M52.5798 22.4712C51.6067 22.7024 50.301 22.6718 49.2801 22.5285C50.4692 22.7903 51.5035 23.1476 51.3314 23.4571C51.8208 23.2317 52.2548 22.9049 52.5798 22.4712Z" fill="#CC78B1"/>
</g>
<g style="mix-blend-mode:multiply" opacity="0.6">
<path d="M45.6708 21.3896C45.7855 21.6992 45.9538 21.9896 46.1602 22.2514C46.2061 22.1005 47.0702 22.1501 48.0796 22.3049C47.2366 22.1024 46.3572 21.7871 45.6689 21.3896H45.6708Z" fill="#CC78B1"/>
</g>
<path d="M50.5305 23.7417C50.1176 23.5162 49.3815 23.3251 48.8959 23.3442C48.3262 23.1436 47.2538 23.2239 47.2538 23.2239C47.768 23.5162 48.2918 23.7398 48.894 23.8143C49.4083 23.8773 50.0048 23.8219 50.5286 23.7417H50.5305Z" fill="#BE2741"/>
<path d="M52.3429 22.5151C51.2743 22.7081 50.1024 22.6889 49.0222 22.4864C47.9402 22.3488 46.8486 22.0183 45.8736 21.4985C47.0474 21.6055 49.3855 21.8578 52.3429 22.5151Z" fill="#D74058"/>
<path d="M51.7081 22.6086C50.8975 23.048 49.913 23.2372 48.9973 23.092C48.0815 22.9468 47.1945 22.4786 46.5407 21.8232C47.3302 22.171 48.1676 22.3525 49.0278 22.4882C49.8881 22.6239 50.8287 22.6926 51.7081 22.6086V22.6086Z" fill="#FBDBE9"/>
<path d="M46.0532 21.2252C45.7722 21.3627 45.516 21.5271 45.342 21.785C45.3975 21.5748 45.5026 21.25 45.6709 21.1315C45.841 21.0131 45.9385 21.1353 46.0532 21.2252Z" fill="#D86B7C"/>
<path d="M52.2128 22.1863C52.4384 22.4022 52.6315 22.6372 52.7194 22.9353C52.7309 22.7194 52.7309 22.3812 52.6067 22.2168C52.4824 22.0525 52.3505 22.1366 52.2128 22.1863Z" fill="#D86B7C"/>
<g style="mix-blend-mode:soft-light">
<path d="M47.7472 23.6347C47.5942 23.7111 47.4814 23.8315 47.3839 23.971C47.3342 23.9347 47.2826 23.9003 47.2329 23.864C47.2501 23.715 47.4203 23.6022 47.5254 23.522C47.6 23.5602 47.6726 23.5984 47.7472 23.6347Z" fill="#FBDBE9"/>
</g>
<g style="mix-blend-mode:soft-light">
<path d="M47.4354 23.5087C47.2959 23.5642 47.2175 23.6731 47.1659 23.8106C47.1525 23.7915 47.1391 23.7705 47.1257 23.7514C47.1831 23.6196 47.2729 23.5355 47.4144 23.5068C47.422 23.5068 47.4278 23.5087 47.4354 23.5107V23.5087Z" fill="#FBDBE9"/>
</g>
<path d="M50.5325 23.7395C49.4428 23.8962 48.2633 23.6153 47.2577 23.2217C48.16 23.9 49.4753 23.9535 50.5325 23.7395Z" fill="#FBDBE9"/>
<g style="mix-blend-mode:soft-light" opacity="0.5">
<path d="M49.4618 23.5657C49.0145 23.6593 47.9974 23.1855 48.896 23.346C49.2745 23.4129 50.0526 23.4434 49.4618 23.5657Z" fill="#F7A9B0"/>
</g>
<g style="mix-blend-mode:multiply">
<path d="M61.6911 6.77407C61.6911 6.77407 62.1955 1.79568 65.55 2.13063C68.9045 2.46558 68.7567 8.83484 68.7567 8.83484L68.2196 8.34977C68.2196 8.34977 68.8826 4.92668 67.0732 4.26378C65.2636 3.60289 63.593 4.58456 63.593 4.58456C63.593 4.58456 68.5359 3.29928 69.8996 6.26762C71.2653 9.23627 69.1989 14.3861 65.97 13.3687C62.7415 12.3494 61.6891 6.77376 61.6891 6.77376L61.6911 6.77407Z" fill="#010101"/>
</g>
<path style="mix-blend-mode:multiply" d="M70.2443 9.4398C70.2443 9.4398 66.8329 4.65173 62.4416 7.16896L62.1255 6.99504C62.1255 6.99504 66.3204 4.10073 70.3245 8.23953L70.244 9.4418L70.2443 9.4398Z" fill="url(#paint33_linear_915_582)"/>
<path d="M70.0243 6.56373C70.0243 6.56373 65.8322 3.36455 62.0999 5.86846L62.5082 5.21742C62.5082 5.21742 64.3444 3.33402 69.9015 6.2678L70.0243 6.56373Z" fill="#010101"/>
<path style="mix-blend-mode:multiply" d="M68.2123 13.0605C68.2123 13.0605 69.0028 7.46353 62.9539 7.48029L63.1475 7.62302C63.1475 7.62302 68.778 7.95004 67.7277 13.314L68.2103 13.0602L68.2123 13.0605Z" fill="url(#paint34_linear_915_582)"/>
<path d="M61.243 6.43235C61.243 6.43235 64.0921 8.08879 64.7983 12.7122C64.7983 12.7122 66.9233 8.30197 61.243 6.43235Z" fill="#F78E1E"/>
<defs>
<linearGradient id="paint0_linear_915_582" x1="50.3354" y1="27.9918" x2="52.1579" y2="16.3343" gradientUnits="userSpaceOnUse">
<stop stop-color="#31111B"/>
<stop offset="1" stop-color="#1A0F21"/>
</linearGradient>
<linearGradient id="paint1_linear_915_582" x1="39.7446" y1="21.5699" x2="40.7448" y2="15.172" gradientUnits="userSpaceOnUse">
<stop stop-color="#F7A393"/>
<stop offset="0.43" stop-color="#F5A794"/>
<stop offset="0.51" stop-color="#F5A18E"/>
<stop offset="0.76" stop-color="#F59584"/>
<stop offset="1" stop-color="#F69181"/>
</linearGradient>
<linearGradient id="paint2_linear_915_582" x1="40.0038" y1="19.9047" x2="40.6924" y2="15.5003" gradientUnits="userSpaceOnUse">
<stop stop-color="#F7A393"/>
<stop offset="0.43" stop-color="#F5A794"/>
<stop offset="0.51" stop-color="#F5A18E"/>
<stop offset="0.76" stop-color="#F59584"/>
<stop offset="1" stop-color="#F69181"/>
</linearGradient>
<linearGradient id="paint3_linear_915_582" x1="40.7995" y1="18.3715" x2="41.0985" y2="16.4591" gradientUnits="userSpaceOnUse">
<stop stop-color="#F7A393"/>
<stop offset="0.43" stop-color="#F5A794"/>
<stop offset="0.51" stop-color="#F5A18E"/>
<stop offset="0.76" stop-color="#F59584"/>
<stop offset="1" stop-color="#F69181"/>
</linearGradient>
<linearGradient id="paint4_linear_915_582" x1="42.2577" y1="18.7627" x2="40.165" y2="18.4352" gradientUnits="userSpaceOnUse">
<stop stop-color="#F7A393"/>
<stop offset="0.43" stop-color="#F5A794"/>
<stop offset="0.51" stop-color="#F5A18E"/>
<stop offset="0.76" stop-color="#F59584"/>
<stop offset="1" stop-color="#F69181"/>
</linearGradient>
<linearGradient id="paint5_linear_915_582" x1="87.9844" y1="98.7166" x2="58.949" y2="94.1726" gradientUnits="userSpaceOnUse">
<stop stop-color="#F7A393"/>
<stop offset="0.43" stop-color="#F5A794"/>
<stop offset="0.51" stop-color="#F5A18E"/>
<stop offset="0.76" stop-color="#F59584"/>
<stop offset="1" stop-color="#F69181"/>
</linearGradient>
<linearGradient id="paint6_linear_915_582" x1="39.715" y1="30.8935" x2="18.3138" y2="27.5443" gradientUnits="userSpaceOnUse">
<stop stop-color="#F7A393"/>
<stop offset="0.43" stop-color="#F5A794"/>
<stop offset="0.51" stop-color="#F5A18E"/>
<stop offset="0.76" stop-color="#F59584"/>
<stop offset="1" stop-color="#F69181"/>
</linearGradient>
<linearGradient id="paint7_linear_915_582" x1="26.7684" y1="21.2593" x2="18.7262" y2="20.0007" gradientUnits="userSpaceOnUse">
<stop stop-color="#F7A393"/>
<stop offset="0.43" stop-color="#F5A794"/>
<stop offset="0.51" stop-color="#F5A18E"/>
<stop offset="0.76" stop-color="#F59584"/>
<stop offset="1" stop-color="#F69181"/>
</linearGradient>
<linearGradient id="paint8_linear_915_582" x1="34.1997" y1="120.311" x2="21.9053" y2="122.562" gradientUnits="userSpaceOnUse">
<stop stop-color="#F7A393"/>
<stop offset="0.43" stop-color="#F5A794"/>
<stop offset="0.51" stop-color="#F5A18E"/>
<stop offset="0.76" stop-color="#F59584"/>
<stop offset="1" stop-color="#F69181"/>
</linearGradient>
<linearGradient id="paint9_linear_915_582" x1="58.1193" y1="31.9526" x2="40.5843" y2="29.2084" gradientUnits="userSpaceOnUse">
<stop stop-color="#F9AD99"/>
<stop offset="0.18" stop-color="#F79B8D"/>
<stop offset="0.46" stop-color="#F48781"/>
<stop offset="0.73" stop-color="#F37B79"/>
<stop offset="1" stop-color="#F37777"/>
</linearGradient>
<linearGradient id="paint10_linear_915_582" x1="61.4693" y1="17.9521" x2="42.2591" y2="14.9458" gradientUnits="userSpaceOnUse">
<stop stop-color="#F7A393"/>
<stop offset="0.43" stop-color="#F5A794"/>
<stop offset="0.51" stop-color="#F5A18E"/>
<stop offset="0.76" stop-color="#F59584"/>
<stop offset="1" stop-color="#F69181"/>
</linearGradient>
<linearGradient id="paint11_linear_915_582" x1="96.0601" y1="60.1213" x2="56.4515" y2="53.9227" gradientUnits="userSpaceOnUse">
<stop stop-color="#F7A393"/>
<stop offset="0.43" stop-color="#F5A794"/>
<stop offset="0.51" stop-color="#F5A18E"/>
<stop offset="0.76" stop-color="#F59584"/>
<stop offset="1" stop-color="#F69181"/>
</linearGradient>
<linearGradient id="paint12_linear_915_582" x1="60.1444" y1="26.425" x2="61.4294" y2="18.2053" gradientUnits="userSpaceOnUse">
<stop stop-color="#F7A393"/>
<stop offset="0.43" stop-color="#F5A794"/>
<stop offset="0.51" stop-color="#F5A18E"/>
<stop offset="0.76" stop-color="#F59584"/>
<stop offset="1" stop-color="#F69181"/>
</linearGradient>
<linearGradient id="paint13_linear_915_582" x1="60.4811" y1="24.2865" x2="61.3656" y2="18.6286" gradientUnits="userSpaceOnUse">
<stop stop-color="#F7A393"/>
<stop offset="0.43" stop-color="#F5A794"/>
<stop offset="0.51" stop-color="#F5A18E"/>
<stop offset="0.76" stop-color="#F59584"/>
<stop offset="1" stop-color="#F69181"/>
</linearGradient>
<linearGradient id="paint14_linear_915_582" x1="59.8998" y1="22.0664" x2="60.2841" y2="19.6084" gradientUnits="userSpaceOnUse">
<stop stop-color="#F7A393"/>
<stop offset="0.43" stop-color="#F5A794"/>
<stop offset="0.51" stop-color="#F5A18E"/>
<stop offset="0.76" stop-color="#F59584"/>
<stop offset="1" stop-color="#F69181"/>
</linearGradient>
<linearGradient id="paint15_linear_915_582" x1="62.3652" y1="22.6144" x2="58.8805" y2="22.069" gradientUnits="userSpaceOnUse">
<stop stop-color="#F7A393"/>
<stop offset="0.43" stop-color="#F5A794"/>
<stop offset="0.51" stop-color="#F5A18E"/>
<stop offset="0.76" stop-color="#F59584"/>
<stop offset="1" stop-color="#F69181"/>
</linearGradient>
<linearGradient id="paint16_linear_915_582" x1="45.0365" y1="17.5889" x2="45.3968" y2="14.9979" gradientUnits="userSpaceOnUse">
<stop stop-color="#E8DCED"/>
<stop offset="1" stop-color="#BBC3E3"/>
</linearGradient>
<linearGradient id="paint17_linear_915_582" x1="45.1161" y1="17.4705" x2="45.6424" y2="15.1525" gradientUnits="userSpaceOnUse">
<stop stop-color="#48204B"/>
<stop offset="1" stop-color="#301138"/>
</linearGradient>
<linearGradient id="paint18_linear_915_582" x1="45.1313" y1="17.4032" x2="45.6268" y2="15.2212" gradientUnits="userSpaceOnUse">
<stop stop-color="#57345B"/>
<stop offset="1" stop-color="#301138"/>
</linearGradient>
<linearGradient id="paint19_linear_915_582" x1="45.2183" y1="17.0197" x2="45.5399" y2="15.6035" gradientUnits="userSpaceOnUse">
<stop stop-color="#A295B8"/>
<stop offset="0.99" stop-color="#734B61"/>
</linearGradient>
<linearGradient id="paint20_linear_915_582" x1="47.5295" y1="16.0376" x2="43.3166" y2="15.08" gradientUnits="userSpaceOnUse">
<stop stop-color="#F7A393"/>
<stop offset="0.43" stop-color="#F5A794"/>
<stop offset="0.51" stop-color="#F5A18E"/>
<stop offset="0.76" stop-color="#F59584"/>
<stop offset="1" stop-color="#F69181"/>
</linearGradient>
<linearGradient id="paint21_linear_915_582" x1="54.3884" y1="19.056" x2="54.8365" y2="16.4788" gradientUnits="userSpaceOnUse">
<stop stop-color="#E8DCED"/>
<stop offset="1" stop-color="#BBC3E3"/>
</linearGradient>
<linearGradient id="paint22_linear_915_582" x1="54.3449" y1="18.9231" x2="54.5515" y2="16.5551" gradientUnits="userSpaceOnUse">
<stop stop-color="#48204B"/>
<stop offset="1" stop-color="#301138"/>
</linearGradient>
<linearGradient id="paint23_linear_915_582" x1="54.3599" y1="18.847" x2="54.5541" y2="16.6179" gradientUnits="userSpaceOnUse">
<stop stop-color="#57345B"/>
<stop offset="1" stop-color="#301138"/>
</linearGradient>
<linearGradient id="paint24_linear_915_582" x1="54.3881" y1="18.4585" x2="54.5144" y2="17.0118" gradientUnits="userSpaceOnUse">
<stop stop-color="#A295B8"/>
<stop offset="0.99" stop-color="#734B61"/>
</linearGradient>
<linearGradient id="paint25_linear_915_582" x1="52.4876" y1="16.8177" x2="56.7937" y2="17.1939" gradientUnits="userSpaceOnUse">
<stop stop-color="#F7A393"/>
<stop offset="0.43" stop-color="#F5A794"/>
<stop offset="0.51" stop-color="#F5A18E"/>
<stop offset="0.76" stop-color="#F59584"/>
<stop offset="1" stop-color="#F69181"/>
</linearGradient>
<linearGradient id="paint26_linear_915_582" x1="49.0814" y1="20.9822" x2="49.4834" y2="18.4109" gradientUnits="userSpaceOnUse">
<stop stop-color="#F37A7F"/>
<stop offset="0.47" stop-color="#F4837F"/>
<stop offset="1" stop-color="#F58880"/>
</linearGradient>
<linearGradient id="paint27_linear_915_582" x1="47.6625" y1="19.9095" x2="47.8839" y2="18.4936" gradientUnits="userSpaceOnUse">
<stop stop-color="#FCE4D6"/>
<stop offset="0.99" stop-color="#AE7DB7"/>
</linearGradient>
<linearGradient id="paint28_linear_915_582" x1="50.7202" y1="20.3889" x2="50.9415" y2="18.973" gradientUnits="userSpaceOnUse">
<stop stop-color="#FCE4D6"/>
<stop offset="0.99" stop-color="#AE7DB7"/>
</linearGradient>
<linearGradient id="paint29_linear_915_582" x1="54.3727" y1="22.8879" x2="55.602" y2="15.0249" gradientUnits="userSpaceOnUse">
<stop stop-color="#FCE4D6"/>
<stop offset="0.99" stop-color="#AE7DB7"/>
</linearGradient>
<linearGradient id="paint30_linear_915_582" x1="44.1321" y1="20.825" x2="45.2545" y2="13.6455" gradientUnits="userSpaceOnUse">
<stop stop-color="#FCE4D6"/>
<stop offset="0.99" stop-color="#AE7DB7"/>
</linearGradient>
<linearGradient id="paint31_linear_915_582" x1="49.7866" y1="17.5765" x2="49.9103" y2="16.7855" gradientUnits="userSpaceOnUse">
<stop stop-color="#FCE4D6"/>
<stop offset="0.99" stop-color="#AE7DB7"/>
</linearGradient>
<linearGradient id="paint32_linear_915_582" x1="59.5175" y1="18.8754" x2="59.7539" y2="17.3633" gradientUnits="userSpaceOnUse">
<stop stop-color="#FCE4D6"/>
<stop offset="0.99" stop-color="#AE7DB7"/>
</linearGradient>
<linearGradient id="paint33_linear_915_582" x1="70.4528" y1="8.08695" x2="62.1563" y2="6.8085" gradientUnits="userSpaceOnUse">
<stop stop-color="#827FBC"/>
<stop offset="1" stop-color="white"/>
</linearGradient>
<linearGradient id="paint34_linear_915_582" x1="68.5545" y1="10.8397" x2="62.5781" y2="9.91875" gradientUnits="userSpaceOnUse">
<stop stop-color="#827FBC"/>
<stop offset="1" stop-color="white"/>
</linearGradient>
</defs>
</svg>
