<svg width="334" height="250" viewBox="0 0 334 250" fill="none" xmlns="http://www.w3.org/2000/svg">
<path d="M247.025 22.25H44.1084V183.775H247.025V22.25Z" fill="#A5A5A5"/>
<path d="M176.875 117.225H107.358V125H176.875V117.225Z" fill="#C0C0C0"/>
<path d="M189.442 95.5583H127.292V103.333H189.442V95.5583Z" fill="#C8C8C8"/>
<path d="M210.134 136.025H127.292V143.8H210.134V136.025Z" fill="#C0C0C0"/>
<path d="M210.134 156.458H127.292V164.233H210.134V156.458Z" fill="#C8C8C8"/>
<path d="M112.717 136.025H81.5586V143.8H112.717V136.025Z" fill="white"/>
<path d="M112.717 156.458H81.5586V164.233H112.717V156.458Z" fill="white"/>
<path d="M92.7833 117.225H61.625V125H92.7833V117.225Z" fill="white"/>
<path d="M57.9587 39.0333C59.9837 39.0333 61.6253 37.3917 61.6253 35.3666C61.6253 33.3416 59.9837 31.7 57.9587 31.7C55.9336 31.7 54.292 33.3416 54.292 35.3666C54.292 37.3917 55.9336 39.0333 57.9587 39.0333Z" fill="white"/>
<path d="M68.8669 39.0333C70.8919 39.0333 72.5335 37.3917 72.5335 35.3666C72.5335 33.3416 70.8919 31.7 68.8669 31.7C66.8418 31.7 65.2002 33.3416 65.2002 35.3666C65.2002 37.3917 66.8418 39.0333 68.8669 39.0333Z" fill="white"/>
<path d="M79.1413 39.0333C81.1663 39.0333 82.8079 37.3917 82.8079 35.3666C82.8079 33.3416 81.1663 31.7 79.1413 31.7C77.1162 31.7 75.4746 33.3416 75.4746 35.3666C75.4746 37.3917 77.1162 39.0333 79.1413 39.0333Z" fill="white"/>
<path d="M92.7833 58.0583H61.625V65.8333H92.7833V58.0583Z" fill="white"/>
<path d="M112.717 77.5166H81.5586V85.2916H112.717V77.5166Z" fill="white"/>
<path d="M189.442 77.5166H127.292V85.2916H189.442V77.5166Z" fill="#C8C8C8"/>
<path d="M112.717 95.5583H81.5586V103.333H112.717V95.5583Z" fill="white"/>
<path d="M169.417 58.0583H105.233V65.8333H169.417V58.0583Z" fill="#C0C0C0"/>
<path d="M228.408 58.0583H182.842V65.8333H228.408V58.0583Z" fill="#C0C0C0"/>
<path opacity="0.24" d="M226.458 71.7333C226.458 71.7333 208.25 64.3917 208.017 86.3583L203.992 92.5C203.992 92.5 173.317 90.8333 165.55 108.892C157.783 126.95 138.217 168.175 167.133 170.275L182.65 174.592L182.842 183.758H208.017L240.042 127.15L226.458 71.7333Z" fill="black"/>
<path d="M226.458 71.7334C226.458 71.7334 228.958 67.2001 234.15 71.6668C239.341 76.1334 231.65 81.2918 239.325 86.7834C239.325 86.7834 226.933 93.0668 226.458 71.7334Z" fill="#FFD200"/>
<path d="M226.458 71.7334C226.458 71.7334 228.958 67.2001 234.15 71.6668C239.341 76.1334 231.65 81.2918 239.325 86.7834C239.325 86.7834 226.933 93.0668 226.458 71.7334Z" fill="#2C2C2C"/>
<path d="M217.991 81.3999C217.991 81.3999 180.35 85.0666 187.408 113.3C194.466 141.533 202.258 160.35 202.258 160.35H247.633C247.633 160.35 305.041 84.7916 217.991 81.3999Z" fill="#C0C0C0"/>
<path opacity="0.08" d="M247.008 101.325C247.008 101.325 236.817 116.117 240.342 128.35L230.683 150.017L208.017 166.683L247.633 160.35C247.633 160.35 260.783 142.017 262.567 132.733C264.35 123.45 247.008 101.325 247.008 101.325Z" fill="black"/>
<path opacity="0.45" d="M222.816 234.517C271.606 234.517 311.158 229.547 311.158 223.417C311.158 217.286 271.606 212.317 222.816 212.317C174.027 212.317 134.475 217.286 134.475 223.417C134.475 229.547 174.027 234.517 222.816 234.517Z" fill="#E6E6E6"/>
<path d="M255.325 172.383H196.05V222.717H255.325V172.383Z" fill="#E6E6E6"/>
<path opacity="0.14" d="M220.816 174.592L215.566 212.35L224.85 214.108L222.816 222.717H255.316V184.608L253.008 177.242L220.816 174.592Z" fill="black"/>
<path d="M243.1 188.8L234.2 219.575L230.684 217.667L233.859 183.775L243.1 188.8Z" fill="#DDDDDD"/>
<path d="M234.167 219.575C234.167 219.575 234.775 223.117 237.333 224.35C239.892 225.583 238.342 229.35 234.525 226.767C233.338 225.984 232.222 225.097 231.192 224.117C230.211 223.254 229.022 222.662 227.742 222.4C227.5 222.331 227.285 222.19 227.125 221.997C226.964 221.804 226.866 221.567 226.842 221.317C226.433 219.358 230.908 217.792 230.908 217.792L234.167 219.575Z" fill="#C0C0C0"/>
<path d="M226.342 151.467C226.342 151.467 241.692 150.45 246.783 153.967C251.875 157.483 246.783 210.633 246.783 210.633L223.167 209.117C223.167 209.117 228.75 170.442 219.583 163.867C210.417 157.292 226.342 151.467 226.342 151.467Z" fill="#2C2C2C"/>
<path d="M217.692 84.0582C217.692 84.0582 212.967 91.4915 217.6 94.1499C222.234 96.8082 223.709 93.7749 223.709 93.7749C223.709 93.7749 227.159 97.8415 230.242 94.6915C233.325 91.5415 232.892 85.2582 229.75 82.3582C226.609 79.4582 217.692 84.0582 217.692 84.0582Z" fill="#DDDDDD"/>
<path d="M218.766 84.3001C218.982 85.6799 219.119 87.0711 219.175 88.4667C219.241 90.3667 219.85 93.1917 222.841 93.7417C227.466 94.575 228.675 87.2917 228.675 87.2917C228.675 87.2917 231.583 80.4417 226.575 79.5001C222.1 78.6167 217.85 78.0084 218.766 84.3001Z" fill="#B7B7B7"/>
<path d="M228.408 87.5501C228.408 87.5501 228.675 85.3335 230.608 85.4251C232.542 85.5168 231.783 89.6668 228.408 87.5501Z" fill="#B7B7B7"/>
<path d="M222.816 73.3334C223.166 72.7065 223.711 72.2114 224.369 71.924C225.027 71.6365 225.761 71.5725 226.458 71.7417C229.125 72.2167 232.933 73.8167 230.558 77.1751C228.183 80.5334 222.816 73.3334 222.816 73.3334Z" fill="#B7B7B7"/>
<path d="M219.883 86.3166C219.883 86.3166 220.558 84.1833 218.758 83.4666C216.958 82.7499 215.933 86.8416 219.883 86.3166Z" fill="#B7B7B7"/>
<path d="M245.442 167.217L269.15 188.775L265.883 191.083L236.858 173.292L245.442 167.217Z" fill="#DDDDDD"/>
<path d="M269.166 188.775C269.166 188.775 272.608 189.792 274.85 188.033C277.091 186.275 279.75 189.317 275.775 191.617C274.548 192.344 273.259 192.963 271.925 193.467C270.712 193.96 269.651 194.765 268.85 195.8C268.684 195.989 268.464 196.123 268.219 196.182C267.975 196.242 267.718 196.225 267.483 196.133C265.55 195.642 266.116 190.933 266.116 190.933L269.166 188.775Z" fill="#C0C0C0"/>
<path d="M253 89.9167C253 89.9167 271.633 98.0834 280.725 127.258C289.817 156.433 274.675 161.683 236.183 154.858L232.892 148.567C232.892 148.567 260.775 149.525 266.225 140.117C271.675 130.708 229.042 124.417 253 89.9167Z" fill="#DDDDDD"/>
<path d="M195.833 89.9167C195.833 89.9167 177.208 98.0834 168.108 127.258C159.008 156.433 174.167 161.667 212.65 154.858L215.983 148.567C215.983 148.567 188.092 149.525 182.65 140.117C177.208 130.708 219.8 124.417 195.833 89.9167Z" fill="#DDDDDD"/>
<path d="M217.992 81.3999C217.992 81.3999 217.992 84.5249 218.917 85.4249C218.917 85.4249 224.817 86.5916 226.992 81.5999C226.992 81.5999 226.484 84.9832 228.842 86.3582L230.609 85.4249C231.301 84.5804 231.742 83.5586 231.882 82.4758C232.022 81.393 231.855 80.2926 231.4 79.2999C229.817 75.8916 230.4 74.2999 227.234 73.1832C224.067 72.0666 216.284 74.3249 217.992 81.3999Z" fill="#2C2C2C"/>
<path d="M209.766 148.783L203.991 123.725H243.841L237.366 150.758L236.8 156.108L210.616 154.658L209.766 148.783Z" fill="#C8C8C8"/>
<path d="M224.275 139.058C226.185 139.058 227.733 137.51 227.733 135.6C227.733 133.69 226.185 132.142 224.275 132.142C222.365 132.142 220.816 133.69 220.816 135.6C220.816 137.51 222.365 139.058 224.275 139.058Z" fill="white"/>
<path d="M201.075 161.308C201.075 161.308 202.167 149.842 214.925 148.617C227.684 147.392 258.992 171.542 258.992 171.542L246.109 196.2L201.075 161.308Z" fill="#2C2C2C"/>
<path d="M201.075 161.308C201.075 161.308 195.642 171.008 204.117 172.383C212.592 173.758 234.95 172.383 234.95 172.383L201.075 161.308Z" fill="#2C2C2C"/>
<path opacity="0.58" d="M168.775 210.558C168.775 210.558 161.1 208.467 159.434 201.317C159.434 201.317 171.325 198.917 171.667 211.192L168.775 210.558Z" fill="#C0C0C0"/>
<path opacity="0.73" d="M169.716 209.8C169.716 209.8 164.358 201.317 169.075 193.392C169.075 193.392 178.116 199.133 174.075 209.817L169.716 209.8Z" fill="#C0C0C0"/>
<path d="M171.1 209.8C171.1 209.8 173.933 200.833 182.5 199.167C182.5 199.167 184.108 205 176.95 209.842L171.1 209.8Z" fill="#C0C0C0"/>
<path d="M165.533 209.6L167.092 220.25L176.892 220.292L178.333 209.658L165.533 209.6Z" fill="#24285B"/>
<path d="M74.6413 164.233H24.583V198.65H74.6413V164.233Z" fill="#C8C8C8"/>
<path d="M42.8917 188.2C42.6306 188.205 42.3764 188.116 42.1751 187.95L34.6751 182.017C34.5383 181.91 34.4275 181.773 34.351 181.617C34.2745 181.461 34.2343 181.29 34.2334 181.117C34.2338 180.943 34.273 180.771 34.3479 180.614C34.4228 180.457 34.5317 180.318 34.6667 180.208L42.1667 174.167C42.4065 173.974 42.7129 173.885 43.0184 173.919C43.3239 173.952 43.6036 174.106 43.7959 174.346C43.9882 174.586 44.0773 174.892 44.0437 175.198C44.0101 175.503 43.8565 175.783 43.6167 175.975L37.2417 181.1L43.6084 186.1C43.7969 186.249 43.9343 186.453 44.0016 186.684C44.0689 186.915 44.0628 187.161 43.984 187.388C43.9053 187.615 43.7578 187.812 43.5621 187.951C43.3664 188.091 43.1321 188.166 42.8917 188.167V188.2Z" fill="white"/>
<path d="M56.4747 188.2C56.2996 188.201 56.1266 188.162 55.9691 188.085C55.8115 188.009 55.6738 187.897 55.5664 187.758C55.3767 187.517 55.2903 187.211 55.3262 186.906C55.3621 186.602 55.5175 186.324 55.7581 186.133L62.1247 181.133L55.7497 176.008C55.6288 175.913 55.5278 175.795 55.4525 175.661C55.3772 175.527 55.3291 175.379 55.3109 175.226C55.2928 175.073 55.3049 174.918 55.3465 174.77C55.3882 174.622 55.4587 174.483 55.5539 174.363C55.6491 174.242 55.7672 174.141 55.9014 174.065C56.0357 173.99 56.1834 173.942 56.3362 173.924C56.4891 173.906 56.644 173.918 56.7921 173.959C56.9403 174.001 57.0788 174.071 57.1997 174.167L64.6997 180.208C64.8347 180.318 64.9436 180.457 65.0186 180.614C65.0935 180.771 65.1326 180.943 65.1331 181.117C65.1322 181.29 65.0919 181.461 65.0155 181.617C64.939 181.773 64.8282 181.91 64.6914 182.017L57.1914 187.95C56.9894 188.115 56.7356 188.204 56.4747 188.2Z" fill="white"/>
<path d="M46.5335 188.2C46.3674 188.199 46.2031 188.165 46.0502 188.1C45.7715 187.97 45.5557 187.734 45.4496 187.446C45.3434 187.157 45.3556 186.838 45.4835 186.558L50.9502 174.592C51.0821 174.32 51.315 174.11 51.5992 174.008C51.8834 173.905 52.1964 173.918 52.4715 174.043C52.7465 174.168 52.9618 174.396 53.0715 174.677C53.1811 174.959 53.1765 175.272 53.0585 175.55L47.5918 187.5C47.5018 187.706 47.3539 187.882 47.1661 188.006C46.9784 188.131 46.7586 188.198 46.5335 188.2Z" fill="white"/>
</svg>
