<svg width="26" height="24" viewBox="0 0 26 24" fill="none" xmlns="http://www.w3.org/2000/svg">
<path d="M23.1393 11C23.1121 10.8444 23.0469 10.6971 22.949 10.5702C22.8511 10.4433 22.7232 10.3404 22.5758 10.27L15.8985 7.07001L10.8905 2.27001C10.695 2.08376 10.4305 1.97922 10.1549 1.97922C9.87927 1.97922 9.61483 2.08376 9.41935 2.27001L2.57505 8.84001C2.47835 8.93345 2.40185 9.04427 2.34992 9.1661C2.298 9.28794 2.27168 9.4184 2.27248 9.55001C2.27363 9.81235 2.3823 10.0638 2.57505 10.25L7.58307 15.05L10.9218 21.45C10.9919 21.5907 11.0955 21.7137 11.2241 21.8092C11.3527 21.9047 11.5029 21.97 11.6625 22H11.8295C11.9668 22.0008 12.1029 21.9755 12.23 21.9258C12.3571 21.876 12.4727 21.8027 12.5702 21.71L16.9523 17.5L20.7709 21.16C20.9664 21.3463 21.2308 21.4508 21.5064 21.4508C21.7821 21.4508 22.0465 21.3463 22.242 21.16C22.4363 20.9726 22.5454 20.7192 22.5454 20.455C22.5454 20.1908 22.4363 19.9374 22.242 19.75L18.4442 16.09L22.8367 11.89C22.959 11.7766 23.0506 11.6362 23.1033 11.481C23.1561 11.3259 23.1684 11.1608 23.1393 11ZM12.1425 19.31L9.36718 14C9.32301 13.9024 9.25919 13.814 9.17938 13.74L4.78692 9.55001L10.1497 4.41001L14.5317 8.62001C14.6058 8.69545 14.6944 8.75656 14.7925 8.80001L20.3222 11.46L12.1425 19.31Z" fill="#5588C3"/>
</svg>
