<svg width="32" height="32" viewBox="0 0 32 32" fill="none" xmlns="http://www.w3.org/2000/svg">
<g opacity="0.5" clip-path="url(#clip0)">
<path d="M16 0.666199C7.18 0.666199 0 6.5302 0 13.7369C0 20.1915 5.69333 25.5995 13.38 26.6275C13.9013 26.7382 14.6107 26.9742 14.7907 27.4195C14.9507 27.8235 14.896 28.4475 14.8413 28.8689L14.6227 30.2369C14.5627 30.6409 14.3027 31.8275 16.0213 31.1022C17.7427 30.3795 25.2427 25.6302 28.6027 21.7435C30.9013 19.2102 32 16.6142 32 13.7369C32 6.5302 24.82 0.666199 16 0.666199ZM9.73733 18.0222H6.556C6.096 18.0222 5.716 17.6395 5.716 17.1782V10.7769C5.716 10.3142 6.096 9.93153 6.556 9.93153C7.02 9.93153 7.396 10.3142 7.396 10.7769V16.3329H9.73733C10.2013 16.3329 10.576 16.7129 10.576 17.1782C10.576 17.6395 10.2 18.0222 9.73733 18.0222ZM13.0253 17.1782C13.0253 17.6395 12.6493 18.0222 12.184 18.0222C11.724 18.0222 11.348 17.6395 11.348 17.1782V10.7769C11.348 10.3142 11.724 9.93153 12.188 9.93153C12.6493 9.93153 13.0253 10.3142 13.0253 10.7769V17.1782ZM20.68 17.1782C20.68 17.5409 20.448 17.8622 20.104 17.9782C20.0187 18.0062 19.9267 18.0195 19.8387 18.0195C19.5573 18.0195 19.3173 17.8982 19.1587 17.6835L15.9013 13.2329V17.1769C15.9013 17.6382 15.5293 18.0209 15.06 18.0209C14.5987 18.0209 14.2253 17.6382 14.2253 17.1769V10.7769C14.2253 10.4142 14.456 10.0929 14.7987 9.9782C14.8787 9.94753 14.98 9.9342 15.0573 9.9342C15.3173 9.9342 15.5573 10.0742 15.7173 10.2755L19 14.7435V10.7769C19 10.3142 19.376 9.93153 19.84 9.93153C20.3 9.93153 20.68 10.3142 20.68 10.7769V17.1782ZM25.82 13.1315C26.2853 13.1315 26.66 13.5142 26.66 13.9782C26.66 14.4409 26.2853 14.8235 25.82 14.8235H23.48V16.3329H25.82C26.2853 16.3329 26.66 16.7129 26.66 17.1782C26.66 17.6395 26.2853 18.0222 25.82 18.0222H22.6387C22.1787 18.0222 21.8027 17.6395 21.8027 17.1782V10.7769C21.8027 10.3142 22.1787 9.93153 22.6427 9.93153H25.824C26.2853 9.93153 26.66 10.3142 26.66 10.7769C26.66 11.2449 26.2853 11.6222 25.82 11.6222H23.48V13.1315H25.82Z" fill="#828282"/>
</g>
<defs>
<clipPath id="clip0">
<rect width="32" height="32" fill="white"/>
</clipPath>
</defs>
</svg>
