<svg width="30" height="30" viewBox="0 0 30 30" fill="none" xmlns="http://www.w3.org/2000/svg">
<g clip-path="url(#clip0)">
<path d="M27.4869 2.40228H2.39594C1.04256 2.40228 -0.0585938 3.50321 -0.0585938 4.85682V20.8275C-0.0585938 22.1809 1.04256 23.2821 2.39594 23.2821H11.1015L14.1832 27.3287C14.3635 27.5654 14.6439 27.7043 14.9417 27.7043C15.2392 27.7043 15.5198 27.5654 15.7002 27.3287L18.7819 23.2821H27.4869C28.8403 23.2821 29.9415 22.1809 29.9415 20.8275V4.85682C29.9415 3.50321 28.8403 2.40228 27.4869 2.40228ZM13.7311 16.5124C13.4871 16.5124 13.2431 16.4195 13.057 16.2332L9.92914 13.1055C9.55698 12.7331 9.55698 12.1296 9.92914 11.7572C10.3015 11.3848 10.9051 11.3848 11.2775 11.7572L13.7311 14.2108L18.6056 9.3365C18.9778 8.96411 19.5816 8.96411 19.9537 9.3365C20.3261 9.70889 20.3261 10.3125 19.9537 10.6848L14.4054 16.2332C14.2191 16.4195 13.9751 16.5124 13.7311 16.5124Z" fill="black"/>
</g>
<defs>
<clipPath id="clip0">
<rect width="30" height="30" fill="white"/>
</clipPath>
</defs>
</svg>
