<svg width="24" height="24" viewBox="0 0 24 24" fill="none" xmlns="http://www.w3.org/2000/svg">
<path fill-rule="evenodd" clip-rule="evenodd" d="M12.4334 22C6.67119 22 2 17.5228 2 12C2 6.47715 6.67119 2 12.4334 2C18.1956 2 22.8668 6.47715 22.8668 12C22.8668 17.5228 18.1956 22 12.4334 22ZM19.4517 16.6588C20.4089 15.3367 20.9698 13.7311 20.9698 12C20.9698 7.48131 17.148 3.81818 12.4334 3.81818C7.7189 3.81818 3.89702 7.48131 3.89702 12C3.89702 13.7311 4.45793 15.3366 5.41506 16.6587C6.48255 15.3073 8.99096 14.7273 12.4334 14.7273C15.8759 14.7273 18.3843 15.3073 19.4517 16.6588ZM18.0908 18.1271C17.8133 17.1703 15.8189 16.5455 12.4334 16.5455C9.0479 16.5455 7.05359 17.1703 6.77595 18.127C8.28214 19.4056 10.2632 20.1818 12.4334 20.1818C14.6036 20.1818 16.5846 19.4056 18.0908 18.1271ZM12.4332 6.54545C10.137 6.54545 8.6392 8.1416 8.6392 10.1818C8.6392 13.2976 10.3094 14.7273 12.4332 14.7273C14.537 14.7273 16.2271 13.3451 16.2271 10.3636C16.2271 8.29234 14.723 6.54545 12.4332 6.54545ZM10.5362 10.1818C10.5362 12.2448 11.3123 12.9091 12.4332 12.9091C13.5502 12.9091 14.3302 12.2713 14.3302 10.3636C14.3302 9.22765 13.5862 8.36364 12.4332 8.36364C11.2322 8.36364 10.5362 9.1053 10.5362 10.1818Z" fill="black"/>
</svg>
