<svg width="16" height="16" viewBox="0 0 16 16" fill="none" xmlns="http://www.w3.org/2000/svg">
<path fill-rule="evenodd" clip-rule="evenodd" d="M5.77778 0C8.96876 0 11.5556 2.45798 11.5556 5.49004C11.5556 6.84989 11.0311 8.09993 10.1689 9.0628L10.4089 9.29084H11.1111L15.5556 13.514L14.2222 14.7809L9.77778 10.5578V9.89053L9.53778 9.66248C8.52444 10.4818 7.20889 10.9801 5.77778 10.9801C2.5868 10.9801 0 8.52211 0 5.49004C0 2.45798 2.5868 0 5.77778 0ZM5.77778 1.68924C3.55556 1.68924 1.77778 3.37849 1.77778 5.49004C1.77778 7.6016 3.55556 9.29084 5.77778 9.29084C8 9.29084 9.77778 7.6016 9.77778 5.49004C9.77778 3.37849 8 1.68924 5.77778 1.68924Z" fill="#2E3034" fill-opacity="0.4"/>
<mask id="mask0" mask-type="alpha" maskUnits="userSpaceOnUse" x="0" y="0" width="16" height="15">
<path fill-rule="evenodd" clip-rule="evenodd" d="M5.77778 0C8.96876 0 11.5556 2.45798 11.5556 5.49004C11.5556 6.84989 11.0311 8.09993 10.1689 9.0628L10.4089 9.29084H11.1111L15.5556 13.514L14.2222 14.7809L9.77778 10.5578V9.89053L9.53778 9.66248C8.52444 10.4818 7.20889 10.9801 5.77778 10.9801C2.5868 10.9801 0 8.52211 0 5.49004C0 2.45798 2.5868 0 5.77778 0ZM5.77778 1.68924C3.55556 1.68924 1.77778 3.37849 1.77778 5.49004C1.77778 7.6016 3.55556 9.29084 5.77778 9.29084C8 9.29084 9.77778 7.6016 9.77778 5.49004C9.77778 3.37849 8 1.68924 5.77778 1.68924Z" fill="white"/>
</mask>
<g mask="url(#mask0)">
</g>
</svg>
