<svg width="32" height="32" viewBox="0 0 32 32" fill="none" xmlns="http://www.w3.org/2000/svg">
<g opacity="0.5">
<path d="M16 32C24.8366 32 32 24.8366 32 16C32 7.16344 24.8366 0 16 0C7.16344 0 0 7.16344 0 16C0 24.8366 7.16344 32 16 32Z" fill="#828282"/>
<path d="M7.32168 15.654L22.7484 9.70598C23.4644 9.44731 24.0897 9.88064 23.8577 10.9633L23.859 10.962L21.2324 23.3366C21.0377 24.214 20.5164 24.4273 19.787 24.014L15.787 21.066L13.8577 22.9246C13.6444 23.138 13.4644 23.318 13.051 23.318L13.335 19.2473L20.7484 12.55C21.071 12.266 20.6764 12.106 20.251 12.3886L11.0897 18.1566L7.14035 16.9246C6.28302 16.6526 6.26435 16.0673 7.32168 15.654Z" fill="white"/>
</g>
</svg>
