<svg xmlns="http://www.w3.org/2000/svg" xmlns:xlink="http://www.w3.org/1999/xlink" width="32" height="30" viewBox="0 0 32 30">
    <defs>
        <path id="a" d="M.032.016h9.554v8.25H.032z"/>
    </defs>
    <g fill="none" fill-rule="evenodd">
        <g fill="#7BB6D7">
            <path d="M6.187 8.313c1.139 0 2.11-.402 2.916-1.208.805-.805 1.208-1.778 1.208-2.916s-.403-2.11-1.208-2.916C8.297.467 7.325.065 6.187.065c-1.14 0-2.11.402-2.916 1.208-.806.805-1.209 1.777-1.209 2.916s.403 2.11 1.209 2.916c.805.805 1.777 1.208 2.916 1.208M11.092 14.75c1.209 1.208 2.667 1.812 4.375 1.812 1.708 0 3.166-.604 4.374-1.812 1.208-1.208 1.812-2.667 1.812-4.374 0-1.708-.604-3.166-1.812-4.374-1.208-1.209-2.666-1.813-4.374-1.813-1.708 0-3.166.604-4.375 1.813C9.884 7.21 9.28 8.668 9.28 10.376c0 1.708.604 3.166 1.812 4.374"/>
        </g>
        <path fill="#7BB6D7" d="M24.747 8.313c1.138 0 2.11-.402 2.916-1.208.805-.805 1.208-1.778 1.208-2.916s-.403-2.11-1.208-2.916C26.857.467 25.885.065 24.747.065c-1.139 0-2.11.402-2.916 1.208-.806.805-1.208 1.777-1.208 2.916s.402 2.11 1.208 2.916c.805.805 1.777 1.208 2.916 1.208"/>
        <g transform="translate(21.347 8.297)">
            <mask id="b" fill="#fff">
                <use xlink:href="#a"/>
            </mask>
            <path fill="#7BB6D7" d="M7.588.016c-.064 0-.298.113-.7.339-.403.226-.927.454-1.571.685a5.658 5.658 0 0 1-1.917.346c-.72 0-1.434-.124-2.143-.37.053.397.08.751.08 1.063 0 1.493-.435 2.867-1.305 4.124 1.74.054 3.163.741 4.27 2.063H6.46c.88 0 1.622-.218 2.223-.653.601-.435.902-1.072.902-1.91 0-3.791-.665-5.687-1.998-5.687" mask="url(#b)"/>
        </g>
        <g fill="#7BB6D7">
            <path d="M26.528 21.34a13.62 13.62 0 0 0-.427-1.749 8.315 8.315 0 0 0-.693-1.57 5.689 5.689 0 0 0-1-1.306 4.207 4.207 0 0 0-1.377-.862 4.834 4.834 0 0 0-1.796-.322c-.108 0-.338.116-.693.347-.355.23-.746.489-1.176.773-.43.284-1.004.542-1.724.773a7.082 7.082 0 0 1-2.175.347c-.73 0-1.455-.116-2.175-.347-.72-.23-1.294-.489-1.724-.773-.43-.284-.822-.542-1.176-.773-.355-.231-.586-.347-.693-.347-.655 0-1.254.107-1.796.322a4.203 4.203 0 0 0-1.378.862 5.68 5.68 0 0 0-.999 1.306 8.27 8.27 0 0 0-.693 1.57c-.171.537-.314 1.12-.427 1.748a16.492 16.492 0 0 0-.225 1.757 24.267 24.267 0 0 0-.057 1.667c0 1.289.392 2.307 1.176 3.053.785.746 1.827 1.12 3.126 1.12h14.081c1.3 0 2.342-.374 3.126-1.12.784-.746 1.176-1.764 1.176-3.053 0-.569-.019-1.125-.056-1.667a16.638 16.638 0 0 0-.225-1.757M9.554 14.5c-.87-1.257-1.305-2.631-1.305-4.124 0-.312.027-.666.08-1.064a6.474 6.474 0 0 1-2.142.371 5.662 5.662 0 0 1-1.918-.346c-.644-.231-1.168-.46-1.57-.685-.403-.226-.637-.338-.701-.338C.666 8.314 0 10.209 0 14c0 .838.3 1.474.902 1.909.602.435 1.343.652 2.223.652h2.16c1.106-1.32 2.529-2.008 4.269-2.062"/>
        </g>
    </g>
</svg>
