<svg width="40" height="40" viewBox="0 0 40 40" fill="none" xmlns="http://www.w3.org/2000/svg">
<rect x="3" y="9" width="34" height="27" fill="white"/>
<path d="M32.0816 33.498H14.5816C12.9741 33.498 11.6641 32.1905 11.6641 30.5805V26.4155C11.6641 24.808 12.9716 23.498 14.5816 23.498H27.0816C28.6891 23.498 29.9991 24.8055 29.9991 26.4155V29.123L32.8316 31.248C33.2616 31.5705 33.4366 32.133 33.2666 32.643C33.0991 33.153 32.6216 33.498 32.0816 33.498Z" fill="#BDDBFF"/>
<path d="M35 1.83398H5C2.2425 1.83398 0 4.07648 0 6.83398V33.5015C0 36.259 2.2425 38.5015 5 38.5015H35C37.7575 38.5015 40 36.259 40 33.5015V6.83398C40 4.07648 37.7575 1.83398 35 1.83398ZM35 35.1665H5C4.08 35.1665 3.3325 34.419 3.3325 33.499V10.1665H36.665V33.499C36.6675 34.419 35.92 35.1665 35 35.1665Z" fill="#7FA6D4"/>
<path d="M25.4169 21.834H6.24943C5.71193 21.834 5.23443 21.489 5.06193 20.979C4.89193 20.469 5.06943 19.9065 5.49693 19.584L8.32942 17.459V14.7515C8.32942 13.144 9.63692 11.834 11.2469 11.834H25.4144C27.0219 11.834 28.3319 13.1415 28.3319 14.7515V18.9165C28.3319 20.524 27.0244 21.834 25.4169 21.834ZM9.99942 19.334H25.4169C25.6469 19.334 25.8344 19.1465 25.8344 18.9165V14.749C25.8344 14.519 25.6469 14.3315 25.4169 14.3315H11.2494C11.0194 14.3315 10.8319 14.519 10.8319 14.749V18.0815C10.8319 18.4765 10.6469 18.844 10.3319 19.0815L9.99942 19.334Z" fill="#7FA6D5"/>
</svg>
