<svg width="25" height="24" viewBox="0 0 25 24" fill="none" xmlns="http://www.w3.org/2000/svg">
<path d="M12.0762 22C17.599 22 22.0762 17.5229 22.0762 12C22.0762 6.47715 17.599 2 12.0762 2C6.55333 2 2.07617 6.47715 2.07617 12C2.07617 17.5229 6.55333 22 12.0762 22Z" fill="white"/>
<path d="M12.0771 22C17.6 22 22.0771 17.5228 22.0771 12C22.0771 6.47715 17.6 2 12.0771 2C6.5543 2 2.07715 6.47715 2.07715 12C2.07715 17.5228 6.5543 22 12.0771 22Z" stroke="#FC573B" stroke-width="2" stroke-linecap="round" stroke-linejoin="round"/>
<path d="M15.0771 9L9.07715 15" stroke="#FC573B" stroke-width="2" stroke-linecap="round" stroke-linejoin="round"/>
<path d="M9.07715 9L15.0771 15" stroke="#FC573B" stroke-width="2" stroke-linecap="round" stroke-linejoin="round"/>
</svg>
