<svg width="36" height="36" viewBox="0 0 36 36" fill="none" xmlns="http://www.w3.org/2000/svg">
<path d="M18 36C27.9411 36 36 27.9411 36 18C36 8.05887 27.9411 0 18 0C8.05887 0 0 8.05887 0 18C0 27.9411 8.05887 36 18 36Z" fill="#039BE5"/>
<path d="M8.23641 17.6107L25.5914 10.9192C26.3969 10.6282 27.1004 11.1157 26.8394 12.3337L26.8409 12.3322L23.8859 26.2537C23.6669 27.2407 23.0804 27.4807 22.2599 27.0157L17.7599 23.6992L15.5894 25.7902C15.3494 26.0302 15.1469 26.2327 14.6819 26.2327L15.0014 21.6532L23.3414 14.1187C23.7044 13.7992 23.2604 13.6192 22.7819 13.9372L12.4754 20.4262L8.03241 19.0402C7.06791 18.7342 7.04691 18.0757 8.23641 17.6107Z" fill="white"/>
</svg>
