<svg width="40" height="40" viewBox="0 0 40 40" fill="none" xmlns="http://www.w3.org/2000/svg">
<ellipse cx="20" cy="22.5" rx="18" ry="15.5" fill="white"/>
<path d="M24.841 28.196H15.1594C14.2288 28.196 13.4614 28.9634 13.4614 29.894C13.4614 30.8246 14.2288 31.592 15.1594 31.592H24.841C25.7716 31.592 26.539 30.8246 26.539 29.894C26.539 28.9634 25.7716 28.196 24.841 28.196Z" fill="#FFA113"/>
<circle cx="13" cy="20" r="5" fill="#FEC672"/>
<circle cx="27" cy="20" r="5" fill="#FEC672"/>
<path d="M37.1512 13.4367V3.25714C37.7471 2.99592 38.1716 2.39184 38.1716 1.70612C38.1716 0.77551 37.4043 0.00816326 36.4737 0.00816326H34.0982C33.1675 0.00816326 32.4002 0.77551 32.4002 1.70612C32.4002 2.52245 32.988 3.20816 33.7553 3.37143V9.69796C30.1798 6.68571 25.339 4.84082 20.0002 4.84082C14.6206 4.84082 9.73897 6.71837 6.1553 9.76326V3.25714C6.78387 2.99592 7.25734 2.39184 7.25734 1.69796C7.25734 0.767347 6.49 0 5.55938 0H3.18387C2.25326 0 1.48591 0.767347 1.48591 1.69796C1.48591 2.48163 2.03285 3.15102 2.75938 3.33878V13.5673C1.02877 16.1714 0.0410156 19.2 0.0410156 22.4245C0.0410156 32.098 8.96346 40 20.0002 40C31.0369 40 39.9594 32.098 39.9594 22.4163C39.9594 19.1429 38.939 16.0735 37.1512 13.4367ZM20.0002 36.6857C10.8247 36.6857 3.3553 30.3184 3.3553 22.4163C3.3553 14.5143 10.8247 8.14694 20.0002 8.14694C29.1757 8.14694 36.6451 14.5143 36.6451 22.4163C36.6451 30.3184 29.1757 36.6857 20.0002 36.6857Z" fill="#FFA113"/>
</svg>
