<svg width="36" height="36" viewBox="0 0 36 36" fill="none" xmlns="http://www.w3.org/2000/svg">
<g clip-path="url(#clip0)">
<path d="M20.475 36H4.725C2.11523 36 0 32.9782 0 29.25V6.75C0 3.02175 2.11523 0 4.725 0H20.475C23.0848 0 25.2 3.02175 25.2 6.75V29.25C25.2 32.9782 23.0848 36 20.475 36Z" fill="white"/>
<rect x="10" y="3" width="9" height="4" fill="white"/>
<path d="M23.0446 21.7507C22.6359 21.7507 22.2414 21.69 21.8634 21.555V29.9993H2.96398V4.5C2.96398 3.67425 3.6727 2.99925 4.53971 2.99925H15.5793C16.4936 1.64925 18.0835 0.74925 19.8955 0.74925H22.9029C22.1469 0.28575 21.2492 0 20.2876 0H4.53735C1.93868 0 -0.1875 2.025 -0.1875 4.5V31.5C-0.1875 33.975 1.93868 36 4.53735 36H20.2876C22.8863 36 25.0125 33.975 25.0125 31.5V21.1793C24.4455 21.5392 23.7533 21.7507 23.0446 21.7507Z" fill="#FC573B"/>
<path d="M12.3337 23.9985C14.0621 23.9985 15.4632 22.6557 15.4632 20.9993C15.4632 19.3428 14.0621 18 12.3337 18C10.6053 18 9.2041 19.3428 9.2041 20.9993C9.2041 22.6557 10.6053 23.9985 12.3337 23.9985Z" fill="#FC573B"/>
<path d="M18.5938 29.6257V30.0015H6.07324V29.6257C6.07324 27.3465 7.9984 25.5015 10.3767 25.5015H14.2904C16.6687 25.4992 18.5938 27.3442 18.5938 29.6257Z" fill="#FC573B"/>
<path d="M33.0719 2.99883H19.7672C18.2576 2.99883 17.0273 4.17558 17.0273 5.62458V12.3746C17.0273 13.8213 18.2552 15.0003 19.7672 15.0003H21.7229V18.3753C21.7229 18.8388 22.021 19.2551 22.4718 19.4238C22.6103 19.4756 22.7535 19.5003 22.8967 19.5003C23.2184 19.5003 23.5353 19.3721 23.7607 19.1358L27.7167 15.0003H33.0719C34.5815 15.0003 35.8117 13.8236 35.8117 12.3746V5.62458C35.8117 4.17783 34.5815 2.99883 33.0719 2.99883ZM22.507 10.1246C21.859 10.1246 21.3331 9.62058 21.3331 8.99958C21.3331 8.37858 21.859 7.87458 22.507 7.87458C23.155 7.87458 23.6809 8.37858 23.6809 8.99958C23.6809 9.62058 23.155 10.1246 22.507 10.1246ZM26.4207 10.1246C25.7727 10.1246 25.2468 9.62058 25.2468 8.99958C25.2468 8.37858 25.7727 7.87458 26.4207 7.87458C27.0687 7.87458 27.5946 8.37858 27.5946 8.99958C27.5946 9.62058 27.0687 10.1246 26.4207 10.1246ZM30.3321 10.1246C29.6841 10.1246 29.1582 9.62058 29.1582 8.99958C29.1582 8.37858 29.6841 7.87458 30.3321 7.87458C30.98 7.87458 31.5059 8.37858 31.5059 8.99958C31.5059 9.62058 30.98 10.1246 30.3321 10.1246Z" fill="#FD907E"/>
</g>
<defs>
<clipPath id="clip0">
<rect width="36" height="36" fill="white"/>
</clipPath>
</defs>
</svg>
