<svg xmlns="http://www.w3.org/2000/svg" xmlns:xlink="http://www.w3.org/1999/xlink" width="65" height="46" viewBox="0 0 65 46">
    <defs>
        <path id="a" d="M0 .165h43.156v39.149H0z"/>
    </defs>
    <g fill="none" fill-rule="evenodd">
        <path fill="#EFC75E" d="M29.607 30.879c0-6.724-6.624-12.144-14.803-12.144C6.624 18.735 0 24.155 0 30.88s6.624 11.943 14.804 11.943c.702 0 1.405-.05 2.108-.15 3.06 2.408 6.172 3.211 6.222 3.16-1.104-1.103-1.756-2.558-2.158-3.913 5.119-1.957 8.631-6.122 8.631-11.04"/>
        <path fill="#FAEECF" d="M11.04 28.77a2.013 2.013 0 0 0-2.007 2.009c0 1.103.903 2.007 2.007 2.007a2.013 2.013 0 0 0 2.007-2.007 2.013 2.013 0 0 0-2.007-2.008m6.524 0a2.013 2.013 0 0 0-2.008 2.008c0 1.103.903 2.007 2.008 2.007a2.013 2.013 0 0 0 2.007-2.007 2.013 2.013 0 0 0-2.007-2.008"/>
        <g transform="translate(21.076 .002)">
            <mask id="b" fill="#fff">
                <use xlink:href="#a"/>
            </mask>
            <path fill="#26A6D1" d="M21.578 35.343c-1.104 0-2.208-.05-3.262-.2-4.315 3.21-8.53 4.265-8.58 4.165 1.454-1.506 2.408-3.413 3.01-5.32C5.219 31.228 0 25.055 0 17.88 0 8.094 9.685.165 21.578.165c11.894 0 21.578 7.93 21.578 17.715s-9.684 17.463-21.578 17.463" mask="url(#b)"/>
        </g>
        <path fill="#FFF" d="M33.622 14.72a3.02 3.02 0 0 0-3.011 3.012 3.02 3.02 0 0 0 3.01 3.01 3.02 3.02 0 0 0 3.012-3.01 3.02 3.02 0 0 0-3.011-3.012m18.065 0a3.02 3.02 0 0 0-3.01 3.012 3.02 3.02 0 0 0 3.01 3.01 3.02 3.02 0 0 0 3.011-3.01 3.02 3.02 0 0 0-3.01-3.012m-9.033 0a3.02 3.02 0 0 0-3.011 3.012 3.02 3.02 0 0 0 3.01 3.01 3.02 3.02 0 0 0 3.011-3.01 3.02 3.02 0 0 0-3.01-3.012"/>
        <path fill="#2295BC" d="M35.78 32.987c-7.478-2.76-12.696-8.933-12.696-16.109 0-6.072 3.713-11.391 9.384-14.603-6.775 2.96-11.392 8.832-11.392 15.607 0 7.176 5.22 13.348 12.696 16.108-.602 1.857-1.505 3.764-3.01 5.32.05.05 3.261-2.309 5.017-6.323"/>
        <path fill="#DCB757" d="M2.007 30.879c0-6.423 6.072-11.692 13.8-12.094l-1.003-.05C6.624 18.735 0 24.155 0 30.88s6.624 11.943 14.804 11.943c.3 0 .602 0 .953-.05-7.678-.451-13.75-5.47-13.75-11.893"/>
    </g>
</svg>
