<svg width="24" height="24" viewBox="0 0 24 24" fill="none" xmlns="http://www.w3.org/2000/svg">
<path d="M13 2C12.7348 2 12.4804 2.10536 12.2929 2.29289C12.1054 2.48043 12 2.73478 12 3V11C12 11.2652 12.1054 11.5196 12.2929 11.7071C12.4804 11.8946 12.7348 12 13 12H21C21.2652 12 21.5196 11.8946 21.7071 11.7071C21.8946 11.5196 22 11.2652 22 11C22 8.61305 21.0518 6.32387 19.364 4.63604C17.6761 2.94821 15.3869 2 13 2ZM14 10V4.07C15.4962 4.28561 16.8824 4.97978 17.9513 6.04868C19.0202 7.11759 19.7144 8.50379 19.93 10H14Z" fill="#5588C3"/>
<path d="M20.8198 14.0599C20.6958 14.0155 20.5642 13.9961 20.4326 14.0028C20.301 14.0095 20.172 14.0421 20.053 14.0988C19.9341 14.1555 19.8275 14.2351 19.7395 14.3331C19.6514 14.4311 19.5835 14.5456 19.5398 14.6699C19.0892 15.9438 18.3232 17.0828 17.3133 17.9806C16.3034 18.8785 15.0826 19.5059 13.7647 19.8043C12.4468 20.1028 11.0747 20.0625 9.7766 19.6873C8.47845 19.3121 7.29649 18.6142 6.34099 17.6587C5.38549 16.7032 4.68759 15.5213 4.3124 14.2231C3.93721 12.925 3.89695 11.5529 4.19539 10.235C4.49383 8.91712 5.12124 7.69627 6.01908 6.6864C6.91691 5.67653 8.05593 4.91053 9.32985 4.45988C9.58047 4.37236 9.78607 4.18886 9.90141 3.94975C10.0167 3.71064 10.0324 3.43551 9.94485 3.18488C9.85732 2.93425 9.67383 2.72865 9.43472 2.61332C9.19561 2.49798 8.92048 2.48236 8.66985 2.56988C7.07689 3.13266 5.65248 4.08984 4.52956 5.3521C3.40664 6.61436 2.62183 8.14053 2.24837 9.78819C1.8749 11.4358 1.92497 13.1513 2.39389 14.7743C2.8628 16.3974 3.73529 17.8752 4.92991 19.0698C6.12453 20.2644 7.60234 21.1369 9.22541 21.6058C10.8485 22.0748 12.5639 22.1248 14.2115 21.7514C15.8592 21.3779 17.3854 20.5931 18.6476 19.4702C19.9099 18.3472 20.8671 16.9228 21.4298 15.3299C21.5163 15.0805 21.5007 14.8071 21.3865 14.5692C21.2722 14.3313 21.0685 14.1482 20.8198 14.0599Z" fill="#5588C3"/>
</svg>
