<svg xmlns="http://www.w3.org/2000/svg" xmlns:xlink="http://www.w3.org/1999/xlink" width="46" height="46" viewBox="0 0 46 46">
    <defs>
        <path id="a" d="M0 46h44.53V0H0z"/>
    </defs>
    <g fill="none" fill-rule="evenodd" transform="translate(1)">
        <path fill="#CCD1D9" d="M36.353 19.29a4.456 4.456 0 0 0-4.451 4.452v2.226a.741.741 0 1 0 1.484 0v-2.226a2.97 2.97 0 0 1 2.967-2.968 2.971 2.971 0 0 1 2.968 2.968v2.272a.741.741 0 1 0 1.484 0v-2.272a4.456 4.456 0 0 0-4.452-4.452"/>
        <mask id="b" fill="#fff">
            <use xlink:href="#a"/>
        </mask>
        <path fill="#DA4453" d="M40.08 46h4.45V25.968h-4.45z" mask="url(#b)"/>
        <path fill="#ED5565" d="M35.613 25.968h4.451V46H23.742V25.968z" mask="url(#b)"/>
        <path fill="#F6BB42" d="M14.831 17.77a9.553 9.553 0 0 1-5.186 1.52 9.552 9.552 0 0 1-5.186-1.52A9.617 9.617 0 0 1 0 9.644v4.452a9.628 9.628 0 0 0 4.451 8.124 9.559 9.559 0 0 0 5.194 1.521 9.56 9.56 0 0 0 5.194-1.521 9.632 9.632 0 0 0 4.451-8.124V9.645c0 3.42-1.78 6.418-4.459 8.124" mask="url(#b)"/>
        <path fill="#FFCE54" d="M19.29 9.645c0 3.42-1.78 6.418-4.459 8.124a9.553 9.553 0 0 1-5.186 1.521 9.552 9.552 0 0 1-5.186-1.52A9.617 9.617 0 0 1 0 9.644 9.644 9.644 0 0 1 9.645 0a9.645 9.645 0 0 1 9.645 9.645" mask="url(#b)"/>
        <path fill="#E6E9ED" d="M31.902 19.29a4.456 4.456 0 0 0-4.452 4.452v5.193a.74.74 0 1 0 1.484 0v-5.193a2.97 2.97 0 0 1 2.968-2.968 2.97 2.97 0 0 1 2.967 2.968v5.193a.741.741 0 1 0 1.484 0v-5.193a4.456 4.456 0 0 0-4.451-4.452" mask="url(#b)"/>
        <path fill="#EDAB37" d="M8.902 19.26v4.453c.245.018.493.03.743.03s.496-.012.74-.03v-4.452c-.244.018-.49.03-.74.03s-.498-.012-.743-.03M14.837 22.222s0-.001 0 0a9.706 9.706 0 0 0 1.484-1.192v-4.454c-.458.44-.946.847-1.484 1.19v4.456zM2.966 21.028c.457.44.946.848 1.484 1.192v-4.458a9.54 9.54 0 0 1-1.484-1.19v4.456z" mask="url(#b)"/>
        <path fill="#AAB2BD" d="M20.03 34.129h-9.645v-4.886l.96.959a.742.742 0 0 0 1.049-1.05l-2.225-2.224a.734.734 0 0 0-1.05 0l-2.226 2.225a.741.741 0 1 0 1.05 1.049l.959-.96v5.629c0 .41.33.742.742.742H20.03a.741.741 0 1 0 0-1.484M36.878 13.572a.741.741 0 0 0-1.05 0l-.959.96V9.644a.741.741 0 0 0-.741-.742h-11.13a.74.74 0 1 0 0 1.484h10.388v4.144l-.96-.959a.741.741 0 1 0-1.049 1.05l2.225 2.225c.069.068.15.123.242.16a.73.73 0 0 0 .567 0 .735.735 0 0 0 .242-.16l2.225-2.226a.741.741 0 0 0 0-1.049" mask="url(#b)"/>
        <path fill="#EDAB37" d="M9.644 13.355a.741.741 0 0 1-.742-.742V5.935a.74.74 0 1 1 1.483 0v6.678c0 .41-.331.742-.741.742" mask="url(#b)"/>
    </g>
</svg>
