<svg width="32" height="32" viewBox="0 0 32 32" fill="none" xmlns="http://www.w3.org/2000/svg">
<g opacity="0.5">
<rect y="1" width="20" height="18" rx="3" fill="white"/>
<path d="M21.666 11.3328H10.332C9.046 11.3328 8 12.3788 8 13.6668V19.6668C8 20.9528 9.046 22.0008 10.334 22.0008H12V25.0008C12 25.3988 12.236 25.7568 12.598 25.9168C12.726 25.9728 12.864 26.0008 13 26.0008C13.246 26.0008 13.49 25.9088 13.678 25.7368L17.724 22.0008H21.666C22.952 22.0008 24 20.9548 24 19.6668V13.6668C24 12.3788 22.954 11.3328 21.666 11.3328ZM12 17.9988C11.264 17.9988 10.666 17.4028 10.666 16.6648C10.666 15.9268 11.264 15.3328 12 15.3328C12.736 15.3328 13.334 15.9288 13.334 16.6668C13.334 17.4048 12.736 17.9988 12 17.9988ZM16 17.9988C15.264 17.9988 14.666 17.4028 14.666 16.6648C14.666 15.9268 15.264 15.3328 16 15.3328C16.736 15.3328 17.334 15.9288 17.334 16.6668C17.334 17.4048 16.736 17.9988 16 17.9988ZM20 17.9988C19.264 17.9988 18.666 17.4028 18.666 16.6648C18.666 15.9268 19.264 15.3328 20 15.3328C20.736 15.3328 21.334 15.9288 21.334 16.6668C21.334 17.4048 20.736 17.9988 20 17.9988Z" fill="#BDBDBD"/>
<path d="M28 1.46719H4C1.794 1.46719 0 3.26119 0 5.46719V26.8012C0 29.0072 1.794 30.8012 4 30.8012H28C30.206 30.8012 32 29.0072 32 26.8012V5.46719C32 3.26119 30.206 1.46719 28 1.46719ZM28 28.1332H4C3.264 28.1332 2.666 27.5352 2.666 26.7992V8.13319H29.332V26.7992C29.334 27.5352 28.736 28.1332 28 28.1332Z" fill="#828282"/>
</g>
</svg>
