<svg width="40" height="40" viewBox="0 0 40 40" fill="none" xmlns="http://www.w3.org/2000/svg">
<circle cx="20" cy="20" r="20" fill="#E1F2FF"/>
<mask id="mask0" mask-type="alpha" maskUnits="userSpaceOnUse" x="0" y="0" width="40" height="40">
<circle cx="20" cy="20" r="20" fill="#C5E2F0"/>
</mask>
<g mask="url(#mask0)">
<path d="M34.6052 25.9974L34.7846 26.4717L34.8585 26.6614C34.8479 27.2938 34.8479 27.9368 34.8373 28.5692L34.2041 28.5059C34.278 27.8841 34.3413 27.2622 34.4152 26.6403C34.4468 26.5349 34.468 26.4295 34.4996 26.3136C34.5313 26.2082 34.5735 26.1028 34.6052 25.9974Z" fill="#BCBEC0"/>
<path d="M32.9794 19.4308H33.887C34.5836 19.4308 35.1535 18.8617 35.1535 18.166V14.6351C35.1535 13.9394 34.5836 13.3702 33.887 13.3702H32.9794C32.2828 13.3702 31.7129 13.9394 31.7129 14.6351V18.166C31.7129 18.8617 32.2828 19.4308 32.9794 19.4308Z" fill="#BCBEC0"/>
<path d="M16.8785 29.076H24.0342V27.1155H16.8785V29.076Z" fill="#A7A9AC"/>
<path d="M6.64735 19.4308H7.555C8.25157 19.4308 8.82149 18.8617 8.82149 18.166V14.6351C8.82149 13.9394 8.25157 13.3702 7.555 13.3702H6.64735C5.95078 13.3702 5.38086 13.9394 5.38086 14.6351V18.166C5.38086 18.8617 5.95078 19.4308 6.64735 19.4308Z" fill="#BCBEC0"/>
<path d="M20.2622 27.9895C27.2977 27.9895 33.001 22.6192 33.001 15.9947C33.001 9.37022 27.2977 4 20.2622 4C13.2268 4 7.52344 9.37022 7.52344 15.9947C7.52344 22.6192 13.2268 27.9895 20.2622 27.9895Z" fill="#BCBEC0"/>
<path d="M20.2619 26.282C27.0642 26.282 32.5786 21.3176 32.5786 15.1937C32.5786 9.0698 27.0642 4.10541 20.2619 4.10541C13.4597 4.10541 7.94531 9.0698 7.94531 15.1937C7.94531 21.3176 13.4597 26.282 20.2619 26.282Z" fill="#DCDDDE"/>
<path d="M20.8005 22.4559C25.7725 22.4559 29.8031 19.0063 29.8031 14.751C29.8031 10.4957 25.7725 7.04611 20.8005 7.04611C15.8285 7.04611 11.7979 10.4957 11.7979 14.751C11.7979 19.0063 15.8285 22.4559 20.8005 22.4559Z" fill="#A7A9AC"/>
<path opacity="0.8" d="M20.6844 21.6337C25.5923 21.6337 29.5709 18.3116 29.5709 14.2134C29.5709 10.1153 25.5923 6.79315 20.6844 6.79315C15.7765 6.79315 11.7979 10.1153 11.7979 14.2134C11.7979 18.3116 15.7765 21.6337 20.6844 21.6337Z" fill="#A5E3F1"/>
<path opacity="0.53" d="M14.4366 11.336C14.6793 12.7062 16.4841 13.8551 18.5421 13.1805C20.6107 12.5059 22.0144 11.4308 21.7822 10.0606C21.5395 8.6904 19.7031 7.85772 17.6767 8.21609C15.6503 8.56391 14.2044 9.95522 14.4366 11.336Z" fill="#F1F2F2"/>
<path opacity="0.8" d="M12.7364 9.6917L15.2166 7.88933C15.5755 7.62583 15.6599 7.10936 15.396 6.75099C15.1322 6.39262 14.615 6.3083 14.2562 6.57181L11.776 8.38472C11.4172 8.64822 11.3327 9.16469 11.5966 9.52306C11.8604 9.88143 12.3776 9.95521 12.7364 9.6917Z" fill="#A7A9AC"/>
<path d="M35.5869 30.2556L33.7294 29.6759L33.6133 29.971L35.3969 30.8775L35.5869 30.2556Z" fill="#E6E7E8"/>
<path d="M10.7308 34.2187L13.1265 34.1238L12.9788 30.5928L10.583 30.6877L10.7308 34.2187Z" fill="#BCBEC0"/>
<path d="M10.7734 31.1304V33.7971C10.4357 33.8287 9.54917 33.9657 8.71539 34.6297C7.82885 35.3359 7.54389 36.2213 7.45946 36.5375C6.84732 36.4848 6.23518 36.4321 5.62305 36.39C5.64416 36.0105 5.7708 33.9236 7.58611 32.4268C8.84204 31.3728 10.2246 31.1726 10.7734 31.1304Z" fill="#BCBEC0"/>
<path d="M4.83834 36.2711L4.72168 37.4776L7.9784 37.7917L8.09506 36.5851L4.83834 36.2711Z" fill="#BCBEC0"/>
<path d="M6.60424 40.5955L6.37205 40.0368C6.89976 39.963 7.29026 39.6363 7.29026 39.2358C7.29026 38.7825 6.77311 38.4242 6.15042 38.4242C5.52772 38.4242 5.01057 38.7931 5.01057 39.2358C5.01057 39.552 5.26387 39.826 5.62271 39.963L5.3272 40.4795C4.76783 40.2582 4.39844 39.7944 4.39844 39.2674C4.39844 38.498 5.17944 37.8866 6.12931 37.8866C7.08973 37.8866 7.86018 38.5085 7.86018 39.2674C7.87073 39.8998 7.33247 40.4374 6.60424 40.5955Z" fill="#BCBEC0"/>
<path d="M7.49014 37.1277C7.18407 37.6126 7.06797 38.0447 7.02576 38.245C6.46639 38.2344 5.90702 38.2134 5.34766 38.2028C5.34766 38.0342 5.34766 37.465 5.54818 36.7588L7.49014 37.1277Z" fill="#BCBEC0"/>
<path d="M30.3304 31.6363L29.8027 35.0408C30.3621 35.0092 31.9452 34.8511 33.4228 33.66C35.1537 32.2687 35.5653 30.4136 35.6603 29.9077C35.0692 29.6337 34.4782 29.3491 33.8766 29.075C33.8449 29.2648 33.6655 30.4347 32.5574 31.1725C31.5758 31.8366 30.5415 31.6679 30.3304 31.6363Z" fill="#BCBEC0"/>
<path d="M35.9656 26.1554L36.0817 26.556L36.1239 26.7141C36.0606 27.2411 36.0078 27.7575 35.9445 28.2845L35.4062 28.2002C35.5223 27.6943 35.6279 27.1884 35.744 26.6824C35.7756 26.5981 35.8073 26.5138 35.8495 26.4189C35.8917 26.3241 35.934 26.2397 35.9656 26.1554Z" fill="#BCBEC0"/>
<path d="M33.9502 29.0856C34.2352 28.4216 34.2246 27.7997 34.214 27.6627C34.8051 27.8313 35.3856 28.0105 35.9766 28.1791C35.9766 28.3478 35.9766 28.6745 35.9133 29.0961L33.9502 29.0856Z" fill="#E6E7E8"/>
<path d="M33.4121 29.3596L36.0401 30.108L36.3989 28.8643L33.7709 28.1159L33.4121 29.3596Z" fill="#BCBEC0"/>
<path d="M28.2021 30.5275L27.7178 35.2035L30.1009 35.4497L30.5852 30.7737L28.2021 30.5275Z" fill="#BCBEC0"/>
<path d="M33.4852 30.1923L35.1738 31.415L34.72 32.2371L33.1475 30.6772L33.4852 30.1923Z" fill="#E6E7E8"/>
<path d="M32.9368 30.8774L34.3721 32.7114L33.7494 33.386L32.5674 31.1725L32.9368 30.8774Z" fill="#E6E7E8"/>
<path d="M32.2929 31.3412L33.2428 33.8076L32.2929 34.3873L31.7969 31.5414L32.2929 31.3412Z" fill="#E6E7E8"/>
<path d="M31.4279 31.6258L31.5334 34.7035L30.3936 34.9776L30.7102 31.6785L31.4279 31.6258Z" fill="#E6E7E8"/>
<path d="M16.8941 41.2724H24.1553V39.9127H16.8941V41.2724Z" fill="#ED1C24"/>
<path d="M20.5368 40.5955C15.2598 40.5955 10.9854 35.8841 10.9854 30.0659H30.0882C30.0882 35.8841 25.8138 40.5955 20.5368 40.5955Z" fill="#BCBEC0"/>
<path d="M15.3446 31.3413H25.867C26.5636 31.3413 27.1335 30.7721 27.1335 30.0764C27.1335 29.3808 26.5636 28.8116 25.867 28.8116H15.3446C14.648 28.8116 14.0781 29.3808 14.0781 30.0764C14.0781 30.7721 14.648 31.3413 15.3446 31.3413Z" fill="#BCBEC0"/>
<path d="M20.5267 38.2556C16.3051 38.2556 12.875 34.5876 12.875 30.0659H28.1784C28.1784 34.5982 24.7484 38.2556 20.5267 38.2556Z" fill="#DCDDDE"/>
<path opacity="0.7" d="M13.1491 34.7141L13.3391 34.6298C13.5079 34.556 13.5713 34.3452 13.4974 34.1766C13.3602 34.0607 13.0963 33.8077 12.9064 33.3966C12.7269 32.9961 12.7058 32.6377 12.7058 32.4585C12.6953 32.4375 12.6425 32.3215 12.5159 32.2794C12.4314 32.2477 12.347 32.2477 12.2626 32.2794L12.0726 32.3637C11.9037 32.4375 11.8404 32.6483 11.9143 32.8169C11.9248 33.0383 11.967 33.4282 12.1992 33.8604C12.3681 34.1766 12.5686 34.3979 12.7058 34.5244C12.7058 34.556 12.7586 34.672 13.1491 34.7141Z" fill="#F1F2F2"/>
</g>
</svg>
