<svg width="26" height="24" viewBox="0 0 26 24" fill="none" xmlns="http://www.w3.org/2000/svg">
<path d="M23.1831 11.05L13.5948 20.24C12.4202 21.3659 10.827 21.9983 9.16586 21.9983C7.50467 21.9983 5.91152 21.3659 4.73688 20.24C3.56225 19.1142 2.90234 17.5872 2.90234 15.995C2.90234 14.4028 3.56225 12.8759 4.73688 11.75L14.3252 2.56001C15.1083 1.80945 16.1704 1.38779 17.2778 1.38779C18.3853 1.38779 19.4474 1.80945 20.2305 2.56001C21.0136 3.31057 21.4535 4.32855 21.4535 5.39001C21.4535 6.45147 21.0136 7.46945 20.2305 8.22001L10.6317 17.41C10.2402 17.7853 9.70915 17.9961 9.15542 17.9961C8.60169 17.9961 8.07064 17.7853 7.6791 17.41C7.28755 17.0347 7.06759 16.5257 7.06759 15.995C7.06759 15.4643 7.28755 14.9553 7.6791 14.58L16.537 6.10001" stroke="#fff" stroke-width="2" stroke-linecap="round" stroke-linejoin="round"/>
</svg>
