<svg width="24" height="24" viewBox="0 0 24 24" fill="none" xmlns="http://www.w3.org/2000/svg">
<path d="M12.0244 13.022C12.5767 13.022 13.0244 12.5743 13.0244 12.022C13.0244 11.4697 12.5767 11.022 12.0244 11.022C11.4721 11.022 11.0244 11.4697 11.0244 12.022C11.0244 12.5743 11.4721 13.022 12.0244 13.022Z" fill="#8F92A1"/>
<path d="M16.0244 13.022C16.5767 13.022 17.0244 12.5743 17.0244 12.022C17.0244 11.4697 16.5767 11.022 16.0244 11.022C15.4721 11.022 15.0244 11.4697 15.0244 12.022C15.0244 12.5743 15.4721 13.022 16.0244 13.022Z" fill="#8F92A1"/>
<path d="M8.02441 13.022C8.5767 13.022 9.02441 12.5743 9.02441 12.022C9.02441 11.4697 8.5767 11.022 8.02441 11.022C7.47213 11.022 7.02441 11.4697 7.02441 12.022C7.02441 12.5743 7.47213 13.022 8.02441 13.022Z" fill="#8F92A1"/>
<path d="M19.094 4.952C17.4533 3.3005 15.2877 2.27321 12.9707 2.04724C10.6537 1.82127 8.33039 2.41077 6.40143 3.71413C4.47247 5.01748 3.05868 6.953 2.40381 9.18701C1.74894 11.421 1.89402 13.8135 2.81404 15.952C2.90993 16.1508 2.9414 16.3745 2.90404 16.592L2.02404 20.822C1.99014 20.9842 1.99706 21.1522 2.04419 21.3111C2.09132 21.4699 2.17718 21.6146 2.29404 21.732C2.38985 21.8271 2.50392 21.9018 2.62938 21.9517C2.75484 22.0015 2.88909 22.0254 3.02404 22.022H3.22404L7.50404 21.162C7.72157 21.1358 7.94216 21.1669 8.14404 21.252C10.2825 22.172 12.675 22.3171 14.909 21.6622C17.143 21.0074 19.0786 19.5936 20.3819 17.6646C21.6853 15.7356 22.2748 13.4124 22.0488 11.0954C21.8228 8.77836 20.7955 6.61278 19.144 4.972L19.094 4.952ZM19.924 13.312C19.7285 14.506 19.2647 15.6401 18.5676 16.6289C17.8704 17.6177 16.9581 18.4356 15.8992 19.0209C14.8403 19.6061 13.6624 19.9436 12.4543 20.0079C11.2461 20.0722 10.0391 19.8616 8.92404 19.392C8.52859 19.2238 8.10378 19.1354 7.67404 19.132C7.48632 19.1333 7.29903 19.15 7.11404 19.182L4.29404 19.752L4.86404 16.932C4.97757 16.3213 4.90439 15.6905 4.65404 15.122C4.18444 14.007 3.97385 12.7999 4.03814 11.5918C4.10242 10.3836 4.43991 9.20574 5.02519 8.14685C5.61047 7.08795 6.4283 6.17559 7.41714 5.47844C8.40598 4.7813 9.54006 4.31751 10.734 4.122C11.9873 3.91631 13.2716 4.01197 14.4805 4.40106C15.6895 4.79014 16.7885 5.46148 17.6865 6.35953C18.5846 7.25758 19.2559 8.35655 19.645 9.56552C20.0341 10.7745 20.1297 12.0587 19.924 13.312Z" fill="#8F92A1"/>
</svg>
