
<svg width="436" height="327" viewBox="0 0 436 327" fill="none" xmlns="http://www.w3.org/2000/svg">
<path opacity="0.45" d="M224.071 298.747C315.411 298.747 389.457 288.636 389.457 276.162C389.457 263.689 315.411 253.578 224.071 253.578C132.731 253.578 58.6855 263.689 58.6855 276.162C58.6855 288.636 132.731 298.747 224.071 298.747Z" fill="#E6E6E6"/>
<path opacity="0.58" d="M312.165 255.91C312.165 255.91 299.009 252.379 296.099 240.149C296.099 240.149 316.449 235.952 317.114 256.968L312.165 255.91Z" fill="#68E1FD"/>
<path opacity="0.73" d="M313.778 254.602C313.778 254.602 304.535 240.116 312.558 226.513C312.558 226.513 328.079 236.323 321.278 254.602H313.778Z" fill="#68E1FD"/>
<path d="M316.1 254.602C316.1 254.602 320.885 239.244 335.546 236.279C335.546 236.279 338.336 246.22 326.117 254.602H316.1Z" fill="#68E1FD"/>
<path d="M306.606 254.297L309.353 272.511H326.128L328.526 254.297H306.606Z" fill="#24285B"/>
<path d="M280.206 49.3988H155.805V272.511H280.206V49.3988Z" fill="#C9C9C9"/>
<path d="M269.067 74.8394H166.094V231.854H269.067V74.8394Z" fill="white"/>
<path opacity="0.08" d="M280.195 93.6418H230.546V137.209H280.195V93.6418Z" fill="black"/>
<path opacity="0.08" d="M280.196 157.505H222.916V201.072H280.196V157.505Z" fill="black"/>
<path opacity="0.56" d="M218.381 264.14C225.106 264.14 230.557 258.689 230.557 251.964C230.557 245.24 225.106 239.789 218.381 239.789C211.657 239.789 206.206 245.24 206.206 251.964C206.206 258.689 211.657 264.14 218.381 264.14Z" fill="white"/>
<path opacity="0.08" d="M202.467 134.822L222.916 137.874L222.284 139.237C220.244 143.832 219.073 148.766 218.828 153.788C218.676 156.23 217.291 159.565 212.692 163.489C204.844 170.182 199.797 191.731 189.377 200.146C186.292 202.717 183.79 205.915 182.034 209.526C180.279 213.138 179.312 217.082 179.196 221.096L177.169 272.5H156.96L161.418 193.9L166.77 166.77L179.85 153.341L191.84 137.874L197.29 134.822H202.467Z" fill="black"/>
<path opacity="0.12" d="M242.361 58.1188H207.481V63.2091H242.361V58.1188Z" fill="black"/>
<path d="M194.848 66.8933C197.985 66.8933 200.527 64.3508 200.527 61.2144C200.527 58.0781 197.985 55.5355 194.848 55.5355C191.712 55.5355 189.169 58.0781 189.169 61.2144C189.169 64.3508 191.712 66.8933 194.848 66.8933Z" fill="white"/>
<path d="M166.727 164.067L186.303 139.662L190.532 143.368L173.844 171.272L166.727 164.067Z" fill="#68E1FD"/>
<path d="M134.299 123.868L137.907 134.713L129.328 140.163L126.244 121.371L134.299 123.868Z" fill="#F4A28C"/>
<path d="M123.301 110.897C123.746 109.863 124.443 108.958 125.328 108.263C126.213 107.567 127.257 107.105 128.367 106.916C129.476 106.728 130.615 106.819 131.679 107.183C132.744 107.547 133.701 108.172 134.463 109C138.114 112.891 142.518 119.093 137.536 122.472C129.906 127.639 122.919 117.982 122.919 117.982C122.346 115.634 122.478 113.169 123.301 110.897Z" fill="#F4A28C"/>
<path d="M128.871 117.546C128.871 117.546 126.919 115.911 126.026 118.232C125.132 120.554 128.598 121.666 129.623 120.499C130.647 119.333 128.871 117.546 128.871 117.546Z" fill="#F4A28C"/>
<path d="M119.311 145.482C120.609 142.613 122.509 140.057 124.882 137.988C127.256 135.919 130.048 134.386 133.067 133.492C144.719 129.993 166.192 133.819 172.732 144.73C181.692 159.652 168.579 207.078 168.579 207.078L129.405 210.119C129.405 210.119 107.91 171.228 119.311 145.482Z" fill="#68E1FD"/>
<path d="M168.579 207.056L163.423 274.397H155.281L148 222.077L129.993 210.097L168.579 207.056Z" fill="#24285B"/>
<path d="M129.993 210.098L118.755 274.397H127.486L146.354 220.976L129.993 210.098Z" fill="#24285B"/>
<path opacity="0.08" d="M136.457 132.446C136.457 132.446 118.134 191.459 171.043 195.372L168.579 207.1L129.405 210.141C129.405 210.141 115.605 188.461 116.183 158.017C116.183 158.017 116.521 142.964 127.083 136.315C129.896 134.372 133.092 133.053 136.457 132.446Z" fill="black"/>
<path d="M120.805 274.255L115.54 278.135C115.348 278.282 115.206 278.485 115.134 278.717C115.063 278.948 115.065 279.196 115.14 279.426C115.216 279.656 115.361 279.856 115.556 280C115.75 280.144 115.985 280.224 116.227 280.228H125.045C125.352 280.225 125.646 280.101 125.863 279.883C126.079 279.664 126.2 279.369 126.2 279.062V274.255H120.805Z" fill="#68E1FD"/>
<path d="M162.41 274.255L167.369 278.135C167.564 278.284 167.707 278.49 167.778 278.724C167.848 278.959 167.844 279.209 167.764 279.441C167.684 279.672 167.534 279.873 167.334 280.014C167.134 280.156 166.895 280.23 166.65 280.228H160.372C159.925 280.235 159.482 280.153 159.068 279.987C158.653 279.821 158.276 279.574 157.959 279.26C157.641 278.947 157.389 278.573 157.217 278.161C157.046 277.749 156.958 277.306 156.96 276.86V274.244L162.41 274.255Z" fill="#68E1FD"/>
<path d="M152.426 133.165C150.474 136.299 149.439 139.916 149.439 143.607C149.439 147.299 150.474 150.916 152.426 154.05C156.698 161.265 169.135 175.305 177.626 184.57C178.586 185.62 179.781 186.427 181.114 186.925C182.446 187.422 183.878 187.596 185.291 187.431C186.704 187.266 188.058 186.767 189.24 185.976C190.422 185.184 191.399 184.123 192.091 182.88L210.37 150.714L204.179 146.747L187.447 171.272C187.447 171.272 175.97 133.634 152.426 133.165Z" fill="#68E1FD"/>
<path opacity="0.2" d="M152.426 133.165C150.474 136.299 149.439 139.916 149.439 143.607C149.439 147.299 150.474 150.916 152.426 154.05C156.698 161.265 169.135 175.305 177.626 184.57C178.586 185.62 179.781 186.427 181.114 186.925C182.446 187.422 183.878 187.596 185.291 187.431C186.704 187.266 188.058 186.767 189.24 185.976C190.422 185.184 191.399 184.123 192.091 182.88L210.37 150.714L204.179 146.747L187.447 171.272C187.447 171.272 175.97 133.634 152.426 133.165Z" fill="white"/>
<path d="M208.19 149.33C208.19 149.33 218.556 145.526 214.327 139.662C210.098 133.798 204.157 146.747 204.157 146.747L208.19 149.33Z" fill="#F4A28C"/>
<path d="M217.604 132.3L208.263 128.116L202.163 141.734L211.504 145.919L217.604 132.3Z" fill="#FFD200"/>
<path d="M126.811 124.816L120.99 118.81C120.39 118.185 119.924 117.444 119.62 116.632C119.317 115.821 119.182 114.956 119.224 114.09C119.366 111.038 120.02 106.166 122.494 102.504C126.462 96.7701 131.749 94.601 133.057 99.5605C134.365 104.52 134.648 98.634 137.842 101.261C141.035 103.888 140.381 105.447 137.842 106.842C135.302 108.237 130.037 110.264 129.569 114.472C129.1 118.679 133.133 122.004 126.811 124.816Z" fill="#24285B"/>
<path d="M187.295 140.534C187.295 140.534 188.592 131.585 197.268 132.446C205.945 133.307 202.773 135.52 199.274 135.716C198.562 135.865 197.904 136.203 197.367 136.694C196.83 137.185 196.435 137.811 196.222 138.506C195.71 140.076 194.304 142.103 190.565 143.389L187.295 140.534Z" fill="#F4A28C"/>
<path d="M334.674 87.2H230.546V130.767H334.674V87.2Z" fill="#FFD200"/>
<path d="M327.044 151.51H222.916V195.077H327.044V151.51Z" fill="#FFD200"/>
<path d="M276.914 96.6503H242.361V118.788H276.914V96.6503Z" fill="white"/>
<path d="M242.361 96.6503L259.627 112.815L276.903 96.6503H242.361Z" fill="#24285B"/>
<path d="M321.419 99.0046H289.624V105.545H321.419V99.0046Z" fill="white"/>
<path opacity="0.46" d="M321.419 109.545H289.624V116.085H321.419V109.545Z" fill="white"/>
<path d="M312.002 163.489H277.547V170.029H312.002V163.489Z" fill="white"/>
<path opacity="0.46" d="M312.002 174.029H277.547V180.569H312.002V174.029Z" fill="white"/>
<path d="M251.714 189.071C260.617 189.071 267.835 181.854 267.835 172.95C267.835 164.047 260.617 156.829 251.714 156.829C242.81 156.829 235.593 164.047 235.593 172.95C235.593 181.854 242.81 189.071 251.714 189.071Z" fill="#24285B"/>
<path d="M252.106 175.087C255.526 175.087 258.297 172.315 258.297 168.896C258.297 165.476 255.526 162.704 252.106 162.704C248.687 162.704 245.915 165.476 245.915 168.896C245.915 172.315 248.687 175.087 252.106 175.087Z" fill="white"/>
<path opacity="0.24" d="M240.89 184.919C240.89 184.919 242.231 175.457 251.692 174.967C261.72 174.455 262.494 184.919 262.494 184.919C259.532 187.592 255.683 189.073 251.692 189.073C247.701 189.073 243.852 187.592 240.89 184.919Z" fill="white"/>
<path d="M107.638 130.266L98.6886 126.604V118.102H63.5361V140H98.6886V132.631L107.638 130.266Z" fill="#E6E6E6"/>
<path opacity="0.12" d="M73.2481 131.726C74.723 131.726 75.9186 130.531 75.9186 129.056C75.9186 127.581 74.723 126.385 73.2481 126.385C71.7733 126.385 70.5776 127.581 70.5776 129.056C70.5776 130.531 71.7733 131.726 73.2481 131.726Z" fill="black"/>
<path opacity="0.12" d="M81.0523 131.726C82.5272 131.726 83.7228 130.531 83.7228 129.056C83.7228 127.581 82.5272 126.385 81.0523 126.385C79.5775 126.385 78.3818 127.581 78.3818 129.056C78.3818 130.531 79.5775 131.726 81.0523 131.726Z" fill="black"/>
<path opacity="0.12" d="M88.6715 131.726C90.1464 131.726 91.342 130.531 91.342 129.056C91.342 127.581 90.1464 126.385 88.6715 126.385C87.1966 126.385 86.001 127.581 86.001 129.056C86.001 130.531 87.1966 131.726 88.6715 131.726Z" fill="black"/>
</svg>