<svg xmlns="http://www.w3.org/2000/svg" xmlns:xlink="http://www.w3.org/1999/xlink" width="46" height="46" viewBox="0 0 46 46">
    <defs>
        <path id="a" d="M0 .029h39.763v24.169H0z"/>
        <path id="c" d="M.103.035H11.8v4.678H.103z"/>
        <path id="e" d="M0 46h45.22V0H0z"/>
    </defs>
    <g fill="none" fill-rule="evenodd">
        <path fill="#F0E4D6" d="M42.102 0H31.966a3.119 3.119 0 0 0-3.119 3.119v7.796a3.119 3.119 0 0 0 3.12 3.119h2.338v3.898l3.899-3.898h3.898a3.119 3.119 0 0 0 3.118-3.119V3.12A3.119 3.119 0 0 0 42.102 0"/>
        <path fill="#EBDCCA" d="M43.695.45c-3.217 7.671-9.546 11.23-13.77 12.804a3.09 3.09 0 0 0 2.041.78h2.34v3.898l3.898-3.898h3.898a3.119 3.119 0 0 0 3.118-3.119V3.12A3.107 3.107 0 0 0 43.695.45"/>
        <g transform="translate(0 21.802)">
            <mask id="b" fill="#fff">
                <use xlink:href="#a"/>
            </mask>
            <path fill="#FEC9A3" d="M31.966 24.198l7.797-14.814h-6.238l-3.898 7.017v-6.237a4.678 4.678 0 0 0-4.678-4.678h-4.678a2.339 2.339 0 0 1-2.339-2.34V.03h-6.237v3.118a2.339 2.339 0 0 1-2.34 2.34H4.679A4.677 4.677 0 0 0 0 10.163v14.034h31.966z" mask="url(#b)"/>
        </g>
        <path fill="#F5B789" d="M6.21 46H4.65v-2.073a7.771 7.771 0 0 1-.321-8.797l.57-.898 1.317.836-.57.897a6.211 6.211 0 0 0 .393 7.209c.111.138.171.31.171.487V46zM24.977 46h-1.56v-2.34c0-.176.06-.348.17-.486a6.21 6.21 0 0 0 .395-7.208l-.57-.898 1.317-.836.57.898a7.771 7.771 0 0 1-.322 8.797V46z"/>
        <path fill="#F9B44D" d="M25.729 18.712v-7.797C25.729 4.887 20.842 0 14.813 0 8.785 0 3.898 4.887 3.898 10.915v7.797a4.677 4.677 0 0 0 4.678 4.678h12.475a4.678 4.678 0 0 0 4.678-4.678"/>
        <path fill="#F7AA36" d="M14.813 0a10.93 10.93 0 0 0-3.118.458 10.916 10.916 0 0 1 7.796 10.457v7.797a4.678 4.678 0 0 1-4.678 4.678h6.238a4.678 4.678 0 0 0 4.678-4.678v-7.797C25.729 4.887 20.842 0 14.813 0"/>
        <g transform="translate(33.422 26.474)">
            <mask id="d" fill="#fff">
                <use xlink:href="#c"/>
            </mask>
            <path fill="#FEC9A3" d="M7.12 4.713H.104A4.678 4.678 0 0 1 4.781.035H11.8A4.677 4.677 0 0 1 7.12 4.713" mask="url(#d)"/>
        </g>
        <mask id="f" fill="#fff">
            <use xlink:href="#e"/>
        </mask>
        <path fill="#CCBFB0" d="M31.966 4.678h5.458v-1.56h-5.458zM38.983 4.678h3.119v-1.56h-3.119zM31.966 7.797h10.136v-1.56H31.966zM31.966 10.915h5.458V9.356h-5.458z" mask="url(#f)"/>
        <path fill="#F7C097" d="M17.936 24.989V21.83h-6.24v3.158a6.96 6.96 0 0 0 6.244 0h-.004z" mask="url(#f)"/>
        <path fill="#FEC9A3" d="M7.797 13.016v3.357a7.016 7.016 0 0 0 7.016 7.017 7.016 7.016 0 0 0 7.018-7.017v-6.238a6.98 6.98 0 0 0-.84-3.328L7.797 13.016z" mask="url(#f)"/>
        <path fill="#E8594A" d="M9.356 40.543H20.27v-8.577H9.356z" mask="url(#f)"/>
        <path fill="#4398D1" d="M33.525 31.187l-3.898 7.016v-6.237a4.678 4.678 0 0 0-4.678-4.678h-2.495l-7.64 10.136-7.251-10.136H4.678A4.677 4.677 0 0 0 0 31.966V46h31.966l7.797-14.813h-6.238z" mask="url(#f)"/>
        <path fill="#3F8FC4" d="M39.763 31.187h-6.238l-3.898 7.016v-6.237a4.678 4.678 0 0 0-4.164-4.648C24.059 38.208 17.518 43.472 11.74 46h20.225l7.797-14.813z" mask="url(#f)"/>
        <path fill="#3685BA" d="M6.21 46H4.65v-2.073a7.771 7.771 0 0 1-.321-8.797l.57-.898 1.317.836-.57.897a6.211 6.211 0 0 0 .393 7.209c.111.138.171.31.171.487V46zM24.977 46h-1.56v-2.34c0-.176.06-.348.17-.486a6.21 6.21 0 0 0 .395-7.208l-.57-.898 1.317-.836.57.898a7.771 7.771 0 0 1-.322 8.797V46z" mask="url(#f)"/>
        <path fill="#F7C097" d="M21.83 16.373v-6.238a6.975 6.975 0 0 0-.84-3.328l-1.978.93c.316 1.03.478 2.1.48 3.178v7.797a4.678 4.678 0 0 1-4.679 4.678 7.016 7.016 0 0 0 7.018-7.017" mask="url(#f)"/>
    </g>
</svg>
