<svg width="36" height="36" viewBox="0 0 36 36" fill="none" xmlns="http://www.w3.org/2000/svg">
<g clip-path="url(#clip0)">
<path d="M18 0.749468C8.0775 0.749468 0 7.34647 0 15.454C0 22.7155 6.405 28.7995 15.0525 29.956C15.639 30.0805 16.437 30.346 16.6395 30.847C16.8195 31.3015 16.758 32.0035 16.6965 32.4775L16.4505 34.0165C16.383 34.471 16.0905 35.806 18.024 34.99C19.9605 34.177 28.398 28.834 32.178 24.4615C34.764 21.6115 36 18.691 36 15.454C36 7.34647 27.9225 0.749468 18 0.749468ZM10.9545 20.275H7.3755C6.858 20.275 6.4305 19.8445 6.4305 19.3255V12.124C6.4305 11.6035 6.858 11.173 7.3755 11.173C7.8975 11.173 8.3205 11.6035 8.3205 12.124V18.3745H10.9545C11.4765 18.3745 11.898 18.802 11.898 19.3255C11.898 19.8445 11.475 20.275 10.9545 20.275ZM14.6535 19.3255C14.6535 19.8445 14.2305 20.275 13.707 20.275C13.1895 20.275 12.7665 19.8445 12.7665 19.3255V12.124C12.7665 11.6035 13.1895 11.173 13.7115 11.173C14.2305 11.173 14.6535 11.6035 14.6535 12.124V19.3255ZM23.265 19.3255C23.265 19.7335 23.004 20.095 22.617 20.2255C22.521 20.257 22.4175 20.272 22.3185 20.272C22.002 20.272 21.732 20.1355 21.5535 19.894L17.889 14.887V19.324C17.889 19.843 17.4705 20.2735 16.9425 20.2735C16.4235 20.2735 16.0035 19.843 16.0035 19.324V12.124C16.0035 11.716 16.263 11.3545 16.6485 11.2255C16.7385 11.191 16.8525 11.176 16.9395 11.176C17.232 11.176 17.502 11.3335 17.682 11.56L21.375 16.5865V12.124C21.375 11.6035 21.798 11.173 22.32 11.173C22.8375 11.173 23.265 11.6035 23.265 12.124V19.3255ZM29.0475 14.773C29.571 14.773 29.9925 15.2035 29.9925 15.7255C29.9925 16.246 29.571 16.6765 29.0475 16.6765H26.415V18.3745H29.0475C29.571 18.3745 29.9925 18.802 29.9925 19.3255C29.9925 19.8445 29.571 20.275 29.0475 20.275H25.4685C24.951 20.275 24.528 19.8445 24.528 19.3255V12.124C24.528 11.6035 24.951 11.173 25.473 11.173H29.052C29.571 11.173 29.9925 11.6035 29.9925 12.124C29.9925 12.6505 29.571 13.075 29.0475 13.075H26.415V14.773H29.0475Z" fill="#4CAF50"/>
</g>
<defs>
<clipPath id="clip0">
<rect width="36" height="36" fill="white"/>
</clipPath>
</defs>
</svg>
