<svg width="32" height="32" viewBox="0 0 32 32" fill="none" xmlns="http://www.w3.org/2000/svg">
<g opacity="0.5" clip-path="url(#clip0)">
<path d="M18.2 32H4.2C1.8802 32 0 29.314 0 26V6C0 2.686 1.8802 0 4.2 0H18.2C20.5198 0 22.4 2.686 22.4 6V26C22.4 29.314 20.5198 32 18.2 32Z" fill="white"/>
<rect x="10" y="3" width="9" height="4" fill="white"/>
<path d="M20.4847 19.334C20.1215 19.334 19.7708 19.28 19.4348 19.16V26.666H2.6353V4C2.6353 3.266 3.26528 2.666 4.03595 2.666H13.8489C14.6616 1.466 16.0749 0.666 17.6855 0.666H20.3587C19.6868 0.254 18.8888 0 18.0341 0H4.03385C1.72393 0 -0.166016 1.8 -0.166016 4V28C-0.166016 30.2 1.72393 32 4.03385 32H18.0341C20.344 32 22.234 30.2 22.234 28V18.826C21.73 19.146 21.1147 19.334 20.4847 19.334Z" fill="#828282"/>
<path d="M10.9644 21.332C12.5008 21.332 13.7463 20.1384 13.7463 18.666C13.7463 17.1936 12.5008 16 10.9644 16C9.42808 16 8.18262 17.1936 8.18262 18.666C8.18262 20.1384 9.42808 21.332 10.9644 21.332Z" fill="#828282"/>
<path d="M16.5288 26.334V26.668H5.39941V26.334C5.39941 24.308 7.11067 22.668 9.22469 22.668H12.7035C14.8176 22.666 16.5288 24.306 16.5288 26.334Z" fill="#828282"/>
<path d="M29.3976 2.66562H17.5711C16.2293 2.66562 15.1357 3.71162 15.1357 4.99962V10.9996C15.1357 12.2856 16.2272 13.3336 17.5711 13.3336H19.3095V16.3336C19.3095 16.7456 19.5746 17.1156 19.9752 17.2656C20.0984 17.3116 20.2257 17.3336 20.353 17.3336C20.6389 17.3336 20.9206 17.2196 21.1209 17.0096L24.6374 13.3336H29.3976C30.7394 13.3336 31.833 12.2876 31.833 10.9996V4.99962C31.833 3.71362 30.7394 2.66562 29.3976 2.66562ZM20.0065 8.99962C19.4306 8.99962 18.9631 8.55162 18.9631 7.99962C18.9631 7.44762 19.4306 6.99962 20.0065 6.99962C20.5825 6.99962 21.05 7.44762 21.05 7.99962C21.05 8.55162 20.5825 8.99962 20.0065 8.99962ZM23.4854 8.99962C22.9094 8.99962 22.4419 8.55162 22.4419 7.99962C22.4419 7.44762 22.9094 6.99962 23.4854 6.99962C24.0614 6.99962 24.5288 7.44762 24.5288 7.99962C24.5288 8.55162 24.0614 8.99962 23.4854 8.99962ZM26.9622 8.99962C26.3862 8.99962 25.9187 8.55162 25.9187 7.99962C25.9187 7.44762 26.3862 6.99962 26.9622 6.99962C27.5381 6.99962 28.0056 7.44762 28.0056 7.99962C28.0056 8.55162 27.5381 8.99962 26.9622 8.99962Z" fill="#BDBDBD"/>
</g>
<defs>
<clipPath id="clip0">
<rect width="32" height="32" fill="white"/>
</clipPath>
</defs>
</svg>
