<svg width="22" height="24" viewBox="0 0 22 24" fill="none" xmlns="http://www.w3.org/2000/svg">
<g id="icon_bell">
<path id="Path" d="M10.8518 0C9.10492 0 7.68359 1.41952 7.68359 3.16414V4.11881H9.32229V3.16414C9.32229 2.32184 10.0086 1.63661 10.8518 1.63661C11.6951 1.63661 12.3815 2.32179 12.3815 3.16414V4.11881H14.0202V3.16414C14.0202 1.41952 12.5987 0 10.8518 0Z" fill="black"/>
<path id="Path_2" d="M13.0755 20.1189C13.0755 21.3484 12.0722 22.3486 10.839 22.3486H10.7838C9.55071 22.3486 8.54728 21.3484 8.54728 20.1189H6.89062C6.89062 22.2592 8.63706 24.0001 10.7838 24.0001H10.839C12.9858 24.0001 14.7322 22.2592 14.7322 20.1189H13.0755Z" fill="black"/>
<path id="Shape" fill-rule="evenodd" clip-rule="evenodd" d="M19.1478 16.1392L21.4926 19.795C21.656 20.0495 21.6675 20.3731 21.5226 20.6386C21.3782 20.9039 21.1006 21.0693 20.7985 21.0693H0.825323C0.523248 21.0693 0.245631 20.9039 0.100942 20.6384C-0.0437468 20.3729 -0.0322205 20.0491 0.13121 19.7947L2.47599 16.1392V11.4468C2.47599 6.79465 6.21531 3.00989 10.8119 3.00989C15.4082 3.00989 19.1478 6.79465 19.1478 11.4468V16.1392ZM3.99525 16.8294L2.33686 19.415H19.2863L17.628 16.8294C17.5424 16.6959 17.497 16.5407 17.497 16.3822V11.4468C17.497 7.70706 14.4983 4.66423 10.8117 4.66423C7.1255 4.66423 4.12649 7.70701 4.12649 11.4468V16.3822C4.12649 16.5407 4.08081 16.6962 3.99525 16.8294Z" fill="black"/>
</g>
</svg>
