<svg width="24" height="24" viewBox="0 0 24 24" fill="none" xmlns="http://www.w3.org/2000/svg">
<path fill-rule="evenodd" clip-rule="evenodd" d="M8.58997 19.9579V13.1368H10.8637H13.1373H15.411V19.9579H18.8215V10.7608L12.0005 3.93979L5.17944 10.7608V19.9579H8.58997ZM12.0005 0.733887L23.2666 12H21.0952V22.2316H13.1373V15.4105H10.8636V22.2316H2.90574V12H0.734375L12.0005 0.733887Z" fill="#8F92A1"/>
<mask id="mask0" mask-type="alpha" maskUnits="userSpaceOnUse" x="0" y="0" width="24" height="23">
<path fill-rule="evenodd" clip-rule="evenodd" d="M8.58997 19.9579V13.1368H10.8637H13.1373H15.411V19.9579H18.8215V10.7608L12.0005 3.93979L5.17944 10.7608V19.9579H8.58997ZM12.0005 0.733887L23.2666 12H21.0952V22.2316H13.1373V15.4105H10.8636V22.2316H2.90574V12H0.734375L12.0005 0.733887Z" fill="white"/>
</mask>
<g mask="url(#mask0)">
</g>
</svg>
