<svg width="24" height="24" viewBox="0 0 24 24" fill="none" xmlns="http://www.w3.org/2000/svg">
<g clip-path="url(#clip0_943_25398)">
<path d="M21 24H3C1.344 24 0 22.656 0 21V3C0 1.344 1.344 0 3 0H21C22.656 0 24 1.344 24 3V21C24 22.656 22.656 24 21 24Z" fill="#1D9BF0"/>
<path d="M9.2161 18.0961C14.8741 18.0961 17.9701 13.4041 17.9701 9.34205C17.9701 9.21005 17.9701 9.07805 17.9641 8.94605C18.5641 8.51405 19.0861 7.96805 19.5001 7.35005C18.9481 7.59605 18.3541 7.75805 17.7301 7.83605C18.3661 7.45805 18.8521 6.85205 19.0861 6.13205C18.4921 6.48605 17.8321 6.73805 17.1301 6.87605C16.5661 6.27605 15.7681 5.90405 14.8861 5.90405C13.1881 5.90405 11.8081 7.28405 11.8081 8.98205C11.8081 9.22205 11.8381 9.45605 11.8861 9.68405C9.3301 9.55805 7.0621 8.32805 5.5441 6.46805C5.2801 6.92405 5.1301 7.45205 5.1301 8.01605C5.1301 9.08405 5.6761 10.0261 6.4981 10.5781C5.9941 10.5601 5.5201 10.4221 5.1061 10.1941C5.1061 10.2061 5.1061 10.2181 5.1061 10.2361C5.1061 11.7241 6.1681 12.9721 7.5721 13.2541C7.3141 13.3261 7.0441 13.3621 6.7621 13.3621C6.5641 13.3621 6.3721 13.3441 6.1861 13.3081C6.5761 14.5321 7.7161 15.4201 9.0601 15.4441C8.0041 16.2721 6.6781 16.7641 5.2381 16.7641C4.9921 16.7641 4.7461 16.7521 4.5061 16.7221C5.8621 17.5861 7.4821 18.0961 9.2161 18.0961Z" fill="white"/>
</g>
<defs>
<clipPath id="clip0_943_25398">
<rect width="24" height="24" fill="white"/>
</clipPath>
</defs>
</svg>
