<svg width="36" height="36" viewBox="0 0 36 36" fill="none" xmlns="http://www.w3.org/2000/svg">
<rect y="1" width="20" height="18" rx="3" fill="white"/>
<path d="M24.3743 12.7494H11.6235C10.1768 12.7494 9 13.9262 9 15.3752V22.1252C9 23.5719 10.1767 24.7509 11.6257 24.7509H13.5V28.1259C13.5 28.5737 13.7655 28.9764 14.1727 29.1564C14.3167 29.2194 14.472 29.2509 14.625 29.2509C14.9018 29.2509 15.1762 29.1474 15.3877 28.9539L19.9395 24.7509H24.3743C25.821 24.7509 27 23.5742 27 22.1252V15.3752C27 13.9262 25.8232 12.7494 24.3743 12.7494ZM13.5 20.2487C12.672 20.2487 11.9993 19.5782 11.9993 18.7479C11.9993 17.9177 12.672 17.2494 13.5 17.2494C14.328 17.2494 15.0007 17.9199 15.0007 18.7502C15.0007 19.5804 14.328 20.2487 13.5 20.2487ZM18 20.2487C17.172 20.2487 16.4993 19.5782 16.4993 18.7479C16.4993 17.9177 17.172 17.2494 18 17.2494C18.828 17.2494 19.5007 17.9199 19.5007 18.7502C19.5007 19.5804 18.828 20.2487 18 20.2487ZM22.5 20.2487C21.672 20.2487 20.9993 19.5782 20.9993 18.7479C20.9993 17.9177 21.672 17.2494 22.5 17.2494C23.328 17.2494 24.0007 17.9199 24.0007 18.7502C24.0007 19.5804 23.328 20.2487 22.5 20.2487Z" fill="#8CE1EB"/>
<path d="M31.5 1.65059H4.5C2.01825 1.65059 0 3.66884 0 6.15059V30.1513C0 32.6331 2.01825 34.6513 4.5 34.6513H31.5C33.9818 34.6513 36 32.6331 36 30.1513V6.15059C36 3.66884 33.9818 1.65059 31.5 1.65059ZM31.5 31.6498H4.5C3.672 31.6498 2.99925 30.9771 2.99925 30.1491V9.14984H32.9985V30.1491C33.0008 30.9771 32.328 31.6498 31.5 31.6498Z" fill="#26C6DA"/>
</svg>
