<svg width="40" height="40" viewBox="0 0 40 40" fill="none" xmlns="http://www.w3.org/2000/svg">
<g clip-path="url(#clip0)">
<path d="M20 0.833252C8.975 0.833252 0 8.16325 0 17.1716C0 25.2399 7.11667 31.9999 16.725 33.2849C17.3767 33.4233 18.2633 33.7183 18.4883 34.2749C18.6883 34.7799 18.62 35.5599 18.5517 36.0866L18.2783 37.7966C18.2033 38.3016 17.8783 39.7849 20.0267 38.8783C22.1783 37.9749 31.5533 32.0383 35.7533 27.1799C38.6267 24.0133 40 20.7683 40 17.1716C40 8.16325 31.025 0.833252 20 0.833252ZM12.1717 22.5283H8.195C7.62 22.5283 7.145 22.0499 7.145 21.4733V13.4716C7.145 12.8933 7.62 12.4149 8.195 12.4149C8.775 12.4149 9.245 12.8933 9.245 13.4716V20.4166H12.1717C12.7517 20.4166 13.22 20.8916 13.22 21.4733C13.22 22.0499 12.75 22.5283 12.1717 22.5283ZM16.2817 21.4733C16.2817 22.0499 15.8117 22.5283 15.23 22.5283C14.655 22.5283 14.185 22.0499 14.185 21.4733V13.4716C14.185 12.8933 14.655 12.4149 15.235 12.4149C15.8117 12.4149 16.2817 12.8933 16.2817 13.4716V21.4733ZM25.85 21.4733C25.85 21.9266 25.56 22.3283 25.13 22.4733C25.0233 22.5083 24.9083 22.5249 24.7983 22.5249C24.4467 22.5249 24.1467 22.3733 23.9483 22.1049L19.8767 16.5416V21.4716C19.8767 22.0483 19.4117 22.5266 18.825 22.5266C18.2483 22.5266 17.7817 22.0483 17.7817 21.4716V13.4716C17.7817 13.0183 18.07 12.6166 18.4983 12.4733C18.5983 12.4349 18.725 12.4183 18.8217 12.4183C19.1467 12.4183 19.4467 12.5933 19.6467 12.8449L23.75 18.4299V13.4716C23.75 12.8933 24.22 12.4149 24.8 12.4149C25.375 12.4149 25.85 12.8933 25.85 13.4716V21.4733ZM32.275 16.4149C32.8567 16.4149 33.325 16.8933 33.325 17.4733C33.325 18.0516 32.8567 18.5299 32.275 18.5299H29.35V20.4166H32.275C32.8567 20.4166 33.325 20.8916 33.325 21.4733C33.325 22.0499 32.8567 22.5283 32.275 22.5283H28.2983C27.7233 22.5283 27.2533 22.0499 27.2533 21.4733V13.4716C27.2533 12.8933 27.7233 12.4149 28.3033 12.4149H32.28C32.8567 12.4149 33.325 12.8933 33.325 13.4716C33.325 14.0566 32.8567 14.5283 32.275 14.5283H29.35V16.4149H32.275Z" fill="#4CAF50"/>
</g>
<defs>
<clipPath id="clip0">
<rect width="40" height="40" fill="white"/>
</clipPath>
</defs>
</svg>
