<svg width="400" height="300" viewBox="0 0 400 300" fill="none" xmlns="http://www.w3.org/2000/svg">
<path opacity="0.45" d="M202.51 263.93C300.656 263.93 380.22 256.829 380.22 248.07C380.22 239.311 300.656 232.21 202.51 232.21C104.363 232.21 24.7998 239.311 24.7998 248.07C24.7998 256.829 104.363 263.93 202.51 263.93Z" fill="#E6E6E6"/>
<path d="M99.82 203.27H40.29V246.42H99.82V203.27Z" fill="#E6E6E6"/>
<path opacity="0.45" d="M106.11 167.25H56.6299V203.11H106.11V167.25Z" fill="#E6E6E6"/>
<path d="M343.89 172.88H334.81V170.88H343.89C344.207 170.881 344.521 170.82 344.815 170.699C345.108 170.579 345.375 170.402 345.6 170.178C345.825 169.954 346.003 169.688 346.125 169.395C346.247 169.102 346.31 168.787 346.31 168.47V162C346.31 161.358 346.055 160.743 345.601 160.289C345.147 159.835 344.531 159.58 343.89 159.58H334.81V157.58H343.89C345.062 157.58 346.186 158.046 347.015 158.875C347.844 159.704 348.31 160.828 348.31 162V168.5C348.299 169.665 347.829 170.779 347.001 171.6C346.173 172.42 345.055 172.88 343.89 172.88Z" fill="#FFD200"/>
<path opacity="0.46" d="M343.89 172.88H334.81V170.88H343.89C344.207 170.881 344.521 170.82 344.815 170.699C345.108 170.579 345.375 170.402 345.6 170.178C345.825 169.954 346.003 169.688 346.125 169.395C346.247 169.102 346.31 168.787 346.31 168.47V162C346.31 161.358 346.055 160.743 345.601 160.289C345.147 159.835 344.531 159.58 343.89 159.58H334.81V157.58H343.89C345.062 157.58 346.186 158.046 347.015 158.875C347.844 159.704 348.31 160.828 348.31 162V168.5C348.299 169.665 347.829 170.779 347.001 171.6C346.173 172.42 345.055 172.88 343.89 172.88Z" fill="white"/>
<path d="M346.86 220.42H315.11V224.5H346.86V220.42Z" fill="#ADADAD"/>
<path d="M95.7296 219.86L91.8496 246.43H101.33L107.8 219.86H95.7296Z" fill="#C9C9C9"/>
<path d="M273.79 219.86L277.67 246.43H268.19L261.72 219.86H273.79Z" fill="#C9C9C9"/>
<path d="M76.8799 197.44L79.4499 211.05C80.2726 215.413 82.5935 219.352 86.0115 222.185C89.4295 225.019 93.73 226.57 98.1699 226.57H270.86C276.478 226.568 281.937 224.702 286.38 221.263C290.823 217.825 293.999 213.008 295.41 207.57L298.06 197.41L76.8799 197.44Z" fill="#ADADAD"/>
<path d="M85.06 186.49L78.68 191.19C77.7794 191.857 77.1108 192.789 76.7685 193.856C76.4262 194.923 76.4275 196.07 76.7721 197.136C77.1168 198.202 77.7875 199.133 78.6896 199.798C79.5917 200.462 80.6797 200.827 81.8 200.84L291.1 203.1C292.481 203.12 293.838 202.732 294.999 201.983C296.159 201.234 297.073 200.158 297.623 198.891C298.174 197.624 298.337 196.222 298.093 194.863C297.849 193.503 297.207 192.246 296.25 191.25L291.72 186.49H85.06Z" fill="#C9C9C9"/>
<path d="M85.0601 186.49C85.0601 186.49 63.3301 117.09 112 112.78C151.82 109.25 242.23 111.5 273.68 112.43C284.11 112.74 293.59 118.79 297.68 128.16C302.6 139.43 304.36 157.86 291.78 186.49H85.0601Z" fill="#E6E6E6"/>
<path d="M134 230.08C134 230.08 134.61 233.7 132 235.45C129.39 237.2 130.19 240.26 133 239.59C135.81 238.92 140.39 232.24 140.39 232.24L138.01 228.41L134 230.08Z" fill="#68E1FD"/>
<path d="M76.4998 85.48C89.9811 85.48 100.91 74.5513 100.91 61.07C100.91 47.5888 89.9811 36.66 76.4998 36.66C63.0186 36.66 52.0898 47.5888 52.0898 61.07C52.0898 74.5513 63.0186 85.48 76.4998 85.48Z" fill="#E6E6E6"/>
<path d="M76.5003 77.5C85.5744 77.5 92.9303 70.1441 92.9303 61.07C92.9303 51.996 85.5744 44.64 76.5003 44.64C67.4263 44.64 60.0703 51.996 60.0703 61.07C60.0703 70.1441 67.4263 77.5 76.5003 77.5Z" fill="#F2F2F2"/>
<path d="M76.5 49.7V61.07L81.04 64.9199" stroke="#A5A5A5" stroke-width="2" stroke-linecap="round" stroke-linejoin="round"/>
<path d="M179.52 96.7501C179.52 96.7501 137.23 92.2701 138.83 114.63C140.43 136.99 164.13 184.63 164.13 184.63H216.05C216.05 184.63 262.68 123.27 243.51 103.83C224.34 84.3901 212.75 102 179.52 96.7501Z" fill="#68E1FD"/>
<path d="M180 98.62C180 98.62 174.54 113.5 183.88 116.51C193.22 119.52 198.39 107.71 195.8 101.51C193.21 95.31 180 98.62 180 98.62Z" fill="#F4A28C"/>
<path opacity="0.08" d="M164.46 126.33C164.46 126.33 159.31 168.7 185.64 172.88C211.97 177.06 224.13 173.15 224.13 173.15L216.05 184.67L163.39 183.16C163.39 183.16 147.45 148.31 146.62 144.16C145.79 140.01 164.46 126.33 164.46 126.33Z" fill="black"/>
<path opacity="0.08" d="M180 98.62C180 98.62 174.54 113.5 183.88 116.51C193.22 119.52 198.39 107.71 195.8 101.51C193.21 95.31 180 98.62 180 98.62Z" fill="black"/>
<path d="M181 97.08C181.295 98.9647 181.485 100.864 181.57 102.77C181.65 105.39 182.49 109.27 186.62 110.04C192.98 111.22 194.62 101.15 194.62 101.15C194.62 101.15 198.62 91.71 191.74 90.42C185.59 89.25 179.73 88.42 181 97.08Z" fill="#F4A28C"/>
<path d="M194.28 101.56C194.28 101.56 194.64 98.5 197.28 98.63C199.92 98.76 198.93 104.47 194.28 101.56Z" fill="#F4A28C"/>
<path d="M182.53 99.85C182.53 99.85 183.47 96.92 180.99 95.93C178.51 94.94 177.1 100.58 182.53 99.85Z" fill="#F4A28C"/>
<path d="M165.82 111.88C164.707 109.576 163.127 107.529 161.179 105.869C159.232 104.208 156.961 102.972 154.51 102.237C152.059 101.503 149.481 101.286 146.942 101.602C144.403 101.917 141.957 102.758 139.76 104.07C127.06 111.57 111.51 127.69 112.53 161.46C114.02 210.22 182.71 176.54 182.71 176.54L180.15 169.23C180.15 169.23 129.28 185.16 138.79 157.16C146.75 133.7 175.24 131.9 165.82 111.88Z" fill="#F4A28C"/>
<path d="M165.79 183.17L216.05 184.67C216.05 184.67 251.48 187.96 251.91 200.67C252.25 210.72 209.46 204.87 191.56 201.99C182.652 200.512 173.553 200.638 164.69 202.36C150.69 205.14 136.45 200.89 140.26 229.43L132.78 231.26C132.78 231.26 113.07 182.68 165.79 183.17Z" fill="#24285B"/>
<path d="M205.12 166.06H187.12C185.508 166.06 184.2 167.367 184.2 168.98V172.76C184.2 174.373 185.508 175.68 187.12 175.68H205.12C206.733 175.68 208.04 174.373 208.04 172.76V168.98C208.04 167.367 206.733 166.06 205.12 166.06Z" fill="#FFD200"/>
<path d="M180.15 169.23C180.15 169.23 182.4 161.75 184.91 161.68C187.42 161.61 191.15 161.54 190.54 164.34C189.93 167.14 185.27 165.72 185.78 167.64C186.29 169.56 191.45 168.79 194.03 170.73C196.61 172.67 197.03 177.91 182.71 176.54L180.15 169.23Z" fill="#F4A28C"/>
<path d="M213.51 110.25C214.064 107.754 215.131 105.4 216.644 103.338C218.156 101.276 220.08 99.5507 222.295 98.2719C224.509 96.9931 226.965 96.1886 229.507 95.9094C232.049 95.6302 234.621 95.8824 237.06 96.65C251.15 101.03 270 113.13 276.78 146.23C286.57 194 212 177.07 212 177.07L212.8 169.36C212.8 169.36 265.97 173.15 250.27 148.09C237.09 127.1 209 131.91 213.51 110.25Z" fill="#F4A28C"/>
<path d="M212.77 169.36C212.77 169.36 208.86 162.6 206.4 163.11C203.94 163.62 200.3 164.41 201.53 167C202.76 169.59 206.98 167.13 206.93 169.11C206.88 171.09 201.67 171.54 199.6 174.02C197.53 176.5 198.36 181.69 211.97 177.02L212.77 169.36Z" fill="#F4A28C"/>
<path d="M191.81 197.44C191.81 197.44 183.41 205.19 186.21 208.44C189.01 211.69 194.28 202.44 194.28 202.44L191.81 197.44Z" fill="#68E1FD"/>
<path d="M313.79 184.67L309.79 246.43H313.79L322.29 184.67H313.79Z" fill="#C9C9C9"/>
<path d="M346.79 184.67L350.79 246.43H346.79L338.29 184.67H346.79Z" fill="#C9C9C9"/>
<path d="M350.79 176.77H309.79V186.49H350.79V176.77Z" fill="#E6E6E6"/>
<path d="M339.97 153H322.29V176.77H339.97V153Z" fill="#FFD200"/>
<path opacity="0.08" d="M331.35 170.42C334.271 170.42 336.64 167.77 336.64 164.5C336.64 161.23 334.271 158.58 331.35 158.58C328.428 158.58 326.06 161.23 326.06 164.5C326.06 167.77 328.428 170.42 331.35 170.42Z" fill="black"/>
<path d="M325 153C325 153 322.5 144.67 329.16 143.83C335.82 142.99 345 144.67 341.58 134.67C338.16 124.67 333.66 126.83 338.66 115.5C343.66 104.17 356.83 124.33 361.66 113.67C366.49 103.01 373.16 106.67 379.83 111.92C386.5 117.17 387.83 133.5 374.66 136C361.49 138.5 358.83 141.35 356.16 148.68C353.49 156.01 340 153 340 153H325Z" fill="#E6E6E6"/>
<path d="M178.45 93.08C178.45 93.08 174.89 84.62 182.45 82.08C182.45 82.08 179.45 84.08 180.94 92.99L178.45 93.08Z" fill="#FFD200"/>
<path d="M198.32 96.77C198.32 96.77 202.32 85.69 192.82 81.83C192.82 81.83 199.17 86.75 195.82 96.43L198.32 96.77Z" fill="#FFD200"/>
<path opacity="0.08" d="M178.45 93.08C178.45 93.08 174.89 84.62 182.45 82.08C182.45 82.08 179.45 84.08 180.94 92.99L178.45 93.08Z" fill="black"/>
<path opacity="0.08" d="M198.32 96.77C198.32 96.77 202.32 85.69 192.82 81.83C192.82 81.83 199.17 86.75 195.82 96.43L198.32 96.77Z" fill="black"/>
<path d="M181 93.88C181 93.88 186.19 94.88 189.6 91.04C189.6 91.04 193.16 97.11 195.67 97.28C195.67 97.28 197.44 93.12 197.36 90.5C197.28 87.88 200.31 87.58 199.19 84.37C198.07 81.16 195.36 80.37 192.84 81.83C192.84 81.83 194.15 79.42 191.73 78.92C189.31 78.42 182.43 82 182.43 82C182.43 82 178.64 84.63 181 93.88Z" fill="#24285B"/>
<path d="M195.79 103.25C195.79 103.25 194.29 108.79 189.04 107.36V106C189.04 106 192.77 107.52 194.49 102.38L195.79 103.25Z" fill="#FFD200"/>
<path d="M176.27 93.81C175.5 96.54 175.35 100.81 181.5 101.48L180.92 93C180.895 92.6065 180.72 92.2374 180.432 91.9681C180.144 91.6987 179.764 91.5492 179.37 91.55C178.679 91.5427 178.004 91.7587 177.445 92.1659C176.887 92.5731 176.475 93.1497 176.27 93.81Z" fill="#FFD200"/>
<path d="M200.48 97.26C200.81 100.07 200.3 104.26 194.12 104.02L196.02 95.68C196.109 95.298 196.338 94.9634 196.662 94.7429C196.987 94.5224 197.382 94.4321 197.77 94.49C198.461 94.595 199.1 94.922 199.588 95.4217C200.077 95.9214 200.39 96.5667 200.48 97.26Z" fill="#FFD200"/>
<path d="M188.24 108.13C189.107 108.13 189.81 107.427 189.81 106.56C189.81 105.693 189.107 104.99 188.24 104.99C187.373 104.99 186.67 105.693 186.67 106.56C186.67 107.427 187.373 108.13 188.24 108.13Z" fill="#FFD200"/>
<path opacity="0.46" d="M188.24 108.13C189.107 108.13 189.81 107.427 189.81 106.56C189.81 105.693 189.107 104.99 188.24 104.99C187.373 104.99 186.67 105.693 186.67 106.56C186.67 107.427 187.373 108.13 188.24 108.13Z" fill="white"/>
<path d="M241.37 72.38C259.778 72.38 274.7 59.9604 274.7 44.64C274.7 29.3196 259.778 16.9 241.37 16.9C222.962 16.9 208.04 29.3196 208.04 44.64C208.04 59.9604 222.962 72.38 241.37 72.38Z" fill="#24285B"/>
<path d="M218.13 57.3101L206.25 77.5001L225.79 63.0001L218.13 57.3101Z" fill="#24285B"/>
<path d="M228.24 48.75C230.51 48.75 232.35 46.9099 232.35 44.64C232.35 42.3701 230.51 40.53 228.24 40.53C225.97 40.53 224.13 42.3701 224.13 44.64C224.13 46.9099 225.97 48.75 228.24 48.75Z" fill="#68E1FD"/>
<path d="M241.45 48.75C243.72 48.75 245.56 46.9099 245.56 44.64C245.56 42.3701 243.72 40.53 241.45 40.53C239.18 40.53 237.34 42.3701 237.34 44.64C237.34 46.9099 239.18 48.75 241.45 48.75Z" fill="#68E1FD"/>
<path d="M254.5 48.75C256.77 48.75 258.61 46.9099 258.61 44.64C258.61 42.3701 256.77 40.53 254.5 40.53C252.23 40.53 250.39 42.3701 250.39 44.64C250.39 46.9099 252.23 48.75 254.5 48.75Z" fill="#68E1FD"/>
<path d="M218.173 168.705L213.167 168.329L212.386 178.72L217.392 179.096L218.173 168.705Z" fill="#68E1FD"/>
<path opacity="0.46" d="M218.173 168.705L213.167 168.329L212.386 178.72L217.392 179.096L218.173 168.705Z" fill="white"/>
</svg>
