<svg width="281" height="211" viewBox="0 0 281 211" fill="none" xmlns="http://www.w3.org/2000/svg">
<path d="M177.465 34.4141H97.2891V178.379H177.465V34.4141Z" fill="#C9C9C9"/>
<path d="M170.293 50.8298H103.928V152.145H170.293V50.8298Z" fill="white"/>
<path d="M84.4757 111.127C84.4757 111.127 65.6979 112.533 61.3705 132.529C57.0431 152.525 49.6177 162.245 34.5701 148.628L31.2754 152.961C31.2754 152.961 52.5049 178.633 71.4724 150.851C90.4399 123.069 84.4757 111.127 84.4757 111.127Z" fill="#68E1FD"/>
<path d="M84.4757 111.127C84.4757 111.127 65.6979 112.533 61.3705 132.529C57.0431 152.525 49.6177 162.245 34.5701 148.628L31.2754 152.961C31.2754 152.961 52.5049 178.633 71.4724 150.851C90.4399 123.069 84.4757 111.127 84.4757 111.127Z" fill="#DDDDDD"/>
<path opacity="0.45" d="M133.356 188.852C193.365 188.852 242.012 184.573 242.012 179.294C242.012 174.015 193.365 169.735 133.356 169.735C73.347 169.735 24.7002 174.015 24.7002 179.294C24.7002 184.573 73.347 188.852 133.356 188.852Z" fill="#E6E6E6"/>
<path d="M217.136 167.71H176.637V178.387H217.136V167.71Z" fill="#E6E6E6"/>
<path opacity="0.43" d="M208.284 157.265H167.785V167.942H208.284V157.265Z" fill="#E6E6E6"/>
<path opacity="0.08" d="M103.97 104.093C103.97 104.093 111.978 103.116 110.995 110.761C110.011 118.406 108.185 124.188 115.912 125.158C123.64 126.129 143.689 143.522 141.09 159.108C138.491 174.694 133.503 178.379 133.503 178.379H97.2891L103.97 104.093Z" fill="black"/>
<path opacity="0.58" d="M190.118 149.676C190.118 149.676 184.133 148.038 182.833 142.467C182.833 142.467 192.099 140.589 192.366 150.169L190.118 149.676Z" fill="#C0C0C0"/>
<path opacity="0.73" d="M190.848 149.107C190.848 149.107 186.668 142.495 190.349 136.306C190.349 136.306 197.374 140.793 194.262 149.121L190.848 149.107Z" fill="#C0C0C0"/>
<path d="M191.93 149.107C191.93 149.107 194.136 142.123 200.809 140.8C200.809 140.8 202.06 145.337 196.489 149.128L191.93 149.107Z" fill="#C0C0C0"/>
<path d="M187.589 148.931L188.804 157.237L196.44 157.265L197.564 148.973L187.589 148.931Z" fill="#A5A5A5"/>
<path d="M24.8262 110.121V119.96H31.1768L32.5607 123.878L34.2045 119.96H40.5551V110.121H24.8262Z" fill="#E6E6E6"/>
<path d="M28.7669 115.825C29.3333 115.825 29.7925 115.365 29.7925 114.798C29.7925 114.231 29.3333 113.771 28.7669 113.771C28.2004 113.771 27.7412 114.231 27.7412 114.798C27.7412 115.365 28.2004 115.825 28.7669 115.825Z" fill="#A5A5A5"/>
<path d="M32.6868 115.825C33.2532 115.825 33.7124 115.365 33.7124 114.798C33.7124 114.231 33.2532 113.771 32.6868 113.771C32.1203 113.771 31.6611 114.231 31.6611 114.798C31.6611 115.365 32.1203 115.825 32.6868 115.825Z" fill="#A5A5A5"/>
<path d="M36.5794 115.825C37.1458 115.825 37.605 115.365 37.605 114.798C37.605 114.231 37.1458 113.771 36.5794 113.771C36.0129 113.771 35.5537 114.231 35.5537 114.798C35.5537 115.365 36.0129 115.825 36.5794 115.825Z" fill="#A5A5A5"/>
<path opacity="0.56" d="M137.619 172.978C141.953 172.978 145.466 169.46 145.466 165.122C145.466 160.783 141.953 157.265 137.619 157.265C133.286 157.265 129.772 160.783 129.772 165.122C129.772 169.46 133.286 172.978 137.619 172.978Z" fill="white"/>
<path opacity="0.12" d="M153.075 40.0408H130.595V43.3253H153.075V40.0408Z" fill="black"/>
<path d="M122.453 45.7096C124.474 45.7096 126.113 44.069 126.113 42.0452C126.113 40.0215 124.474 38.3809 122.453 38.3809C120.432 38.3809 118.793 40.0215 118.793 42.0452C118.793 44.069 120.432 45.7096 122.453 45.7096Z" fill="white"/>
<path opacity="0.02" d="M147.005 86.7139C149.101 86.7139 150.799 85.0135 150.799 82.9159C150.799 80.8183 149.101 79.1179 147.005 79.1179C144.91 79.1179 143.212 80.8183 143.212 82.9159C143.212 85.0135 144.91 86.7139 147.005 86.7139Z" fill="#A5A5A5"/>
<path opacity="0.36" d="M127.827 105.915C129.922 105.915 131.62 104.215 131.62 102.117C131.62 100.019 129.922 98.319 127.827 98.319C125.732 98.319 124.033 100.019 124.033 102.117C124.033 104.215 125.732 105.915 127.827 105.915Z" fill="#A5A5A5"/>
<path opacity="0.16" d="M147.005 105.915C149.101 105.915 150.799 104.215 150.799 102.117C150.799 100.019 149.101 98.319 147.005 98.319C144.91 98.319 143.212 100.019 143.212 102.117C143.212 104.215 144.91 105.915 147.005 105.915Z" fill="#A5A5A5"/>
<path opacity="0.84" d="M127.827 86.7139C129.922 86.7139 131.62 85.0135 131.62 82.9159C131.62 80.8183 129.922 79.1179 127.827 79.1179C125.732 79.1179 124.033 80.8183 124.033 82.9159C124.033 85.0135 125.732 86.7139 127.827 86.7139Z" fill="#A5A5A5"/>
<path opacity="0.23" d="M137.29 110.388C139.385 110.388 141.083 108.688 141.083 106.59C141.083 104.493 139.385 102.792 137.29 102.792C135.194 102.792 133.496 104.493 133.496 106.59C133.496 108.688 135.194 110.388 137.29 110.388Z" fill="#A5A5A5"/>
<path d="M137.29 83.2254C139.385 83.2254 141.083 81.525 141.083 79.4274C141.083 77.3298 139.385 75.6294 137.29 75.6294C135.194 75.6294 133.496 77.3298 133.496 79.4274C133.496 81.525 135.194 83.2254 137.29 83.2254Z" fill="#A5A5A5"/>
<path opacity="0.52" d="M123.542 96.624C125.637 96.624 127.335 94.9235 127.335 92.8259C127.335 90.7284 125.637 89.028 123.542 89.028C121.446 89.028 119.748 90.7284 119.748 92.8259C119.748 94.9235 121.446 96.624 123.542 96.624Z" fill="#A5A5A5"/>
<path opacity="0.09" d="M150.672 96.624C152.767 96.624 154.466 94.9235 154.466 92.8259C154.466 90.7284 152.767 89.028 150.672 89.028C148.577 89.028 146.879 90.7284 146.879 92.8259C146.879 94.9235 148.577 96.624 150.672 96.624Z" fill="#A5A5A5"/>
<path opacity="0.35" d="M158.07 124.961H116.151V135.04H158.07V124.961Z" fill="#D5D5D5"/>
<path d="M144.069 124.961H116.151V135.04H144.069V124.961Z" fill="#C8C8C8"/>
<path d="M101.954 114.299C101.954 114.299 88.2273 104.951 73.3273 116.409C58.4273 127.866 73.3273 168.019 73.3273 168.019L105.642 169.095C105.642 169.095 139.798 138.613 101.954 114.299Z" fill="#C0C0C0"/>
<path d="M115.913 127.303C115.913 127.303 135.955 154.382 121.533 160.184H109.071C109.071 160.184 96.3414 123.829 115.913 127.303Z" fill="#B1B1B1"/>
<path opacity="0.08" d="M117.381 160.149L111.543 136.081L109.808 132.445L105.593 127.866H99.2143C99.2143 127.866 96.4043 131.263 100.212 133.556C104.019 135.849 103.879 136.06 103.254 141.194V141.349C102.664 146.24 100.753 150.878 97.7265 154.764C94.7 158.649 90.6726 161.634 86.0776 163.398L74.0508 168.005C74.0508 168.005 116.678 184.344 117.381 160.149Z" fill="black"/>
<path d="M100.95 113.659C100.95 113.659 99.2497 121.395 96.0322 121.009C92.8148 120.622 93.2222 118.659 93.2222 118.659C93.2222 118.659 90.1031 119.405 89.7097 116.781C89.3163 114.158 91.768 111.26 94.3251 110.972C96.8822 110.684 100.95 113.659 100.95 113.659Z" fill="white"/>
<path d="M99.9795 115.023C99.3406 115.612 98.7377 116.239 98.1741 116.901C97.4013 117.815 96.0033 118.969 94.3103 118.083C91.704 116.676 93.938 112.618 93.938 112.618C93.938 112.618 95.1603 108.102 97.9984 109.586C100.548 110.916 102.881 112.273 99.9795 115.023Z" fill="#B7B7B7"/>
<path d="M93.9661 112.871C93.9661 112.871 94.6686 111.675 93.7062 110.965C92.7437 110.255 91.4792 112.604 93.9661 112.871Z" fill="#B7B7B7"/>
<path d="M98.6523 115.579C98.6523 115.579 99.1441 114.263 100.31 114.608C101.476 114.953 100.395 117.379 98.6523 115.579Z" fill="#B7B7B7"/>
<path d="M99.9793 115.023C99.9793 115.023 104.089 117.407 104.581 113.384C105.072 109.361 103.098 111.113 103.976 108.384C104.855 105.655 104.475 104.705 102.621 104.698C100.766 104.691 100.394 107.455 99.1082 105.563C97.8226 103.671 97.0007 102.244 95.5465 103.418C94.0923 104.593 93.8745 105.528 94.6051 106.935C95.3357 108.341 92.0621 108.862 94.2398 111.858C96.4176 114.854 100.288 112.941 100.288 112.941L99.9793 115.023Z" fill="#2C2C2C"/>
<path d="M116.615 159.038C117.686 159.74 118.937 160.116 120.218 160.121C121.498 160.126 122.752 159.759 123.828 159.064C124.904 158.369 125.755 157.377 126.279 156.208C126.803 155.039 126.977 153.742 126.78 152.476C126.431 150.445 125.624 148.52 124.42 146.849C119.179 139.26 109.969 126.6 109.969 126.6C109.969 126.6 101.659 121.212 99.0315 125.264C96.4042 129.315 106.253 129.842 106.253 129.842C106.253 129.842 106.45 152.265 116.615 159.038Z" fill="#B7B7B7"/>
<path d="M109.969 126.6L106.253 129.842C106.253 129.842 106.864 160.247 120.64 160.198C120.64 160.198 129.878 160.515 126.892 149.648C123.907 138.782 120.781 140.568 109.969 126.6Z" fill="#68E1FD"/>
<path d="M109.969 126.6L106.253 129.842C106.253 129.842 106.864 160.247 120.64 160.198C120.64 160.198 129.878 160.515 126.892 149.648C123.907 138.782 120.781 140.568 109.969 126.6Z" fill="#DDDDDD"/>
<path d="M74.0505 168.005C84.7504 168.311 95.3915 166.316 105.256 162.154C111.262 159.657 118.385 157.891 123.837 160.149C135.379 164.932 126.176 183.711 96.5586 179.174L69.2032 177.943C69.2032 177.943 52.0974 177.943 50.2357 174.174C47.9737 169.574 51.4792 166.092 73.3269 167.991L74.0505 168.005Z" fill="#2C2C2C"/>
<path d="M34.1555 148.882C34.1555 148.882 31.6827 142.65 29.1186 143.747C26.5545 144.844 31.6336 152.187 31.6336 152.187L34.1555 148.882Z" fill="#B7B7B7"/>
<path d="M33.7093 135.036L27.6055 137.163L31.6718 148.861L37.7757 146.734L33.7093 135.036Z" fill="#C8C8C8"/>
<path d="M98.8205 174.167C98.8205 174.167 86.0772 175.89 89.1541 178.837C92.2311 181.784 99.7549 179.582 99.7549 179.582L98.8205 174.167Z" fill="#C0C0C0"/>
<path d="M75.168 178.203L75.73 174.251C75.73 174.251 83.6963 174.68 82.4599 177.268C81.2235 179.856 75.168 178.203 75.168 178.203Z" fill="#C0C0C0"/>
<path d="M207.737 24.8347H163.423V59.2488H207.737V24.8347Z" fill="#C8C8C8"/>
<path opacity="0.08" d="M177.564 59.2488H163.423V71.2969H177.564V59.2488Z" fill="black"/>
<path d="M186.423 52.5179C191.913 52.5179 196.363 48.0621 196.363 42.5657C196.363 37.0693 191.913 32.6135 186.423 32.6135C180.933 32.6135 176.482 37.0693 176.482 42.5657C176.482 48.0621 180.933 52.5179 186.423 52.5179Z" fill="white" stroke="#A5A5A5" stroke-width="2" stroke-miterlimit="10"/>
<path d="M187.462 37.7408V43.691H183.689" stroke="#A5A5A5" stroke-width="2" stroke-linecap="round" stroke-linejoin="round"/>
</svg>
