<svg width="400" height="300" viewBox="0 0 400 300" fill="none" xmlns="http://www.w3.org/2000/svg">
<path d="M235.71 40.41H209.53V44.55H235.71V40.41Z" fill="#E6E6E6"/>
<path d="M235.71 36.25H215.91V40.39H235.71V36.25Z" fill="#C9C9C9"/>
<path opacity="0.45" d="M199.6 281.56C275.064 281.56 336.24 272.762 336.24 261.91C336.24 251.058 275.064 242.26 199.6 242.26C124.136 242.26 62.96 251.058 62.96 261.91C62.96 272.762 124.136 281.56 199.6 281.56Z" fill="#E6E6E6"/>
<path d="M264.09 77.1899V95.5599H275.96L278.55 102.87L281.62 95.5599H293.49V77.1899H264.09Z" fill="#E6E6E6"/>
<path opacity="0.12" d="M277.31 90.48C277.177 90.4746 277.046 90.4406 276.927 90.3802C276.808 90.3198 276.704 90.2345 276.62 90.13L273.52 86.13C273.445 86.0361 273.39 85.9281 273.357 85.8124C273.324 85.6966 273.315 85.5755 273.33 85.4562C273.345 85.3369 273.384 85.2218 273.444 85.1177C273.504 85.0135 273.584 84.9225 273.68 84.85C273.775 84.7746 273.884 84.7189 274 84.6861C274.117 84.6533 274.239 84.6441 274.359 84.659C274.479 84.6739 274.595 84.7126 274.7 84.7729C274.805 84.8332 274.897 84.9138 274.97 85.01L277.41 88.15L283.41 81.65C283.494 81.5638 283.595 81.4953 283.705 81.4486C283.816 81.4018 283.935 81.3777 284.055 81.3777C284.176 81.3777 284.295 81.4018 284.405 81.4486C284.516 81.4953 284.617 81.5638 284.7 81.65C284.79 81.7314 284.863 81.8298 284.914 81.9396C284.965 82.0495 284.994 82.1684 284.999 82.2895C285.003 82.4106 284.984 82.5314 284.941 82.6448C284.899 82.7582 284.834 82.862 284.75 82.95L278 90.18C277.913 90.2763 277.807 90.3529 277.688 90.4047C277.569 90.4564 277.44 90.4821 277.31 90.48Z" fill="black"/>
<path d="M105.59 81.46V99.83H117.46L120.06 107.14L123.13 99.83H135V81.46H105.59Z" fill="#E6E6E6"/>
<path opacity="0.12" d="M118.81 94.75C118.677 94.7446 118.546 94.7105 118.427 94.6501C118.308 94.5897 118.204 94.5044 118.12 94.4L115.02 90.4C114.883 90.2068 114.825 89.968 114.859 89.7333C114.893 89.4986 115.017 89.2862 115.204 89.1404C115.391 88.9946 115.627 88.9267 115.863 88.9508C116.099 88.975 116.317 89.0893 116.47 89.27L118.91 92.41L124.91 85.91C124.995 85.8235 125.096 85.7548 125.208 85.7079C125.32 85.661 125.439 85.6368 125.56 85.6368C125.681 85.6368 125.801 85.661 125.913 85.7079C126.025 85.7548 126.126 85.8235 126.21 85.91C126.38 86.0837 126.475 86.317 126.475 86.56C126.475 86.8029 126.38 87.0362 126.21 87.21L119.45 94.5C119.366 94.582 119.265 94.6463 119.156 94.6892C119.046 94.7322 118.928 94.7528 118.81 94.75Z" fill="black"/>
<path d="M259.85 44.5699H140.15V259.24H259.85V44.5699Z" fill="#C9C9C9"/>
<path d="M249.13 69.04H150.05V220.12H249.13V69.04Z" fill="white"/>
<path opacity="0.56" d="M200.36 251.18C206.828 251.18 212.07 245.937 212.07 239.47C212.07 233.003 206.828 227.76 200.36 227.76C193.893 227.76 188.65 233.003 188.65 239.47C188.65 245.937 193.893 251.18 200.36 251.18Z" fill="white"/>
<path opacity="0.12" d="M223.43 52.96H189.87V57.85H223.43V52.96Z" fill="black"/>
<path d="M177.72 61.41C180.741 61.41 183.19 58.961 183.19 55.94C183.19 52.919 180.741 50.47 177.72 50.47C174.699 50.47 172.25 52.919 172.25 55.94C172.25 58.961 174.699 61.41 177.72 61.41Z" fill="white"/>
<path d="M273.33 122.13C273.04 124.294 273.04 126.486 273.33 128.65C273.443 129.16 273.751 129.606 274.188 129.892C274.626 130.178 275.157 130.281 275.67 130.18C276.499 130.056 277.275 129.696 277.904 129.143C278.534 128.589 278.991 127.866 279.22 127.06L280.54 123.68C280.732 122.977 280.703 122.232 280.456 121.547C280.209 120.861 279.756 120.269 279.16 119.85C277.05 118.17 273.52 119.75 273.33 122.13Z" fill="#F4A28C"/>
<path opacity="0.08" d="M140 190.64L140.52 201.5L151.02 199.32L155.49 180.38C156.332 176.808 158.26 173.584 161.008 171.152C163.757 168.721 167.192 167.2 170.84 166.8C178.84 165.93 188.76 165.11 195.09 165.55C207.02 166.38 232.22 163.55 240.69 170.79C249.16 178.03 250.05 197.55 259.87 204.71V191.12L257 154.55L246.17 150.86L207.83 156.55L203.74 157.25L199.5 159.55L190.5 155.05L138.67 152.88L140 190.64Z" fill="black"/>
<path d="M280.33 124.3L281.79 137.07L274.69 137.37L276.48 127.95L280.33 124.3Z" fill="#F4A28C"/>
<path d="M127.71 137.51L195.07 152.77L193.84 158.5C193.84 158.5 160.16 157.65 134.99 162.5C109.82 167.35 127.71 137.51 127.71 137.51Z" fill="#68E1FD"/>
<path opacity="0.08" d="M127.71 137.51L195.07 152.77L193.84 158.5C193.84 158.5 160.16 157.65 134.99 162.5C109.82 167.35 127.71 137.51 127.71 137.51Z" fill="black"/>
<path d="M273.13 124.6L272 126.06C271.938 126.144 271.897 126.242 271.881 126.345C271.866 126.449 271.875 126.554 271.91 126.653C271.945 126.751 272.003 126.84 272.079 126.911C272.156 126.982 272.249 127.033 272.35 127.06L273.84 127.41L273.13 124.6Z" fill="#F4A28C"/>
<path d="M271.84 137.51L204.75 154L206.55 157.64C206.55 157.64 239.38 157.64 264.55 162.44C289.72 167.24 271.84 137.51 271.84 137.51Z" fill="#F4A28C"/>
<path opacity="0.31" d="M276 130C276.891 129.816 277.708 129.375 278.35 128.73C278.002 130.557 276.972 132.184 275.47 133.28L276 130Z" fill="#CE8172"/>
<path d="M241.38 159.36L243.1 144.59L266.81 138.49L269.52 163C259.989 163.737 250.409 162.498 241.38 159.36Z" fill="#68E1FD"/>
<path opacity="0.08" d="M241.38 159.36L243.1 144.59L266.81 138.49L269.52 163C259.989 163.737 250.409 162.498 241.38 159.36Z" fill="black"/>
<path d="M266.81 138.49C266.81 138.49 297.25 131.68 308.15 137.79C319.05 143.9 297.65 201.5 297.65 201.5L264.05 200.44C264.05 200.44 234.64 144.34 266.81 138.49Z" fill="#68E1FD"/>
<path d="M273.61 255.59C273.61 255.59 272.04 258.41 269.3 258.2C266.56 257.99 265.42 260.52 267.74 261.6C270.06 262.68 276.85 260.6 276.85 260.6L277.43 255.6L273.61 255.59Z" fill="#68E1FD"/>
<path d="M298.23 255C298.23 255 299.35 258 302.09 258.24C304.83 258.48 305.57 261.13 303.09 261.84C300.61 262.55 294.25 259.44 294.25 259.44L294.43 254.44L298.23 255Z" fill="#68E1FD"/>
<path d="M264.05 200.44L272.64 255.59H278.26C278.26 255.59 273.06 214.11 282.15 209.11C291.24 204.11 293 255.59 293 255.59L299 255.11L298.93 198.25L264.05 200.44Z" fill="#24285B"/>
<path d="M126.21 122.13C126.506 124.293 126.506 126.487 126.21 128.65C126.097 129.16 125.789 129.606 125.352 129.892C124.915 130.178 124.383 130.281 123.87 130.18C123.042 130.058 122.266 129.698 121.638 129.145C121.009 128.591 120.555 127.867 120.33 127.06L119 123.68C118.808 122.976 118.838 122.23 119.087 121.544C119.336 120.858 119.791 120.266 120.39 119.85C122.5 118.17 126 119.75 126.21 122.13Z" fill="#F4A28C"/>
<path d="M119.21 124.3L117.76 137.07L124.86 137.37L123.06 127.95L119.21 124.3Z" fill="#F4A28C"/>
<path d="M126.41 124.6L127.57 126.06C127.635 126.143 127.678 126.241 127.695 126.345C127.712 126.449 127.703 126.556 127.668 126.655C127.633 126.755 127.574 126.844 127.496 126.915C127.418 126.985 127.323 127.035 127.22 127.06L125.73 127.41L126.41 124.6Z" fill="#F4A28C"/>
<path opacity="0.31" d="M123.54 130C122.65 129.816 121.832 129.375 121.19 128.73C121.54 130.559 122.573 132.186 124.08 133.28L123.54 130Z" fill="#CE8172"/>
<path d="M132.73 138.49C132.73 138.49 102.29 131.68 91.3901 137.79C80.4901 143.9 101.89 201.5 101.89 201.5L135.5 200.44C135.5 200.44 164.9 144.34 132.73 138.49Z" fill="#68E1FD"/>
<path d="M125.94 255.59C125.94 255.59 127.5 258.41 130.24 258.2C132.98 257.99 134.13 260.52 131.8 261.6C129.47 262.68 122.7 260.6 122.7 260.6L122.12 255.6L125.94 255.59Z" fill="#68E1FD"/>
<path d="M101.31 255C101.31 255 100.2 258 97.4598 258.24C94.7198 258.48 93.9698 261.13 96.4598 261.84C98.9498 262.55 105.31 259.44 105.31 259.44L105.12 254.44L101.31 255Z" fill="#68E1FD"/>
<path opacity="0.08" d="M106.3 143.13C106.3 143.13 115.92 149.36 111.02 163.59C106.12 177.82 105.33 188.02 116.88 184.45C128.43 180.88 127.58 164.95 127.58 164.95L139.36 166.77L140.5 189.38L135.5 200.44L106.3 198.6L94.41 195.6L90 180.66L98.08 155.39L106.3 143.13Z" fill="black"/>
<path d="M135.5 200.44L126.9 255.59H121.28C121.28 255.59 126.49 214.11 117.4 209.11C108.31 204.11 106.52 255.59 106.52 255.59L100.52 255.11L100.58 198.25L135.5 200.44Z" fill="#24285B"/>
<path d="M100.37 136C100.37 136 81.4404 132.81 81.4404 162.6C81.4404 192.39 85.9904 218.91 129.69 192.34L126.37 187.27C126.37 187.27 102.83 197.63 97.8204 188.53C92.8104 179.43 117.48 141 100.37 136Z" fill="#68E1FD"/>
<path opacity="0.46" d="M100.37 136C100.37 136 81.4404 132.81 81.4404 162.6C81.4404 192.39 85.9904 218.91 129.69 192.34L126.37 187.27C126.37 187.27 102.83 197.63 97.8204 188.53C92.8104 179.43 117.48 141 100.37 136Z" fill="white"/>
<path d="M128.947 186.482L144.978 190.515L151.013 166.522L134.982 162.49L128.947 186.482Z" fill="#FFD200"/>
<path opacity="0.08" d="M297.14 144.59C297.14 144.59 289.83 150.39 294.27 163.01C298.71 175.63 294.5 197.01 281.79 199.32L298.92 198.25L307.6 169.57L297.14 144.59Z" fill="black"/>
<path d="M125.46 122.3C125.168 122.396 124.871 122.472 124.57 122.53C124.147 122.626 123.735 122.763 123.34 122.94L123.02 123.08C122.793 123.18 122.6 123.343 122.465 123.551C122.33 123.759 122.258 124.002 122.26 124.25C122.308 124.728 122.257 125.211 122.108 125.668C121.959 126.126 121.716 126.546 121.395 126.904C121.074 127.262 120.682 127.549 120.244 127.746C119.805 127.943 119.33 128.047 118.85 128.05C118.85 128.05 115.76 123.44 118.23 119.9C118.953 118.92 119.886 118.115 120.96 117.542C122.035 116.969 123.223 116.644 124.44 116.59C125.136 116.582 125.812 116.821 126.349 117.264C126.885 117.708 127.247 118.327 127.369 119.013C127.492 119.698 127.367 120.405 127.017 121.007C126.668 121.609 126.116 122.067 125.46 122.3Z" fill="#24285B"/>
<path d="M122.2 126.42C122.31 126.281 122.38 126.115 122.405 125.939C122.43 125.763 122.407 125.584 122.34 125.42C122.12 124.9 121.69 124.2 120.97 124.3C120.25 124.4 120.1 125.58 120.61 126.3C120.703 126.422 120.823 126.521 120.961 126.59C121.099 126.658 121.251 126.693 121.405 126.693C121.558 126.693 121.71 126.658 121.848 126.59C121.986 126.521 122.106 126.422 122.2 126.3V126.42Z" fill="#F4A28C"/>
<path d="M271.39 118.11C271.908 118.872 272.25 119.739 272.39 120.65C272.388 120.929 272.453 121.204 272.579 121.453C272.705 121.702 272.889 121.917 273.115 122.08C273.341 122.244 273.603 122.351 273.878 122.392C274.154 122.434 274.436 122.409 274.7 122.32C277.7 121.8 276.7 127.45 280.63 126.81C281.224 126.789 281.796 126.577 282.26 126.206C282.725 125.835 283.058 125.325 283.21 124.75C283.347 124.154 283.614 123.595 283.993 123.114C284.372 122.634 284.852 122.243 285.4 121.97C286.23 121.57 286.87 120.76 286.48 119.15C285.61 115.51 282.79 120.04 281.8 116.15C280.81 112.26 279.16 112.87 278.36 113.57C277.56 114.27 276.74 115.32 275.48 114.04C274.22 112.76 269.63 115.3 271.39 118.11Z" fill="#24285B"/>
<path d="M277.35 126.42C277.24 126.281 277.169 126.115 277.144 125.939C277.12 125.763 277.142 125.584 277.21 125.42C277.43 124.9 277.86 124.2 278.57 124.3C279.28 124.4 279.44 125.58 278.94 126.3C278.847 126.422 278.726 126.521 278.588 126.59C278.451 126.658 278.299 126.693 278.145 126.693C277.991 126.693 277.839 126.658 277.701 126.59C277.564 126.521 277.443 126.422 277.35 126.3V126.42Z" fill="#F4A28C"/>
<path d="M194.89 153.61L197.49 154.39C198.205 154.596 198.85 154.993 199.357 155.537C199.865 156.081 200.215 156.753 200.37 157.48C200.65 158.84 200.67 160.33 199.6 160.78C197.5 161.65 194.12 157.2 194.12 157.2L194.89 153.61Z" fill="#F4A28C"/>
<path d="M206.17 153.61L203.73 154.34C202.937 154.573 202.225 155.025 201.677 155.644C201.129 156.263 200.766 157.024 200.63 157.84C200.42 159.09 200.49 160.37 201.46 160.78C203.56 161.65 206.94 157.2 206.94 157.2L206.17 153.61Z" fill="#F4A28C"/>
<path d="M199.5 143.13C215.18 143.13 227.89 130.419 227.89 114.74C227.89 99.0606 215.18 86.35 199.5 86.35C183.821 86.35 171.11 99.0606 171.11 114.74C171.11 130.419 183.821 143.13 199.5 143.13Z" fill="#24285B"/>
<path d="M189.11 115.05L195.96 126.21L209.9 106.32" stroke="white" stroke-width="5" stroke-linecap="round" stroke-linejoin="round"/>
<path d="M305.21 136.47C311.64 137.03 319.79 142.61 325.35 163.75L305.85 170.75L297.55 146.42C297.147 145.243 297.042 143.985 297.244 142.758C297.445 141.531 297.948 140.373 298.707 139.387C299.466 138.402 300.456 137.62 301.591 137.111C302.726 136.602 303.969 136.382 305.21 136.47Z" fill="#68E1FD"/>
<path opacity="0.46" d="M305.21 136.47C311.64 137.03 319.79 142.61 325.35 163.75L305.85 170.75L297.55 146.42C297.147 145.243 297.042 143.985 297.244 142.758C297.445 141.531 297.948 140.373 298.707 139.387C299.466 138.402 300.456 137.62 301.591 137.111C302.726 136.602 303.969 136.382 305.21 136.47Z" fill="white"/>
<path d="M115.23 136.48C115.23 136.48 115.67 131.48 121.54 133.28C127.41 135.08 127.71 137.51 127.71 137.51L115.23 136.48Z" fill="#68E1FD"/>
<path opacity="0.46" d="M115.23 136.48C115.23 136.48 115.67 131.48 121.54 133.28C127.41 135.08 127.71 137.51 127.71 137.51L115.23 136.48Z" fill="white"/>
<path d="M324.3 163.75L328.82 179.84C329.888 183.65 329.445 187.726 327.582 191.217C325.719 194.708 322.58 197.346 318.82 198.58L305.14 202C304.399 202.179 303.718 202.551 303.167 203.078C302.616 203.605 302.213 204.268 302 205C301.58 206.45 300.86 208 299.67 207.91C294.74 207.47 299.44 200.46 299.44 200.46L312.8 192.12C314.448 191.089 315.65 189.478 316.168 187.605C316.687 185.731 316.484 183.731 315.6 182L309.23 169.62L324.3 163.75Z" fill="#F4A28C"/>
<path d="M222.79 174.79H177.72V195.55H222.79V174.79Z" fill="#FFD200"/>
<path opacity="0.34" d="M214.71 203.36H186.02V209.45H214.71V203.36Z" fill="#C9C9C9"/>
<path d="M127 188.27C127 188.27 130.21 183.4 133.23 185.86C136.25 188.32 128.87 191.12 128.87 191.12L127 188.27Z" fill="#F4A28C"/>
<path opacity="0.46" d="M218.29 178.26H194.26V183.42H218.29V178.26Z" fill="white"/>
<path opacity="0.58" d="M233.49 35.3C233.49 35.3 226.17 33.3 224.58 26.49C224.58 26.49 235.92 24.2 236.24 35.9L233.49 35.3Z" fill="#68E1FD"/>
<path opacity="0.73" d="M234.39 34.5701C234.39 34.5701 229.28 26.4901 233.78 18.9301C233.78 18.9301 242.4 24.4101 238.57 34.5901L234.39 34.5701Z" fill="#68E1FD"/>
<path d="M235.71 34.58C235.71 34.58 238.41 26.04 246.57 24.42C246.57 24.42 248.1 29.97 241.29 34.6L235.71 34.58Z" fill="#68E1FD"/>
<path d="M230.4 34.38L231.88 44.53L241.22 44.57L242.6 34.44L230.4 34.38Z" fill="#24285B"/>
</svg>
