<svg width="400" height="300" viewBox="0 0 400 300" fill="none" xmlns="http://www.w3.org/2000/svg">
<path d="M96.5098 92.89H27.5898V201.8H96.5098V92.89Z" fill="#E6E6E6"/>
<path d="M366.16 85.14H311.66V144.88H366.16V85.14Z" fill="#E6E6E6"/>
<path opacity="0.45" d="M202.31 266.45C275.443 266.45 334.73 259.452 334.73 250.82C334.73 242.188 275.443 235.19 202.31 235.19C129.176 235.19 69.8896 242.188 69.8896 250.82C69.8896 259.452 129.176 266.45 202.31 266.45Z" fill="#E6E6E6"/>
<path d="M323.16 231.86H256.82V249.32H323.16V231.86Z" fill="#E6E6E6"/>
<path opacity="0.43" d="M308.66 214.78H242.32V232.24H308.66V214.78Z" fill="#E6E6E6"/>
<path opacity="0.58" d="M99.4896 237C99.4896 237 89.6896 234.32 87.5596 225.2C87.5596 225.2 102.74 222.14 103.17 237.81L99.4896 237Z" fill="#68E1FD"/>
<path opacity="0.73" d="M100.69 236.05C100.69 236.05 93.8405 225.23 99.8705 215.11C99.8705 215.11 111.41 222.44 106.28 236.11L100.69 236.05Z" fill="#68E1FD"/>
<path d="M102.45 236.06C102.45 236.06 106.07 224.63 117.01 222.46C117.01 222.46 119.01 229.88 109.93 236.09L102.45 236.06Z" fill="#68E1FD"/>
<path d="M95.3496 235.8L97.3296 249.39L109.84 249.44L111.69 235.87L95.3496 235.8Z" fill="#24285B"/>
<path d="M256.62 36.29H137.77V249.45H256.62V36.29Z" fill="#C9C9C9"/>
<path d="M245.98 60.58H147.6V210.59H245.98V60.58Z" fill="white"/>
<path opacity="0.56" d="M197.55 241.44C203.973 241.44 209.18 236.233 209.18 229.81C209.18 223.387 203.973 218.18 197.55 218.18C191.127 218.18 185.92 223.387 185.92 229.81C185.92 236.233 191.127 241.44 197.55 241.44Z" fill="white"/>
<path opacity="0.12" d="M220.46 44.62H187.14V49.48H220.46V44.62Z" fill="black"/>
<path d="M175.07 53.01C178.069 53.01 180.5 50.5789 180.5 47.58C180.5 44.5811 178.069 42.15 175.07 42.15C172.071 42.15 169.64 44.5811 169.64 47.58C169.64 50.5789 172.071 53.01 175.07 53.01Z" fill="white"/>
<path d="M172.67 115.01C180.806 115.01 187.4 108.415 187.4 100.28C187.4 92.1449 180.806 85.55 172.67 85.55C164.535 85.55 157.94 92.1449 157.94 100.28C157.94 108.415 164.535 115.01 172.67 115.01Z" fill="#24285B"/>
<path d="M174.63 93.51C174.867 94.6571 174.948 95.8312 174.87 97C174.858 97.1404 174.817 97.2768 174.75 97.4003C174.682 97.5237 174.589 97.6315 174.476 97.7165C174.364 97.8014 174.235 97.8617 174.098 97.8933C173.96 97.925 173.818 97.9272 173.68 97.9C173.236 97.863 172.813 97.7004 172.459 97.4311C172.104 97.1619 171.834 96.7973 171.68 96.38L170.84 94.63C170.711 94.2601 170.699 93.8597 170.804 93.4826C170.91 93.1055 171.128 92.7696 171.43 92.52C171.686 92.3077 171.991 92.1625 172.317 92.0977C172.643 92.0329 172.98 92.0504 173.298 92.1487C173.616 92.247 173.904 92.4229 174.136 92.6606C174.369 92.8983 174.539 93.1903 174.63 93.51Z" fill="#F4A28C"/>
<path d="M170.98 94.9399L170.7 101.83L174.51 101.71L173.18 96.7499L170.98 94.9399Z" fill="#F4A28C"/>
<path d="M174.13 93.66C173.485 93.7606 172.831 93.7875 172.18 93.74C172.4 94.0017 172.538 94.3216 172.579 94.6608C172.62 94.9999 172.561 95.3436 172.41 95.65C172.267 95.95 172.025 96.191 171.724 96.3315C171.422 96.472 171.082 96.5033 170.76 96.42L170.48 93.73C170.43 93.3511 170.483 92.9657 170.632 92.614C170.782 92.2623 171.023 91.9571 171.33 91.73C171.6 91.5272 171.884 91.3434 172.18 91.18C172.91 90.78 174.1 91.18 174.74 90.56C174.803 90.4996 174.88 90.4566 174.964 90.4352C175.049 90.4138 175.137 90.4147 175.221 90.438C175.305 90.4612 175.381 90.5059 175.442 90.5676C175.503 90.6293 175.548 90.706 175.57 90.79C175.752 91.2657 175.77 91.7885 175.622 92.2757C175.473 92.7628 175.167 93.1866 174.75 93.48C174.553 93.5681 174.344 93.6287 174.13 93.66Z" fill="#FFD200"/>
<path d="M172.62 95.56C172.62 95.56 172.51 94.76 171.92 94.89C171.33 95.02 171.47 96.19 172.31 96.2L172.62 95.56Z" fill="#F4A28C"/>
<path d="M174.84 94.8199L175.51 95.5599C175.548 95.6015 175.575 95.6519 175.588 95.7065C175.602 95.761 175.602 95.8181 175.588 95.8726C175.574 95.9271 175.547 95.9773 175.509 96.0188C175.471 96.0602 175.423 96.0915 175.37 96.1099L174.58 96.3499L174.84 94.8199Z" fill="#F4A28C"/>
<path opacity="0.31" d="M173.52 97.82C173.036 97.758 172.581 97.5565 172.21 97.24C172.474 98.2005 173.088 99.0278 173.93 99.56L173.52 97.82Z" fill="#CE8172"/>
<path d="M162.74 111.16C162.74 111.16 162.51 101.91 172.49 101.44C182.47 100.97 182.2 111.57 182.2 111.57C182.2 111.57 172.79 120.15 162.74 111.16Z" fill="#68E1FD"/>
<path d="M171.51 198.17C179.645 198.17 186.24 191.575 186.24 183.44C186.24 175.305 179.645 168.71 171.51 168.71C163.375 168.71 156.78 175.305 156.78 183.44C156.78 191.575 163.375 198.17 171.51 198.17Z" fill="#24285B"/>
<path d="M173.48 176.67C173.718 177.817 173.798 178.991 173.72 180.16C173.709 180.3 173.668 180.437 173.6 180.56C173.532 180.684 173.439 180.791 173.327 180.876C173.214 180.961 173.085 181.022 172.948 181.053C172.811 181.085 172.668 181.087 172.53 181.06C172.086 181.024 171.662 180.862 171.308 180.593C170.953 180.323 170.683 179.958 170.53 179.54L169.69 177.79C169.559 177.42 169.545 177.019 169.65 176.641C169.756 176.264 169.976 175.928 170.28 175.68C170.536 175.468 170.841 175.323 171.167 175.258C171.493 175.193 171.83 175.21 172.148 175.309C172.466 175.407 172.754 175.583 172.986 175.821C173.219 176.058 173.389 176.35 173.48 176.67Z" fill="#F4A28C"/>
<path d="M169.82 178.1L169.55 184.99L173.36 184.87L172.03 179.91L169.82 178.1Z" fill="#F4A28C"/>
<path d="M173.68 178L174.36 178.74C174.397 178.782 174.424 178.833 174.437 178.888C174.45 178.944 174.449 179.001 174.434 179.056C174.419 179.11 174.391 179.16 174.352 179.201C174.312 179.242 174.264 179.273 174.21 179.29L173.43 179.53L173.68 178Z" fill="#F4A28C"/>
<path opacity="0.31" d="M172.36 181C171.879 180.937 171.427 180.736 171.06 180.42C171.324 181.381 171.937 182.208 172.78 182.74L172.36 181Z" fill="#CE8172"/>
<path d="M161.59 194.32C161.59 194.32 161.36 185.08 171.34 184.6C181.32 184.12 181.05 194.73 181.05 194.73C181.05 194.73 171.64 203.31 161.59 194.32Z" fill="#68E1FD"/>
<path d="M169.74 180.3L168.59 178.15C168.59 178.15 166.65 178.36 166.59 176.95C166.53 175.54 168.03 175.88 168.03 174.95C168.03 174.02 167.84 172.61 169.33 172.64C170.82 172.67 171.23 173.88 171.92 173.1C172.063 172.94 172.252 172.827 172.461 172.776C172.669 172.726 172.889 172.74 173.089 172.817C173.29 172.894 173.463 173.03 173.584 173.208C173.706 173.385 173.77 173.595 173.77 173.81C173.85 174.76 174.86 174.47 174.45 175.81C174.04 177.15 171.92 176.45 171.92 176.45C171.92 176.45 170 176.45 170.24 177.3C170.48 178.15 172 180 169.74 180.3Z" fill="#FFD200"/>
<path d="M171.12 178.51C171.12 178.51 170.77 177.78 170.24 178.08C169.71 178.38 170.24 179.45 171 179.21L171.12 178.51Z" fill="#F4A28C"/>
<path d="M172.09 155.8C180.226 155.8 186.82 149.205 186.82 141.07C186.82 132.935 180.226 126.34 172.09 126.34C163.955 126.34 157.36 132.935 157.36 141.07C157.36 149.205 163.955 155.8 172.09 155.8Z" fill="#24285B"/>
<path d="M174.06 134.31C174.292 135.455 174.372 136.624 174.3 137.79C174.263 138.068 174.116 138.321 173.893 138.491C173.67 138.662 173.388 138.737 173.11 138.7C172.665 138.665 172.239 138.501 171.884 138.23C171.53 137.959 171.261 137.591 171.11 137.17L170.27 135.42C170.138 135.052 170.124 134.652 170.229 134.276C170.335 133.899 170.555 133.565 170.86 133.32C171.116 133.108 171.421 132.963 171.747 132.898C172.073 132.833 172.41 132.85 172.728 132.949C173.046 133.047 173.334 133.223 173.566 133.461C173.799 133.698 173.969 133.99 174.06 134.31Z" fill="#F4A28C"/>
<path d="M170.4 135.74L170.13 142.63L173.93 142.51L172.6 137.54L170.4 135.74Z" fill="#F4A28C"/>
<path d="M172.05 136.36C172.05 136.36 171.94 135.56 171.34 135.69C170.74 135.82 170.9 136.98 171.73 137L172.05 136.36Z" fill="#F4A28C"/>
<path d="M174.26 135.62L174.94 136.35C174.977 136.392 175.004 136.443 175.017 136.498C175.03 136.554 175.029 136.611 175.014 136.666C174.999 136.72 174.971 136.77 174.932 136.811C174.892 136.852 174.844 136.883 174.79 136.9L174.01 137.15L174.26 135.62Z" fill="#F4A28C"/>
<path opacity="0.31" d="M172.94 138.62C172.455 138.556 171.999 138.351 171.63 138.03C171.89 138.996 172.508 139.826 173.36 140.35L172.94 138.62Z" fill="#CE8172"/>
<path d="M162.16 152C162.16 152 161.94 142.75 171.91 142.27C181.88 141.79 181.63 152.41 181.63 152.41C181.63 152.41 172.21 161 162.16 152Z" fill="#68E1FD"/>
<path d="M166.71 139.35C166.437 139.795 166.264 140.293 166.204 140.811C166.143 141.33 166.197 141.855 166.36 142.35C166.469 142.808 166.737 143.212 167.116 143.492C167.495 143.772 167.96 143.909 168.43 143.88C171.06 143.78 170.67 143.01 171.02 139.24C171.34 135.7 171.63 134.65 173.71 134.12C175.79 133.59 174.51 131.54 172.71 131.59C170.91 131.64 167.71 131.73 167.8 135.03C167.844 136.543 167.467 138.039 166.71 139.35Z" fill="#FFD200"/>
<path d="M215.65 89.08H195.51V93.21H215.65V89.08Z" fill="#E6E6E6"/>
<path d="M245.98 60.58H147.6V78.09H245.98V60.58Z" fill="#FFD200"/>
<path d="M233.87 66.85H182.2V71.84H233.87V66.85Z" fill="white"/>
<path d="M158.89 73.14C161.414 73.14 163.46 71.0939 163.46 68.57C163.46 66.0461 161.414 64 158.89 64C156.366 64 154.32 66.0461 154.32 68.57C154.32 71.0939 156.366 73.14 158.89 73.14Z" fill="#24285B"/>
<path opacity="0.74" d="M163.46 73.14C165.984 73.14 168.03 71.0939 168.03 68.57C168.03 66.0461 165.984 64 163.46 64C160.936 64 158.89 66.0461 158.89 68.57C158.89 71.0939 160.936 73.14 163.46 73.14Z" fill="#24285B"/>
<path opacity="0.31" d="M168.79 73.14C171.314 73.14 173.36 71.0939 173.36 68.57C173.36 66.0461 171.314 64 168.79 64C166.266 64 164.22 66.0461 164.22 68.57C164.22 71.0939 166.266 73.14 168.79 73.14Z" fill="#24285B"/>
<path d="M195.51 97.48V105.96L189.71 110.03H195.51H275.49V97.48H195.51Z" fill="#FFD200"/>
<path opacity="0.39" d="M264.07 101.83H202.94V105.86H264.07V101.83Z" fill="white"/>
<path d="M215.65 128.24H195.51V132.37H215.65V128.24Z" fill="#E6E6E6"/>
<path d="M195.51 136.63V145.11L189.71 149.19H195.51H275.49V136.63H195.51Z" fill="#FFD200"/>
<path opacity="0.39" d="M264.07 140.99H202.94V145.02H264.07V140.99Z" fill="white"/>
<path d="M215.65 172.24H195.51V176.37H215.65V172.24Z" fill="#E6E6E6"/>
<path d="M195.51 180.64V189.12L189.71 193.19H195.51H275.49V180.64H195.51Z" fill="#FFD200"/>
<path opacity="0.39" d="M264.07 184.99H202.94V189.02H264.07V184.99Z" fill="white"/>
<path d="M347.91 71.96H293.41V131.7H347.91V71.96Z" fill="#24285B"/>
<path d="M305.85 92.49C307.844 92.49 309.46 90.8738 309.46 88.88C309.46 86.8863 307.844 85.27 305.85 85.27C303.857 85.27 302.24 86.8863 302.24 88.88C302.24 90.8738 303.857 92.49 305.85 92.49Z" fill="#68E1FD"/>
<path d="M305.85 106.43C307.844 106.43 309.46 104.814 309.46 102.82C309.46 100.826 307.844 99.21 305.85 99.21C303.857 99.21 302.24 100.826 302.24 102.82C302.24 104.814 303.857 106.43 305.85 106.43Z" fill="white"/>
<path d="M305.85 120.37C307.844 120.37 309.46 118.754 309.46 116.76C309.46 114.766 307.844 113.15 305.85 113.15C303.857 113.15 302.24 114.766 302.24 116.76C302.24 118.754 303.857 120.37 305.85 120.37Z" fill="#FFD200"/>
<path opacity="0.2" d="M338.91 85.72H316.91V90.86H338.91V85.72Z" fill="white"/>
<path opacity="0.2" d="M338.91 100.25H316.91V105.39H338.91V100.25Z" fill="white"/>
<path opacity="0.2" d="M338.91 114.48H316.91V119.62H338.91V114.48Z" fill="white"/>
<path d="M115.34 78.4H46.4199V187.31H115.34V78.4Z" fill="#24285B"/>
<path d="M68.4097 110.82C74.7279 110.82 79.8497 105.698 79.8497 99.3799C79.8497 93.0618 74.7279 87.9399 68.4097 87.9399C62.0916 87.9399 56.9697 93.0618 56.9697 99.3799C56.9697 105.698 62.0916 110.82 68.4097 110.82Z" fill="#68E1FD"/>
<path d="M104.79 92.89H85.5703V97.6H104.79V92.89Z" fill="white"/>
<path opacity="0.21" d="M104.79 101.15H85.5703V105.86H104.79V101.15Z" fill="white"/>
<path opacity="0.11" d="M115.34 121.59H46.4199V187.31H115.34V121.59Z" fill="white"/>
<path d="M101.22 134.78H70.2998V141.04H101.22V134.78Z" fill="white"/>
<path opacity="0.57" d="M101.22 151.1H70.2998V157.36H101.22V151.1Z" fill="white"/>
<path opacity="0.23" d="M101.22 167.42H70.2998V173.68H101.22V167.42Z" fill="white"/>
<path d="M62.0505 141.91C64.0221 141.91 65.6205 140.312 65.6205 138.34C65.6205 136.368 64.0221 134.77 62.0505 134.77C60.0788 134.77 58.4805 136.368 58.4805 138.34C58.4805 140.312 60.0788 141.91 62.0505 141.91Z" fill="#FFD200"/>
<path opacity="0.36" d="M62.0505 157.8C64.0221 157.8 65.6205 156.202 65.6205 154.23C65.6205 152.258 64.0221 150.66 62.0505 150.66C60.0788 150.66 58.4805 152.258 58.4805 154.23C58.4805 156.202 60.0788 157.8 62.0505 157.8Z" fill="#FFD200"/>
<path opacity="0.36" d="M62.0505 174.13C64.0221 174.13 65.6205 172.532 65.6205 170.56C65.6205 168.588 64.0221 166.99 62.0505 166.99C60.0788 166.99 58.4805 168.588 58.4805 170.56C58.4805 172.532 60.0788 174.13 62.0505 174.13Z" fill="#FFD200"/>
</svg>
