<svg width="334" height="250" viewBox="0 0 334 250" fill="none" xmlns="http://www.w3.org/2000/svg">
<path d="M113.609 87.15C113.609 87.15 90.2752 93.3417 96.9419 125.333C103.609 157.325 83.0585 156.067 65.5585 153.283L64.4502 161.483C64.4502 161.483 110.284 175.65 116.384 135.375C122.484 95.1 113.609 87.15 113.609 87.15Z" fill="#68E1FD"/>
<path d="M113.609 87.15C113.609 87.15 90.2752 93.3417 96.9419 125.333C103.609 157.325 83.0585 156.067 65.5585 153.283L64.4502 161.483C64.4502 161.483 110.284 175.65 116.384 135.375C122.484 95.1 113.609 87.15 113.609 87.15Z" fill="#DDDDDD"/>
<path opacity="0.45" d="M174.817 226.5C243.116 226.5 298.484 218.71 298.484 209.1C298.484 199.49 243.116 191.7 174.817 191.7C106.518 191.7 51.1504 199.49 51.1504 209.1C51.1504 218.71 106.518 226.5 174.817 226.5Z" fill="#E6E6E6"/>
<path d="M42.042 105.558V125.167H54.717L57.4837 132.967L60.7587 125.167H73.4337V105.558H42.042Z" fill="#E6E6E6"/>
<path d="M115.359 65.1083C115.359 65.1083 114.126 69.5583 114.326 72.7C114.346 73.0067 114.426 73.3065 114.563 73.5816C114.7 73.8568 114.891 74.102 115.123 74.3029C115.356 74.5038 115.627 74.6563 115.919 74.7517C116.211 74.8471 116.519 74.8833 116.826 74.8583C117.81 74.8502 118.77 74.5581 119.592 74.017C120.414 73.476 121.062 72.709 121.459 71.8083L123.559 68.1C123.895 67.3121 123.98 66.4397 123.803 65.6017C123.625 64.7637 123.194 64.0007 122.567 63.4167C120.334 61.1 115.967 62.3667 115.359 65.1083Z" fill="#B7B7B7"/>
<path d="M122.658 69.0167L126.283 83.6917L118.05 85.1083L118.7 74.1417L122.658 69.0167Z" fill="#B7B7B7"/>
<path d="M114.725 67.95L113.133 69.4583C113.044 69.5444 112.977 69.6517 112.94 69.7703C112.902 69.8889 112.895 70.0149 112.919 70.1369C112.943 70.2589 112.998 70.3728 113.077 70.4683C113.157 70.5638 113.259 70.6378 113.375 70.6833L115.042 71.3333L114.725 67.95Z" fill="#B7B7B7"/>
<path opacity="0.31" d="M118.683 74.4584C118.683 74.4584 121.491 73.1584 122.258 72.0084C122.258 72.0084 122.1 78.05 118.366 79.8084L118.683 74.4584Z" fill="#CE8172"/>
<path d="M119.941 69.2917C119.941 69.2917 120.3 67.55 121.608 67.9334C122.916 68.3167 122.391 70.825 120.558 70.7334L119.941 69.2917Z" fill="#F4A28C"/>
<path d="M125.275 67.0667L124.317 68.7333C124.317 68.7333 123.158 73 120.317 75.2C117.475 77.4 113.483 76.95 113.133 73.95C112.742 70.5083 115.05 71.3333 118.133 71.1917C121.217 71.05 120.75 66.9167 120.75 66.9167C120.176 66.918 119.61 66.779 119.101 66.5118C118.593 66.2446 118.158 65.8572 117.833 65.3833C116.974 64.2286 115.824 63.3227 114.5 62.7583C111.758 61.6 115.1 58.0167 115.1 58.0167C113.267 57.0083 114.675 54.875 116.442 54.225C118.208 53.575 118.717 55.65 120.067 56.05C121.417 56.45 120.9 54.3 123.467 54.8333C126.033 55.3667 124.658 57.2833 126.233 58.6917C126.233 58.6917 128.033 57.3167 129.425 60.4417C130.258 62.225 129.808 63.0667 129.017 63.5333C127.482 64.3645 126.193 65.5826 125.275 67.0667Z" fill="#2C2C2C"/>
<path d="M268.417 32.2833H152.675V52.5917H268.417V32.2833Z" fill="#A5A5A5"/>
<path d="M268.867 186.742H153.125V207.05H268.867V186.742Z" fill="#A5A5A5"/>
<path d="M145.116 172.442H103.8V207.05H145.116V172.442Z" fill="#A5A5A5"/>
<path d="M226.667 117.983C264.483 107.2 260.333 52.5917 260.333 52.5917H159.767C159.767 52.5917 157.158 104.258 194.542 117.017C194.993 117.179 195.382 117.479 195.653 117.875C195.924 118.271 196.064 118.743 196.052 119.222C196.04 119.702 195.877 120.166 195.586 120.548C195.296 120.93 194.892 121.21 194.433 121.35C156.617 132.133 160.758 186.742 160.758 186.742H261.325C261.325 186.742 263.925 135.075 226.55 122.317C226.094 122.158 225.701 121.858 225.427 121.461C225.153 121.064 225.012 120.59 225.025 120.107C225.038 119.625 225.204 119.159 225.499 118.777C225.794 118.396 226.203 118.118 226.667 117.983Z" fill="#E6E6E6"/>
<path d="M159.783 172.442H118.467V207.05H159.783V172.442Z" fill="#C9C9C9"/>
<path d="M193.166 74.4083C190.749 73.8844 188.233 74.0694 185.919 74.9409C183.605 75.8125 181.592 77.3336 180.121 79.3216C178.651 81.3096 177.785 83.6798 177.629 86.1477C177.473 88.6155 178.033 91.0759 179.241 93.2333C182.924 99.9 189.549 107.2 201.191 109C222.074 112.242 236.941 106.992 245.533 84.35C246.042 83.0258 246.2 81.5924 245.991 80.1891C245.782 78.7858 245.214 77.4604 244.342 76.3415C243.47 75.2227 242.323 74.3484 241.013 73.8038C239.703 73.2592 238.274 73.0627 236.866 73.2333H236.608C228.074 74.5 227.124 85.5667 214.791 82.0917C208.408 80.325 200.591 75.9833 193.166 74.4083Z" fill="#C9C9C9"/>
<path d="M167.983 182.692C167.977 179.477 168.871 176.325 170.565 173.592C172.259 170.86 174.684 168.657 177.567 167.233C185.511 163.474 193.884 160.697 202.5 158.967C227.5 153.592 231.275 171.617 241.083 173.2C250.892 174.783 253.417 182.692 253.417 182.692H167.983Z" fill="#C9C9C9"/>
<path d="M203.959 109.383L206.567 164.658H212.576L210.992 109.383H203.959Z" fill="#C9C9C9"/>
<path d="M215.742 107.108V164.658H217.401L219.059 105.925L215.742 107.108Z" fill="#C9C9C9"/>
<path d="M117.725 200.083C117.725 200.083 116.575 203.267 113.7 203.508C110.825 203.75 110.067 206.567 112.658 207.3C115.25 208.033 121.917 204.708 121.917 204.708L121.733 200.542L117.725 200.083Z" fill="#C0C0C0"/>
<path d="M118.05 85.1083L126.283 83.6917C126.283 83.6917 153.658 83.6917 158.45 93.1083C163.241 102.525 162.241 137.383 146.4 166.033L113.975 166.975C113.975 166.975 115.775 145.933 109.733 134.475C103.691 123.017 84.908 98.6666 118.05 85.1083Z" fill="#C0C0C0"/>
<path d="M146.4 166.033L130.566 163.642C128.276 163.296 125.937 163.48 123.728 164.178C121.519 164.876 119.499 166.07 117.823 167.669C116.147 169.268 114.859 171.229 114.058 173.403C113.256 175.576 112.963 177.904 113.2 180.208L115.275 200.35H123.058L122.383 181.492C122.344 180.437 122.539 179.386 122.955 178.415C123.37 177.445 123.996 176.579 124.787 175.879C125.577 175.179 126.513 174.663 127.527 174.369C128.541 174.074 129.607 174.008 130.65 174.175C137.375 175.267 145.741 174.792 146.4 166.033Z" fill="#2C2C2C"/>
<path d="M101.583 200.083C101.583 200.083 100.433 203.267 97.5583 203.508C94.6833 203.75 93.925 206.567 96.5167 207.3C99.1083 208.033 105.775 204.708 105.775 204.708L105.583 200.542L101.583 200.083Z" fill="#C0C0C0"/>
<path opacity="0.08" d="M142.176 92.2333C138.795 94.6446 136.178 97.9766 134.637 101.833C133.096 105.689 132.696 109.906 133.484 113.983C136.126 128.433 147.726 154.95 123.867 150.3L125.292 161.35L141.484 159.817L154.592 151.067L157.792 126.792L142.176 92.2333Z" fill="black"/>
<path d="M130.258 166.033L114.425 163.642C112.134 163.296 109.795 163.48 107.586 164.178C105.378 164.876 103.358 166.07 101.682 167.669C100.006 169.268 98.7175 171.229 97.9161 173.403C97.1147 175.576 96.8212 177.904 97.0581 180.208L99.1331 200.35H106.908L106.241 181.492C106.202 180.437 106.398 179.386 106.813 178.415C107.229 177.445 107.854 176.579 108.645 175.879C109.436 175.179 110.371 174.663 111.385 174.369C112.399 174.074 113.466 174.008 114.508 174.175C121.233 175.267 129.591 174.792 130.258 166.033Z" fill="#2C2C2C"/>
<path d="M140.458 96.95C141.216 88.6167 151.558 85.0833 157.083 91.35C159.716 94.3333 161.816 98.7 162.233 105.108C163.483 124.45 179.075 181.517 118.066 163.5L119.616 156.325C119.616 156.325 138.291 160.492 148.083 151.117C156.225 143.333 138.533 118.008 140.458 96.95Z" fill="#68E1FD"/>
<path d="M140.458 96.95C141.216 88.6167 151.558 85.0833 157.083 91.35C159.716 94.3333 161.816 98.7 162.233 105.108C163.483 124.45 179.075 181.517 118.066 163.5L119.616 156.325C119.616 156.325 138.291 160.492 148.083 151.117C156.225 143.333 138.533 118.008 140.458 96.95Z" fill="#DDDDDD"/>
<path d="M101.05 164.717L91.0254 137.25H120.517L126.642 163.083L133.959 164.333V167.875L101.05 164.717Z" fill="#C8C8C8"/>
<path d="M109.508 152.733C111.155 152.733 112.491 151.398 112.491 149.75C112.491 148.102 111.155 146.767 109.508 146.767C107.86 146.767 106.524 148.102 106.524 149.75C106.524 151.398 107.86 152.733 109.508 152.733Z" fill="white"/>
<path opacity="0.08" d="M95.3662 149.15L120.558 166.592L101.05 164.717L95.3662 149.15Z" fill="black"/>
<path d="M115.05 86.4333C115.05 86.4333 114.217 83.7417 118.05 81.7667C121.883 79.7916 129.425 77.0583 132.025 84.1C132.025 84.1 123.592 89.55 115.05 86.4333Z" fill="#68E1FD"/>
<path d="M115.05 86.4333C115.05 86.4333 114.217 83.7417 118.05 81.7667C121.883 79.7916 129.425 77.0583 132.025 84.1C132.025 84.1 123.592 89.55 115.05 86.4333Z" fill="#DDDDDD"/>
<path d="M65.5669 153.283C65.5669 153.283 60.1502 148.85 58.0669 151.767C55.9835 154.683 64.4585 159.683 64.4585 159.683L65.5669 153.283Z" fill="#B7B7B7"/>
<path d="M67.7934 148.294L57.3047 137.805L51.1411 143.969L61.6298 154.457L67.7934 148.294Z" fill="#C8C8C8"/>
<path d="M122.6 67.5C122.6 67.5 124.842 66.175 125.675 67.9584C126.508 69.7417 124.008 71.1334 122.342 70.05C122.732 69.2588 122.824 68.3534 122.6 67.5Z" fill="#B7B7B7"/>
<path d="M50.1499 117.283C51.4569 117.283 52.5165 116.224 52.5165 114.917C52.5165 113.61 51.4569 112.55 50.1499 112.55C48.8428 112.55 47.7832 113.61 47.7832 114.917C47.7832 116.224 48.8428 117.283 50.1499 117.283Z" fill="#A5A5A5"/>
<path d="M57.4751 117.283C58.7821 117.283 59.8417 116.224 59.8417 114.917C59.8417 113.61 58.7821 112.55 57.4751 112.55C56.168 112.55 55.1084 113.61 55.1084 114.917C55.1084 116.224 56.168 117.283 57.4751 117.283Z" fill="#A5A5A5"/>
<path d="M64.6167 117.283C65.9237 117.283 66.9833 116.224 66.9833 114.917C66.9833 113.61 65.9237 112.55 64.6167 112.55C63.3096 112.55 62.25 113.61 62.25 114.917C62.25 116.224 63.3096 117.283 64.6167 117.283Z" fill="#A5A5A5"/>
</svg>
