<svg width="400" height="300" viewBox="0 0 400 300" fill="none" xmlns="http://www.w3.org/2000/svg">
<path d="M264.78 118.27C264.78 118.27 260.94 135.78 240.61 137.76C220.28 139.74 191.86 92.24 191.86 92.24C191.86 92.24 216.39 94.73 225.33 106.73C234.27 118.73 243 124.33 257 115L264.78 118.27Z" fill="#68E1FD"/>
<path opacity="0.2" d="M264.78 118.27C264.78 118.27 260.94 135.78 240.61 137.76C220.28 139.74 191.86 92.24 191.86 92.24C191.86 92.24 216.39 94.73 225.33 106.73C234.27 118.73 243 124.33 257 115L264.78 118.27Z" fill="white"/>
<path opacity="0.45" d="M205.66 272.94C261.303 272.94 306.41 266.694 306.41 258.99C306.41 251.286 261.303 245.04 205.66 245.04C150.017 245.04 104.91 251.286 104.91 258.99C104.91 266.694 150.017 272.94 205.66 272.94Z" fill="#E6E6E6"/>
<path d="M190.59 249.22C190.59 249.22 189.4 253.22 192.06 255.55C194.72 257.88 193.42 261.23 190.33 260.06C187.24 258.89 183.06 250.73 183.06 250.73L186.29 246.73L190.59 249.22Z" fill="#68E1FD"/>
<path d="M226.33 246.83C226.33 246.83 225.66 250.94 228.6 252.92C231.54 254.9 230.68 258.37 227.46 257.61C224.24 256.85 219.06 249.29 219.06 249.29L221.74 244.94L226.33 246.83Z" fill="#68E1FD"/>
<path d="M168.49 61.47C168.49 61.47 168.1 69.17 166.11 74.06C165.917 74.5374 165.631 74.9717 165.269 75.3375C164.906 75.7034 164.475 75.9934 163.999 76.1907C163.523 76.388 163.013 76.4887 162.498 76.4869C161.984 76.485 161.474 76.3807 161 76.18C158.56 75.18 155.55 73.03 155.26 68.88L153.9 61.88C153.786 60.4497 154.119 59.0192 154.853 57.7866C155.588 56.554 156.688 55.5802 158 55C162.72 52.48 169 56.79 168.49 61.47Z" fill="#F4A28C"/>
<path d="M154.33 67.85L157.85 88.84L172.09 89.5L163.81 73.1L154.33 67.85Z" fill="#F4A28C"/>
<path d="M166.54 61.52C164.155 61.2926 161.806 60.7858 159.54 60.01C160.076 61.1466 160.268 62.4158 160.09 63.6601C159.912 64.9045 159.373 66.0693 158.54 67.01C157.753 67.9777 156.64 68.6248 155.41 68.83C154.989 68.8758 154.564 68.8237 154.168 68.6779C153.771 68.5321 153.413 68.2965 153.123 67.9895C152.832 67.6825 152.617 67.3125 152.493 66.9084C152.369 66.5043 152.341 66.077 152.41 65.66L153.5 58.41C153.666 56.9933 154.215 55.6485 155.087 54.5194C155.959 53.3904 157.121 52.5196 158.45 52C159.589 51.5391 160.759 51.1549 161.95 50.85C164.95 50.11 168.81 52.57 171.61 51.01C171.891 50.8566 172.208 50.7785 172.528 50.7834C172.849 50.7883 173.163 50.8761 173.439 51.0381C173.716 51.2001 173.946 51.4309 174.108 51.7081C174.269 51.9852 174.356 52.2994 174.36 52.62C174.36 55.62 173.21 60.3 168.94 61.37C168.154 61.5552 167.342 61.6059 166.54 61.52Z" fill="#24285B"/>
<path d="M159.46 66.88C159.46 66.88 159.81 63.94 157.57 63.88C155.33 63.82 154.8 68.05 157.75 68.88L159.46 66.88Z" fill="#F4A28C"/>
<path d="M168 66.3101L169.72 69.5501C169.817 69.7312 169.868 69.934 169.867 70.1397C169.865 70.3454 169.813 70.5476 169.713 70.7277C169.614 70.9078 169.471 71.06 169.297 71.1705C169.123 71.281 168.925 71.3462 168.72 71.3601L165.72 71.5101L168 66.3101Z" fill="#F4A28C"/>
<path opacity="0.31" d="M165 75.5601C163.297 75.6793 161.593 75.3336 160.07 74.5601C160.07 74.5601 160.48 80.0801 167.38 80.3001L165 75.5601Z" fill="#CE8172"/>
<path d="M221 180.17L231.43 196.41C234.173 200.679 235.902 205.519 236.485 210.56C237.067 215.601 236.487 220.708 234.79 225.49L227.24 246.76L219.41 245.06L221.61 223.9C221.941 220.686 221.476 217.441 220.255 214.449C219.034 211.458 217.095 208.814 214.61 206.75L198.75 193.5L210.75 180.17H221Z" fill="#24285B"/>
<path d="M131.78 107.78C132.012 102.122 134.461 96.7826 138.599 92.9165C142.737 89.0503 148.229 86.968 153.89 87.1199C168.29 87.4699 189.52 89.3399 202.83 96.7299C224.49 108.73 220.83 177.47 220.83 177.47L174.36 188.4C174.36 188.4 130.46 145 131.78 107.78Z" fill="#68E1FD"/>
<path opacity="0.08" d="M152.41 99.61C152.41 99.61 172.09 108.21 180.41 142.61C188.63 176.69 219.48 156.41 219.48 156.41L219 178.12L174.36 188.4L164.68 177.75C164.68 177.75 135.43 145.54 152.41 99.61Z" fill="black"/>
<path d="M174.36 188.4L185.23 205C187.314 208.181 188.702 211.767 189.303 215.522C189.905 219.277 189.706 223.117 188.72 226.79L183.11 247.61L191.86 249.61L203.67 228.12C206.096 223.716 207.501 218.823 207.779 213.803C208.058 208.784 207.204 203.765 205.28 199.12L202.77 193.05L216.77 178.4L174.36 188.4Z" fill="#24285B"/>
<path d="M251.55 155.29L268.11 141.79L251.23 121.08C254.194 121.68 257.271 121.349 260.04 120.133C262.809 118.917 265.134 116.874 266.698 114.286C268.261 111.697 268.986 108.689 268.774 105.672C268.562 102.655 267.423 99.7781 265.512 97.4339C263.602 95.0896 261.014 93.3931 258.102 92.5765C255.19 91.7599 252.097 91.8631 249.246 92.8721C246.395 93.881 243.926 95.7463 242.176 98.2127C240.426 100.679 239.481 103.626 239.47 106.65L222.58 85.9301L166.73 131.47L212.26 187.32L228.82 173.82C227.604 172.328 226.693 170.61 226.14 168.766C225.587 166.921 225.403 164.986 225.598 163.07C225.992 159.201 227.906 155.647 230.92 153.19C233.935 150.733 237.802 149.574 241.67 149.967C245.539 150.361 249.093 152.276 251.55 155.29Z" fill="#FFD200"/>
<path d="M104.43 154.14L94 138.14L74 151.23C74.8067 148.649 74.7971 145.883 73.9725 143.308C73.1479 140.733 71.5485 138.475 69.3928 136.843C67.237 135.212 64.6301 134.285 61.928 134.19C59.226 134.096 56.5605 134.837 54.2958 136.314C52.0311 137.791 50.2776 139.931 49.2747 142.442C48.2719 144.953 48.0686 147.712 48.6926 150.343C49.3167 152.974 50.7377 155.348 52.7615 157.14C54.7853 158.933 57.3132 160.058 60 160.36L40 173.46L75.33 227.46L129.33 192.13L118.86 176.13C117.415 177.074 115.799 177.725 114.103 178.044C112.407 178.364 110.665 178.346 108.976 177.992C107.287 177.638 105.684 176.955 104.259 175.982C102.834 175.009 101.614 173.765 100.67 172.32C99.7258 170.875 99.0754 169.259 98.7558 167.563C98.4363 165.867 98.4539 164.125 98.8077 162.436C99.1615 160.747 99.8445 159.144 100.818 157.719C101.791 156.294 103.035 155.074 104.48 154.13L104.43 154.14Z" fill="#E6E6E6"/>
<path d="M347.83 145.31C350.509 144.791 352.963 143.456 354.854 141.489C356.746 139.522 357.983 137.018 358.397 134.321C358.811 131.624 358.382 128.864 357.167 126.42C355.953 123.976 354.013 121.967 351.613 120.668C349.213 119.369 346.47 118.843 343.76 119.163C341.05 119.483 338.505 120.632 336.473 122.454C334.441 124.275 333.021 126.68 332.409 129.34C331.796 131.999 332.02 134.783 333.05 137.31L311.84 125.79L302.61 142.79C304.222 143.559 305.661 144.648 306.838 145.991C308.015 147.334 308.907 148.902 309.459 150.601C310.011 152.3 310.211 154.093 310.048 155.871C309.884 157.65 309.361 159.376 308.509 160.946C307.657 162.515 306.494 163.895 305.092 165.001C303.689 166.107 302.076 166.916 300.351 167.378C298.626 167.841 296.825 167.947 295.058 167.691C293.29 167.436 291.593 166.823 290.07 165.89L280.78 183L338 214L347.21 197C345.632 196.198 344.23 195.088 343.088 193.735C341.946 192.382 341.087 190.814 340.561 189.124C340.035 187.433 339.853 185.654 340.026 183.893C340.199 182.131 340.724 180.421 341.568 178.865C342.413 177.309 343.561 175.939 344.945 174.834C346.328 173.729 347.919 172.913 349.623 172.433C351.327 171.954 353.11 171.82 354.867 172.041C356.624 172.262 358.318 172.833 359.85 173.72L369.06 156.72L347.83 145.31Z" fill="#C9C9C9"/>
<path opacity="0.08" d="M187 156.39L227.39 157.32C227.39 157.32 222.32 164.92 228.78 173.82L212.22 187.32L187 156.39Z" fill="black"/>
<path d="M130.78 105C128.66 115.22 126.87 135.11 139.59 164.62C141.274 168.489 144.048 171.785 147.572 174.106C151.097 176.427 155.22 177.672 159.44 177.69L218.99 178.1L219.44 168.97L164.53 159.83C164.53 159.83 166.73 113.29 151.34 98.47C144.44 91.84 132.72 95.63 130.78 105Z" fill="#68E1FD"/>
<path opacity="0.2" d="M130.78 105C128.66 115.22 126.87 135.11 139.59 164.62C141.274 168.489 144.048 171.785 147.572 174.106C151.097 176.427 155.22 177.672 159.44 177.69L218.99 178.1L219.44 168.97L164.53 159.83C164.53 159.83 166.73 113.29 151.34 98.47C144.44 91.84 132.72 95.63 130.78 105Z" fill="white"/>
<path d="M219.06 176.75C219.06 176.75 226.27 180.4 229.94 176.9C233.61 173.4 230.11 170.9 229.94 167.23C229.978 166.706 229.839 166.185 229.545 165.749C229.252 165.314 228.82 164.99 228.32 164.83C227.667 164.633 226.966 164.665 226.334 164.919C225.701 165.174 225.174 165.636 224.84 166.23C223.84 167.85 221.97 170.36 219.44 169.94L219.06 176.75Z" fill="#F4A28C"/>
<path d="M267.5 112.84C267.5 112.84 263.07 107.29 258.17 112.84C253.27 118.39 263.41 126.45 267.5 112.84Z" fill="#F4A28C"/>
<path opacity="0.08" d="M164.53 159.85C161.078 159.612 157.613 159.612 154.16 159.85C157.427 158.192 160.922 157.026 164.53 156.39V159.85Z" fill="black"/>
<path d="M131.747 36.2397L136.254 39.0668L139.081 34.5601L134.574 31.733L131.747 36.2397Z" fill="#C9C9C9"/>
<path d="M231.904 39.0663L235.843 43.0049L239.781 39.0663L235.843 35.1277L231.904 39.0663Z" fill="#E6E6E6"/>
<path d="M80.3006 99.5212L82.3193 108.364L91.1618 106.345L89.1431 97.5025L80.3006 99.5212Z" fill="#E6E6E6"/>
<path d="M299.54 84.9601V94.03H308.61V84.9601H299.54Z" fill="#C9C9C9"/>
<g clip-path="url(#clip0)">
<path d="M196.743 59C196.564 59 196.389 58.929 196.259 58.7979C196.088 58.625 196.022 58.374 196.087 58.1394L198.167 50.5427C196.872 48.2007 196.189 45.5513 196.19 42.8618C196.194 34.1155 203.311 27 212.057 27C216.299 27.0017 220.285 28.6541 223.281 31.6521C226.276 34.6504 227.925 38.636 227.924 42.8745C227.92 51.6211 220.802 58.7371 212.057 58.7371C212.057 58.7371 212.05 58.7371 212.05 58.7371C209.496 58.7361 206.963 58.1135 204.708 56.9343L196.916 58.9778C196.859 58.9927 196.801 59 196.743 59Z" fill="#E5E5E5"/>
<path d="M196.743 58.3191L198.897 50.4522C197.569 48.1497 196.87 45.5378 196.871 42.8621C196.874 34.4912 203.686 27.6809 212.057 27.6809C216.119 27.6826 219.931 29.2637 222.799 32.1333C225.666 35.0029 227.244 38.8174 227.242 42.8743C227.239 51.2449 220.426 58.0562 212.057 58.0562C212.056 58.0562 212.057 58.0562 212.057 58.0562H212.05C209.509 58.0552 207.011 57.4177 204.793 56.208L196.743 58.3191ZM205.166 53.4597L205.627 53.7329C207.565 54.8828 209.786 55.491 212.052 55.4922H212.057C219.013 55.4922 224.675 49.8311 224.678 42.8733C224.679 39.5015 223.368 36.3308 220.985 33.9458C218.602 31.5608 215.433 30.2466 212.061 30.2451C205.099 30.2451 199.437 35.9055 199.435 42.863C199.434 45.2473 200.101 47.5691 201.364 49.5784L201.665 50.0559L200.389 54.7122L205.166 53.4597Z" fill="white"/>
<path d="M197.271 57.7891L199.351 50.1941C198.068 47.9714 197.394 45.4497 197.394 42.8669C197.397 34.7859 203.974 28.2114 212.054 28.2114C215.976 28.2131 219.657 29.7395 222.424 32.5098C225.192 35.28 226.716 38.9624 226.714 42.8784C226.711 50.9597 220.134 57.5349 212.055 57.5349C212.054 57.5349 212.055 57.5349 212.055 57.5349H212.048C209.595 57.5339 207.184 56.9182 205.043 55.7512L197.271 57.7891Z" fill="#C0C0C0"/>
<path d="M196.743 58.3191L198.897 50.4522C197.569 48.1497 196.87 45.5378 196.871 42.8621C196.874 34.4912 203.686 27.6809 212.057 27.6809C216.119 27.6826 219.931 29.2637 222.799 32.1333C225.666 35.0029 227.244 38.8174 227.242 42.8743C227.239 51.2449 220.426 58.0562 212.057 58.0562C212.056 58.0562 212.057 58.0562 212.057 58.0562H212.05C209.509 58.0552 207.011 57.4177 204.793 56.208L196.743 58.3191ZM205.166 53.4597L205.627 53.7329C207.565 54.8828 209.786 55.491 212.052 55.4922H212.057C219.013 55.4922 224.675 49.8311 224.678 42.8733C224.679 39.5015 223.368 36.3308 220.985 33.9458C218.602 31.5608 215.433 30.2466 212.061 30.2451C205.099 30.2451 199.437 35.9055 199.435 42.863C199.434 45.2473 200.101 47.5691 201.364 49.5784L201.665 50.0559L200.389 54.7122L205.166 53.4597Z" fill="white"/>
<path fill-rule="evenodd" clip-rule="evenodd" d="M208.261 36.5153C207.977 35.8834 207.677 35.8707 207.407 35.8597C207.186 35.8502 206.933 35.8507 206.68 35.8507C206.427 35.8507 206.016 35.9459 205.668 36.3256C205.32 36.7052 204.34 37.6232 204.34 39.4901C204.34 41.3573 205.7 43.1613 205.889 43.4147C206.079 43.6679 208.514 47.6215 212.371 49.1425C215.576 50.4066 216.228 50.1552 216.924 50.0919C217.62 50.0287 219.169 49.174 219.485 48.288C219.802 47.402 219.802 46.6427 219.707 46.4838C219.612 46.3258 219.359 46.2308 218.979 46.0411C218.6 45.8514 216.735 44.9332 216.387 44.8068C216.039 44.6801 215.786 44.6171 215.533 44.997C215.28 45.3763 214.553 46.2308 214.332 46.4838C214.11 46.7374 213.889 46.7692 213.51 46.5792C213.13 46.389 211.908 45.9887 210.458 44.6959C209.33 43.6903 208.569 42.4481 208.347 42.0682C208.126 41.6888 208.344 41.5013 208.514 41.2941C208.821 40.9208 209.336 40.2496 209.462 39.9967C209.589 39.7433 209.525 39.5219 209.431 39.3319C209.336 39.1422 208.598 37.2658 208.261 36.5153Z" fill="white"/>
</g>
<g opacity="0.5" clip-path="url(#clip1)">
<path d="M70 56.6663C61.18 56.6663 54 62.5303 54 69.7369C54 76.1916 59.6933 81.5996 67.38 82.6276C67.9013 82.7383 68.6107 82.9743 68.7907 83.4196C68.9507 83.8236 68.896 84.4476 68.8413 84.8689L68.6227 86.2369C68.5627 86.6409 68.3027 87.8276 70.0213 87.1023C71.7427 86.3796 79.2427 81.6303 82.6027 77.7436C84.9013 75.2103 86 72.6143 86 69.7369C86 62.5303 78.82 56.6663 70 56.6663ZM63.7373 74.0223H60.556C60.096 74.0223 59.716 73.6396 59.716 73.1783V66.7769C59.716 66.3143 60.096 65.9316 60.556 65.9316C61.02 65.9316 61.396 66.3143 61.396 66.7769V72.3329H63.7373C64.2013 72.3329 64.576 72.7129 64.576 73.1783C64.576 73.6396 64.2 74.0223 63.7373 74.0223ZM67.0253 73.1783C67.0253 73.6396 66.6493 74.0223 66.184 74.0223C65.724 74.0223 65.348 73.6396 65.348 73.1783V66.7769C65.348 66.3143 65.724 65.9316 66.188 65.9316C66.6493 65.9316 67.0253 66.3143 67.0253 66.7769V73.1783ZM74.68 73.1783C74.68 73.5409 74.448 73.8623 74.104 73.9783C74.0187 74.0063 73.9267 74.0196 73.8387 74.0196C73.5573 74.0196 73.3173 73.8983 73.1587 73.6836L69.9013 69.2329V73.1769C69.9013 73.6383 69.5293 74.0209 69.06 74.0209C68.5987 74.0209 68.2253 73.6383 68.2253 73.1769V66.7769C68.2253 66.4143 68.456 66.0929 68.7987 65.9783C68.8787 65.9476 68.98 65.9343 69.0573 65.9343C69.3173 65.9343 69.5573 66.0743 69.7173 66.2756L73 70.7436V66.7769C73 66.3143 73.376 65.9316 73.84 65.9316C74.3 65.9316 74.68 66.3143 74.68 66.7769V73.1783ZM79.82 69.1316C80.2853 69.1316 80.66 69.5143 80.66 69.9783C80.66 70.4409 80.2853 70.8236 79.82 70.8236H77.48V72.3329H79.82C80.2853 72.3329 80.66 72.7129 80.66 73.1783C80.66 73.6396 80.2853 74.0223 79.82 74.0223H76.6387C76.1787 74.0223 75.8027 73.6396 75.8027 73.1783V66.7769C75.8027 66.3143 76.1787 65.9316 76.6427 65.9316H79.824C80.2853 65.9316 80.66 66.3143 80.66 66.7769C80.66 67.2449 80.2853 67.6223 79.82 67.6223H77.48V69.1316H79.82Z" fill="#828282"/>
</g>
<g opacity="0.5">
<path d="M102 227C110.837 227 118 219.837 118 211C118 202.163 110.837 195 102 195C93.1634 195 86 202.163 86 211C86 219.837 93.1634 227 102 227Z" fill="#828282"/>
<path d="M93.3217 210.654L108.748 204.706C109.464 204.447 110.09 204.881 109.858 205.963L109.859 205.962L107.232 218.337C107.038 219.214 106.516 219.427 105.787 219.014L101.787 216.066L99.8577 217.925C99.6444 218.138 99.4644 218.318 99.051 218.318L99.335 214.247L106.748 207.55C107.071 207.266 106.676 207.106 106.251 207.389L97.0897 213.157L93.1403 211.925C92.283 211.653 92.2644 211.067 93.3217 210.654Z" fill="white"/>
</g>
<g opacity="0.5">
<rect x="262" y="199" width="20" height="18" rx="3" fill="white"/>
<path d="M283.666 209.333H272.332C271.046 209.333 270 210.379 270 211.667V217.667C270 218.953 271.046 220.001 272.334 220.001H274V223.001C274 223.399 274.236 223.757 274.598 223.917C274.726 223.973 274.864 224.001 275 224.001C275.246 224.001 275.49 223.909 275.678 223.737L279.724 220.001H283.666C284.952 220.001 286 218.955 286 217.667V211.667C286 210.379 284.954 209.333 283.666 209.333ZM274 215.999C273.264 215.999 272.666 215.403 272.666 214.665C272.666 213.927 273.264 213.333 274 213.333C274.736 213.333 275.334 213.929 275.334 214.667C275.334 215.405 274.736 215.999 274 215.999ZM278 215.999C277.264 215.999 276.666 215.403 276.666 214.665C276.666 213.927 277.264 213.333 278 213.333C278.736 213.333 279.334 213.929 279.334 214.667C279.334 215.405 278.736 215.999 278 215.999ZM282 215.999C281.264 215.999 280.666 215.403 280.666 214.665C280.666 213.927 281.264 213.333 282 213.333C282.736 213.333 283.334 213.929 283.334 214.667C283.334 215.405 282.736 215.999 282 215.999Z" fill="#BDBDBD"/>
<path d="M290 199.467H266C263.794 199.467 262 201.261 262 203.467V224.801C262 227.007 263.794 228.801 266 228.801H290C292.206 228.801 294 227.007 294 224.801V203.467C294 201.261 292.206 199.467 290 199.467ZM290 226.133H266C265.264 226.133 264.666 225.535 264.666 224.799V206.133H291.332V224.799C291.334 225.535 290.736 226.133 290 226.133Z" fill="#828282"/>
</g>
<g opacity="0.5" clip-path="url(#clip2)">
<path d="M334.2 82H320.2C317.88 82 316 79.314 316 76V56C316 52.686 317.88 50 320.2 50H334.2C336.52 50 338.4 52.686 338.4 56V76C338.4 79.314 336.52 82 334.2 82Z" fill="white"/>
<rect x="326" y="53" width="9" height="4" fill="white"/>
<path d="M336.485 69.334C336.121 69.334 335.771 69.28 335.435 69.16V76.666H318.635V54C318.635 53.266 319.265 52.666 320.036 52.666H329.849C330.662 51.466 332.075 50.666 333.686 50.666H336.359C335.687 50.254 334.889 50 334.034 50H320.034C317.724 50 315.834 51.8 315.834 54V78C315.834 80.2 317.724 82 320.034 82H334.034C336.344 82 338.234 80.2 338.234 78V68.826C337.73 69.146 337.115 69.334 336.485 69.334Z" fill="#828282"/>
<path d="M326.964 71.332C328.501 71.332 329.746 70.1384 329.746 68.666C329.746 67.1936 328.501 66 326.964 66C325.428 66 324.183 67.1936 324.183 68.666C324.183 70.1384 325.428 71.332 326.964 71.332Z" fill="#828282"/>
<path d="M332.529 76.334V76.668H321.399V76.334C321.399 74.308 323.111 72.668 325.225 72.668H328.704C330.818 72.666 332.529 74.306 332.529 76.334Z" fill="#828282"/>
<path d="M345.398 52.6656H333.571C332.229 52.6656 331.136 53.7116 331.136 54.9996V60.9996C331.136 62.2856 332.227 63.3336 333.571 63.3336H335.31V66.3336C335.31 66.7456 335.575 67.1156 335.975 67.2656C336.098 67.3116 336.226 67.3336 336.353 67.3336C336.639 67.3336 336.921 67.2196 337.121 67.0096L340.637 63.3336H345.398C346.739 63.3336 347.833 62.2876 347.833 60.9996V54.9996C347.833 53.7136 346.739 52.6656 345.398 52.6656ZM336.007 58.9996C335.431 58.9996 334.963 58.5516 334.963 57.9996C334.963 57.4476 335.431 56.9996 336.007 56.9996C336.583 56.9996 337.05 57.4476 337.05 57.9996C337.05 58.5516 336.583 58.9996 336.007 58.9996ZM339.485 58.9996C338.909 58.9996 338.442 58.5516 338.442 57.9996C338.442 57.4476 338.909 56.9996 339.485 56.9996C340.061 56.9996 340.529 57.4476 340.529 57.9996C340.529 58.5516 340.061 58.9996 339.485 58.9996ZM342.962 58.9996C342.386 58.9996 341.919 58.5516 341.919 57.9996C341.919 57.4476 342.386 56.9996 342.962 56.9996C343.538 56.9996 344.006 57.4476 344.006 57.9996C344.006 58.5516 343.538 58.9996 342.962 58.9996Z" fill="#BDBDBD"/>
</g>
<defs>
<clipPath id="clip0">
<rect width="32" height="32" fill="white" transform="translate(196 27)"/>
</clipPath>
<clipPath id="clip1">
<rect width="32" height="32" fill="white" transform="translate(54 56)"/>
</clipPath>
<clipPath id="clip2">
<rect width="32" height="32" fill="white" transform="translate(316 50)"/>
</clipPath>
</defs>
</svg>
