<svg width="134" height="100" viewBox="0 0 134 100" fill="none" xmlns="http://www.w3.org/2000/svg">
<path d="M40.6202 36.3067C40.6202 36.3067 34.8135 35.5334 33.6468 40.3867C32.4802 45.24 32.3135 51.9667 27.6468 53.3134C22.9802 54.66 20.3969 45.3134 20.3969 45.3134C20.3969 45.3134 19.3135 42.6934 18.1469 42.3367C16.9802 41.98 16.1469 44.5634 18.1469 46.1467C18.1469 46.1467 19.8302 58.0634 28.7802 57.6467C37.7302 57.23 40.6202 44.9534 40.6202 36.3067Z" fill="#F4A28C"/>
<path opacity="0.08" d="M40.6202 36.3067C40.6202 36.3067 34.8135 35.5334 33.6468 40.3867C32.4802 45.24 32.3135 51.9667 27.6468 53.3134C22.9802 54.66 20.3969 45.3134 20.3969 45.3134C20.3969 45.3134 19.3135 42.6934 18.1469 42.3367C16.9802 41.98 16.1469 44.5634 18.1469 46.1467C18.1469 46.1467 19.8302 58.0634 28.7802 57.6467C37.7302 57.23 40.6202 44.9534 40.6202 36.3067Z" fill="black"/>
<path opacity="0.45" d="M69.6403 94.3367C98.0683 94.3367 121.114 91.2475 121.114 87.4367C121.114 83.6259 98.0683 80.5367 69.6403 80.5367C41.2124 80.5367 18.167 83.6259 18.167 87.4367C18.167 91.2475 41.2124 94.3367 69.6403 94.3367Z" fill="#E6E6E6"/>
<path d="M96.1664 18.2733H58.123V86.5033H96.1664V18.2733Z" fill="#C9C9C9"/>
<path d="M92.7605 26.05H61.2705V74.0666H92.7605V26.05Z" fill="white"/>
<path opacity="0.56" d="M77.2595 83.94C79.3158 83.94 80.9828 82.273 80.9828 80.2167C80.9828 78.1603 79.3158 76.4933 77.2595 76.4933C75.2031 76.4933 73.5361 78.1603 73.5361 80.2167C73.5361 82.273 75.2031 83.94 77.2595 83.94Z" fill="white"/>
<path opacity="0.12" d="M84.5934 20.94H73.9268V22.4967H84.5934V20.94Z" fill="black"/>
<path d="M70.0628 23.6233C71.022 23.6233 71.7995 22.8458 71.7995 21.8866C71.7995 20.9275 71.022 20.15 70.0628 20.15C69.1037 20.15 68.3262 20.9275 68.3262 21.8866C68.3262 22.8458 69.1037 23.6233 70.0628 23.6233Z" fill="white"/>
<path d="M40.6206 27.6667C40.6206 27.6667 36.7906 32.1767 39.8506 33.8033C44.3406 36.19 44.8872 27.94 44.8872 27.94L40.6206 27.6667Z" fill="#24285B"/>
<path d="M40.9196 28.1133C40.9196 28.1133 40.1196 29.81 39.983 31.0833C39.9696 31.2067 39.9809 31.3315 40.0162 31.4505C40.0515 31.5694 40.1101 31.6802 40.1885 31.7764C40.267 31.8725 40.3638 31.9521 40.4733 32.0105C40.5828 32.0689 40.7028 32.105 40.8263 32.1166C41.2212 32.1808 41.6262 32.1296 41.9927 31.9694C42.3593 31.8092 42.6718 31.5467 42.893 31.2133L43.9863 29.88C44.1766 29.5883 44.2718 29.2447 44.2587 28.8967C44.2455 28.5486 44.1248 28.2132 43.913 27.9366C43.1863 26.85 41.353 27.0566 40.9196 28.1133Z" fill="#F4A28C"/>
<path d="M43.5735 30.18L44.0135 36.3067H40.6201L41.6368 31.9633L43.5735 30.18Z" fill="#F4A28C"/>
<path d="M40.4701 29.2067L39.7301 29.7033C39.6874 29.7304 39.6523 29.7678 39.6279 29.8121C39.6036 29.8564 39.5908 29.9061 39.5908 29.9567C39.5908 30.0072 39.6036 30.0569 39.6279 30.1012C39.6523 30.1455 39.6874 30.1829 39.7301 30.21L40.3535 30.5867L40.4701 29.2067Z" fill="#F4A28C"/>
<path opacity="0.31" d="M41.6097 32.0867C42.0187 32.0133 42.4001 31.8301 42.7131 31.5567C42.7131 31.5567 42.9331 32.89 41.3164 33.33L41.6097 32.0867Z" fill="#CE8172"/>
<path d="M42.4668 30.1067C42.4668 30.1067 42.7301 29.44 43.2201 29.6733C43.7101 29.9067 43.3335 30.8866 42.6101 30.7233L42.4668 30.1067Z" fill="#F4A28C"/>
<path d="M34.493 71.19L31.623 84.2333H33.2897L38.8764 71.19H34.493Z" fill="#F4A28C"/>
<path d="M43.8301 69.6066L46.8901 84.2333H48.5667L48.3134 69.5033L43.8301 69.6066Z" fill="#F4A28C"/>
<path d="M31.6232 84.2333C31.6232 84.2333 30.6965 85.4067 29.5099 85.35C28.3232 85.2933 28.1532 86.9667 30.0565 86.7933C30.6494 86.7422 31.237 86.6419 31.8132 86.4933C32.3454 86.3687 32.9011 86.3883 33.4232 86.55C33.5251 86.5726 33.6313 86.564 33.7282 86.5253C33.8251 86.4867 33.9082 86.4198 33.9665 86.3333C34.5065 85.6967 33.1765 84.2333 33.1765 84.2333H31.6232Z" fill="#68E1FD"/>
<path d="M48.443 84.2333C48.443 84.2333 49.3697 85.4067 50.5564 85.35C51.743 85.2933 51.9164 86.9667 50.0097 86.7933C49.4168 86.7422 48.8293 86.6419 48.253 86.4933C47.7209 86.3687 47.1651 86.3883 46.643 86.55C46.5412 86.5726 46.4349 86.564 46.338 86.5253C46.2411 86.4867 46.1581 86.4198 46.0997 86.3333C45.5597 85.6967 46.8897 84.2333 46.8897 84.2333H48.443Z" fill="#68E1FD"/>
<path opacity="0.12" d="M86.2064 43.51H68.3164V63.6633H86.2064V43.51Z" fill="black"/>
<path d="M82.837 65.8633H71.457V70.7333H82.837V65.8633Z" fill="#FFD200"/>
<path d="M81.7595 48.4267L79.4261 47.7034C79.2295 49.5667 77.3161 49.5467 77.3161 49.5467C77.3161 49.5467 75.3995 49.5667 75.2028 47.7034L72.8695 48.4267L70.0361 51.4534L72.0361 53.7867L73.7028 52.4967L74.1361 58.3467H80.4695L80.9028 52.4967L82.5695 53.7867L84.5695 51.4534L81.7595 48.4267Z" fill="white"/>
<path opacity="0.15" d="M58.207 38.3933V41.5C58.207 41.5 60.2804 42.5 63.1904 41.26C66.1004 40.02 67.5237 42.6467 71.1704 41.26C74.817 39.8733 75.837 42.9033 79.8537 41.8167C83.8704 40.73 85.1437 40.3333 87.3237 41.5233C89.5037 42.7133 94.3237 41.7267 96.167 40.3033V36.3033L90.8337 32.4667H62.7537L58.207 38.3933Z" fill="#2C2C3A"/>
<path d="M61.2928 26.05L55.4395 34.78H99.0795L92.8328 26.05H61.2928Z" fill="#24285B"/>
<path d="M58.5561 38.25C60.2794 38.25 61.6728 36.6967 61.6728 34.78H55.4395C55.4395 36.6967 56.8361 38.25 58.5561 38.25Z" fill="#24285B"/>
<path d="M64.7937 38.25C66.5137 38.25 67.9103 36.6967 67.9103 34.78H61.667C61.667 36.6967 63.0703 38.25 64.7937 38.25Z" fill="#FAFAFA"/>
<path d="M71.0268 38.25C72.7468 38.25 74.1435 36.6967 74.1435 34.78H67.9102C67.9102 36.6967 69.3035 38.25 71.0268 38.25Z" fill="#24285B"/>
<path d="M77.2602 38.25C78.9835 38.25 80.3769 36.6967 80.3769 34.78H74.1436C74.1436 36.6967 75.5402 38.25 77.2602 38.25Z" fill="#FAFAFA"/>
<path d="M83.497 38.25C85.217 38.25 86.6136 36.6967 86.6136 34.78H80.377C80.377 36.6967 81.7736 38.25 83.497 38.25Z" fill="#24285B"/>
<path d="M89.7299 38.25C91.4499 38.25 92.8466 36.6967 92.8466 34.78H86.6133C86.6133 36.6967 87.9999 38.25 89.7299 38.25Z" fill="#FAFAFA"/>
<path d="M95.9633 38.25C97.6867 38.25 99.08 36.6967 99.08 34.78H92.8467C92.8467 36.6967 94.2433 38.25 95.9633 38.25Z" fill="#24285B"/>
<path d="M61.6738 34.78L65.1938 26.05H69.2605L67.9105 34.78H61.6738Z" fill="#FAFAFA"/>
<path d="M92.8372 34.78L89.3206 26.05H85.2539L86.6039 34.78H92.8372Z" fill="#FAFAFA"/>
<path d="M74.1436 34.78L74.4502 26.05H80.0035L80.3769 34.78H74.1436Z" fill="#FAFAFA"/>
<path d="M41.1439 25.4366C40.8704 25.5411 40.6267 25.7109 40.4338 25.931C40.2409 26.1512 40.1048 26.4152 40.0372 26.7C39.9239 27.2166 40.0172 27.8433 40.8505 28.2666C42.5172 29.1133 43.2405 28.5533 43.1005 29.6333C42.9605 30.7133 41.1539 34.4466 44.8772 34.1966C48.6005 33.9466 47.3772 31.71 46.7105 30.3833C46.0438 29.0566 46.0172 27.92 45.7672 27.05C45.5372 26.2666 43.6372 24.45 41.1439 25.4366Z" fill="#24285B"/>
<path d="M40.6196 36.3067H43.9996C43.9996 36.3067 44.233 36.3067 44.633 36.3067C52.033 36.5434 56.333 44.7634 52.403 51.04C50.2163 54.53 47.6063 59.2334 47.433 62.04L34.243 61.3734C34.243 61.3734 35.243 52.8167 32.7997 47.9267C32.813 47.9334 28.333 40.2367 40.6196 36.3067Z" fill="#68E1FD"/>
<path d="M41.3969 59.6667C41.3769 59.5167 40.9469 55.9167 43.4835 54.37L43.6569 54.6533C41.3035 56.09 41.7235 59.59 41.7269 59.6267L41.3969 59.6667Z" fill="white"/>
<path opacity="0.08" d="M47.8536 38.9633C47.8536 38.9633 42.317 41.0733 44.887 49.9633C46.2203 54.5933 34.3203 54.09 34.3203 54.09C34.3203 54.09 34.537 57.6433 34.4136 59.26L40.4736 59.5933L47.8536 60.0733L48.2136 59.0333L50.457 54.81L50.667 49.31L48.917 46.2467L47.8536 38.9633Z" fill="black"/>
<path d="M45.5969 59.6666C45.5769 59.5166 45.1035 55.8033 47.7002 54.4L47.8535 54.6533C45.5035 56.09 45.9202 59.59 45.9269 59.6266L45.5969 59.6666Z" fill="white"/>
<path d="M34.4131 59.2467L47.8831 59.9567L51.4798 73.6L32.0098 72.9067L34.4131 59.2467Z" fill="#24285B"/>
<path d="M46.6232 41.44C46.5987 40.8388 46.7638 40.2452 47.0952 39.7429C47.4265 39.2407 47.9073 38.8553 48.4696 38.6413C49.0319 38.4272 49.6472 38.3952 50.2287 38.5499C50.8101 38.7046 51.3283 39.0381 51.7098 39.5033C53.6183 41.8002 54.6285 44.7114 54.5532 47.6967C54.4432 55.6967 53.3665 64.3233 36.1465 54.88L37.0732 52.35C37.0732 52.35 44.7165 56.0167 47.9098 54.83C50.2565 53.9533 46.8665 46.9233 46.6232 41.44Z" fill="#F4A28C"/>
<path d="M37.073 52.35C37.073 52.35 34.1996 50.9834 32.9796 52.35C31.7596 53.7167 33.6996 54.9333 36.1463 54.88L37.073 52.35Z" fill="#F4A28C"/>
<path d="M40.1202 59.0067L49.9235 59.95L50.3135 71.9067L37.4102 71.16L40.1202 59.0067Z" fill="#FFD200"/>
<path opacity="0.08" d="M40.1202 59.0067L49.9235 59.95L50.3135 71.9067L37.4102 71.16L40.1202 59.0067Z" fill="black"/>
<path d="M42.2768 59.2133L51.2468 60.0966L52.7701 72.03L39.8701 71.2866L42.2768 59.2133Z" fill="#FFD200"/>
<path d="M20.5733 37.3456L16.623 38.6284L18.888 45.6032L22.8382 44.3204L20.5733 37.3456Z" fill="#FFD200"/>
<path d="M44.703 60.44L44.423 60.26C44.423 60.23 46.323 57.26 45.1996 54.9533C45.0221 54.6851 44.7492 54.4944 44.4363 54.42C44.2857 54.4037 44.1333 54.42 43.9895 54.4677C43.8458 54.5154 43.7139 54.5935 43.603 54.6967L43.293 54.5267C43.4466 54.3684 43.6341 54.2469 43.8413 54.1713C44.0485 54.0957 44.2702 54.0679 44.4896 54.09C44.9028 54.1832 45.2623 54.436 45.4896 54.7933C46.703 57.2833 44.783 60.3134 44.703 60.44Z" fill="white"/>
<path d="M48.5961 60.6667L48.3161 60.4867C48.3361 60.4567 50.2161 57.4867 49.0961 55.18C48.9168 54.912 48.6431 54.7216 48.3295 54.6467C48.1579 54.6293 47.9846 54.6502 47.822 54.7078C47.6595 54.7655 47.5118 54.8584 47.3894 54.98L47.1895 54.75C47.3428 54.5924 47.5298 54.4715 47.7364 54.3965C47.9431 54.3215 48.1641 54.2942 48.3828 54.3167C48.5878 54.3616 48.7819 54.4469 48.9536 54.5677C49.1253 54.6885 49.2712 54.8422 49.3828 55.02C50.5994 57.5033 48.6661 60.5367 48.5961 60.6667Z" fill="white"/>
<path d="M13.9736 24.89V31.5567H18.2836L19.2236 34.21L20.337 31.5567H24.647V24.89H13.9736Z" fill="#E6E6E6"/>
<path opacity="0.12" d="M18.77 29.7133C18.7216 29.7116 18.6742 29.6994 18.631 29.6775C18.5878 29.6556 18.5499 29.6246 18.52 29.5866L17.38 28.1333C17.3256 28.0634 17.3012 27.9749 17.3121 27.887C17.3231 27.7992 17.3685 27.7193 17.4383 27.665C17.5081 27.6106 17.5967 27.5862 17.6845 27.5971C17.7724 27.6081 17.8523 27.6534 17.9066 27.7233L18.7933 28.8633L20.9766 26.5033C21.0065 26.4709 21.0425 26.4448 21.0825 26.4264C21.1225 26.4081 21.1658 26.3978 21.2098 26.3963C21.2538 26.3947 21.2977 26.4019 21.3389 26.4174C21.3801 26.4329 21.4179 26.4564 21.45 26.4866C21.5143 26.5468 21.5522 26.6301 21.5553 26.7182C21.5584 26.8063 21.5265 26.892 21.4666 26.9566L19.0166 29.6033C18.9855 29.6378 18.9474 29.6654 18.9049 29.6844C18.8625 29.7033 18.8165 29.7132 18.77 29.7133Z" fill="black"/>
<path opacity="0.52" d="M81.5033 66.65H76.6133V68.2966H81.5033V66.65Z" fill="white"/>
<path opacity="0.55" d="M106.584 74.07H96.167V79.46H106.584V74.07Z" fill="#E6E6E6"/>
<path d="M111.667 79.46H96.167V86.5034H111.667V79.46Z" fill="#E6E6E6"/>
</svg>
