<svg width="134" height="100" viewBox="0 0 134 100" fill="none" xmlns="http://www.w3.org/2000/svg">
<path d="M78.877 52.8667C78.877 52.8667 90.987 45.89 93.2103 55.6067C95.4336 65.3234 86.037 64.0234 86.037 64.0234L78.877 52.8667Z" fill="#24285B"/>
<path opacity="0.08" d="M78.877 52.8667C78.877 52.8667 90.987 45.89 93.2103 55.6067C95.4336 65.3234 86.037 64.0234 86.037 64.0234L78.877 52.8667Z" fill="black"/>
<path d="M35.8467 52.15L38.61 49.79C38.61 49.79 43.1967 44.8367 54.03 47.4934C64.8633 50.15 62.53 56.1034 74.3633 53.96L75.1967 61.9867C75.1967 61.9867 47.6667 70.1534 35.8467 52.15Z" fill="#68E1FD"/>
<path d="M33.0228 43.7C33.0228 43.7 34.7994 44.6367 35.7328 45.64C35.8239 45.7368 35.8948 45.8508 35.9414 45.9753C35.988 46.0998 36.0092 46.2324 36.004 46.3652C35.9987 46.4981 35.967 46.6285 35.9107 46.749C35.8544 46.8694 35.7746 46.9774 35.6761 47.0667C35.381 47.3726 35.0042 47.5874 34.5906 47.6855C34.177 47.7836 33.7439 47.7608 33.3428 47.62L31.5461 47.1767C31.1911 47.0532 30.8835 46.8222 30.666 46.5157C30.4485 46.2092 30.332 45.8425 30.3328 45.4667C30.2694 44.0733 31.9728 43.0733 33.0228 43.7Z" fill="#F4A28C"/>
<path d="M31.9199 47.13L35.8233 52.42L38.5833 50.06L34.6333 47.16L31.9199 47.13Z" fill="#F4A28C"/>
<path d="M32.8235 44.1633C32.5089 44.6974 32.1331 45.193 31.7035 45.64C32.0305 45.6369 32.3512 45.73 32.6256 45.9078C32.9 46.0857 33.1161 46.3403 33.2469 46.64C33.3771 46.9256 33.4047 47.2474 33.3252 47.551C33.2456 47.8547 33.0637 48.1216 32.8102 48.3066L30.6669 46.8866C30.3522 46.694 30.0957 46.4196 29.9249 46.0926C29.754 45.7656 29.6752 45.3983 29.6969 45.03C29.712 44.711 29.7499 44.3935 29.8102 44.08C29.9602 43.2933 30.9669 42.6466 30.9069 41.8166C30.9024 41.7351 30.9187 41.6538 30.9541 41.5803C30.9896 41.5067 31.0431 41.4434 31.1097 41.3961C31.1762 41.3489 31.2537 41.3192 31.3348 41.31C31.4159 41.3008 31.4981 41.3122 31.5735 41.3433C32.2969 41.6766 33.2402 42.4566 33.0435 43.5833C33.0028 43.7875 32.9284 43.9835 32.8235 44.1633Z" fill="#24285B"/>
<path d="M33.3132 46.42C33.3132 46.42 32.6465 46.0167 32.3899 46.5367C32.1332 47.0567 33.0565 47.6467 33.5865 47.04L33.3132 46.42Z" fill="#F4A28C"/>
<path d="M34.1104 44.3333L35.0637 44.2833C35.1181 44.2804 35.1723 44.2909 35.2217 44.3138C35.2712 44.3368 35.3142 44.3715 35.3471 44.4149C35.38 44.4583 35.4017 44.5091 35.4104 44.5629C35.4191 44.6166 35.4145 44.6717 35.397 44.7233L35.1004 45.4466L34.1104 44.3333Z" fill="#F4A28C"/>
<path opacity="0.31" d="M34.7028 47.3066C34.3634 47.6251 33.9381 47.8371 33.4795 47.9166C33.4795 47.9166 34.3428 48.77 36.0562 48.3033L34.7028 47.3066Z" fill="#CE8172"/>
<path opacity="0.45" d="M66.6969 89.16C97.7169 89.16 122.864 86.4528 122.864 83.1134C122.864 79.7739 97.7169 77.0667 66.6969 77.0667C35.6769 77.0667 10.5303 79.7739 10.5303 83.1134C10.5303 86.4528 35.6769 89.16 66.6969 89.16Z" fill="#E6E6E6"/>
<path d="M89.4872 72.9467C89.4872 72.9467 89.9305 74.1167 90.9939 74.19C92.0572 74.2634 92.3539 75.3 91.4039 75.5867C90.4539 75.8734 87.9639 74.6667 87.9639 74.6667L88.0205 72.7167L89.4872 72.9467Z" fill="#68E1FD"/>
<path d="M94.0999 66.6133C94.0999 66.6133 94.5399 67.7833 95.6066 67.8566C96.6732 67.93 96.9666 68.9666 96.0132 69.2533C95.0599 69.54 92.5732 68.3333 92.5732 68.3333L92.6332 66.3833L94.0999 66.6133Z" fill="#68E1FD"/>
<path opacity="0.08" d="M44.5928 48.7366C45.9346 48.6715 47.2743 48.903 48.5164 49.4147C49.7586 49.9263 50.8727 50.7054 51.7794 51.6966C54.9461 55.1066 59.7794 61.5466 74.7561 57.7666L74.9794 59.9066L67.1128 65.69L44.5928 56.46V48.7366Z" fill="black"/>
<path d="M26.9398 18.78H23.1631V82.1034H26.9398V18.78Z" fill="#C9C9C9"/>
<path d="M36.2664 53.2367C35.943 52.3464 35.9593 51.3681 36.3124 50.4892C36.6654 49.6102 37.3303 48.8925 38.1798 48.4733C39.3798 47.8967 41.0798 47.5867 43.3698 48.25C48.7898 49.8233 47.6664 56.22 56.4731 56.1667C65.2798 56.1133 68.3664 53.0267 68.3664 53.0267C68.8276 52.6781 69.3748 52.4614 69.9496 52.3998C70.5244 52.3382 71.1051 52.4339 71.6298 52.6767C73.5498 53.4933 73.0864 54.6 70.8131 54.4833C70.8131 54.4833 65.7431 62.35 55.7798 62.4833C47.0898 62.57 38.2864 59 36.2664 53.2367Z" fill="#F4A28C"/>
<path d="M108.956 18.78H105.18V82.1034H108.956V18.78Z" fill="#C9C9C9"/>
<path d="M26.9434 40.23C26.9434 40.23 36.4334 62.8633 70.8067 60.3133C105.18 57.7633 105.18 39.4333 105.18 39.4333C105.18 39.4333 109.533 62.9933 85.4734 70.4333C63.3634 77.2999 33.0767 74.6966 26.9434 40.23Z" fill="#FFD200"/>
<path opacity="0.08" d="M77.9531 59.85C77.9531 59.85 82.5831 60.0233 83.1398 63.1833C83.6965 66.3433 84.1398 70.85 84.1398 70.85L87.0598 69.9233L90.2064 64.3567L87.9731 57.6333L85.4264 56.0767L77.9531 59.85Z" fill="black"/>
<path d="M26.94 38.3234H23.1533V40.54H26.94V38.3234Z" fill="#24285B"/>
<path d="M108.956 37.4333H105.18V39.65H108.956V37.4333Z" fill="#24285B"/>
<path d="M32.853 82.5066C32.853 82.5066 36.0263 77.9466 31.293 76.69C26.5596 75.4333 32.433 69.2866 28.0296 68.48C23.6263 67.6733 24.363 74.1733 24.363 74.1733C24.363 74.1733 21.323 71.55 19.223 73.7533C17.123 75.9566 20.063 78.37 20.063 78.37C20.063 78.37 15.8263 79.8333 18.4696 82.5066H32.853Z" fill="#E6E6E6"/>
<path d="M26.4902 83.1133C26.4902 83.1133 28.4902 79.67 31.4902 80.0933C34.4902 80.5166 34.1402 83.1133 34.1402 83.1133H26.4902Z" fill="#C9C9C9"/>
<path d="M74.3633 53.96C74.3633 53.96 85.1966 49.5067 89.03 53.0967C92.8633 56.6867 90.3633 72.8533 90.3633 72.8533L87.1966 73.69C87.1966 73.69 87.22 65.9266 85.5566 61.4167C85.2268 60.5494 84.5804 59.8395 83.7477 59.43C82.9151 59.0205 81.9582 58.9419 81.07 59.21C79.0992 59.8108 77.0354 60.0468 74.98 59.9067L74.3633 53.96Z" fill="#24285B"/>
<path d="M105.233 82.08L107.263 73.49L108.207 78.49L112.723 73.49L111.06 79.4633L115.1 76.6567L112.643 82.08H105.233Z" fill="#E6E6E6"/>
<path d="M60.3965 50.1C60.3965 50.1 60.6131 48.6967 63.0298 49.7667C65.4465 50.8367 65.2798 53.68 63.0298 53.2634C60.7798 52.8467 60.3965 50.1 60.3965 50.1Z" fill="#F4A28C"/>
<path opacity="0.08" d="M60.3965 50.1C60.3965 50.1 60.6131 48.6967 63.0298 49.7667C65.4465 50.8367 65.2798 53.68 63.0298 53.2634C60.7798 52.8467 60.3965 50.1 60.3965 50.1Z" fill="black"/>
<path d="M67.6472 39.5567C73.8456 39.5567 78.8705 35.375 78.8705 30.2167C78.8705 25.0583 73.8456 20.8766 67.6472 20.8766C61.4487 20.8766 56.4238 25.0583 56.4238 30.2167C56.4238 35.375 61.4487 39.5567 67.6472 39.5567Z" fill="#24285B"/>
<path d="M59.8203 34.4833L55.8203 41.28L62.4003 36.3967L59.8203 34.4833Z" fill="#24285B"/>
<path d="M63.2236 31.6033C63.9894 31.6033 64.6103 30.9825 64.6103 30.2167C64.6103 29.4508 63.9894 28.83 63.2236 28.83C62.4577 28.83 61.8369 29.4508 61.8369 30.2167C61.8369 30.9825 62.4577 31.6033 63.2236 31.6033Z" fill="white"/>
<path d="M67.6728 31.6033C68.4386 31.6033 69.0595 30.9825 69.0595 30.2167C69.0595 29.4508 68.4386 28.83 67.6728 28.83C66.907 28.83 66.2861 29.4508 66.2861 30.2167C66.2861 30.9825 66.907 31.6033 67.6728 31.6033Z" fill="white"/>
<path d="M72.0664 31.6033C72.8322 31.6033 73.453 30.9825 73.453 30.2167C73.453 29.4508 72.8322 28.83 72.0664 28.83C71.3005 28.83 70.6797 29.4508 70.6797 30.2167C70.6797 30.9825 71.3005 31.6033 72.0664 31.6033Z" fill="white"/>
<path opacity="0.29" d="M42.9497 65.1067C50.1934 69.7009 58.6089 72.1072 67.1864 72.0367C67.3801 72.0365 67.5669 71.9645 67.7106 71.8347C67.8544 71.7049 67.945 71.5264 67.9649 71.3338C67.9848 71.1411 67.9325 70.9479 67.8183 70.7914C67.7041 70.635 67.536 70.5264 67.3464 70.4867L59.4264 68.8833C56.5579 68.3038 53.7401 67.4968 50.9997 66.47L43.6431 63.71C43.4612 63.6408 43.26 63.6417 43.0788 63.7127C42.8976 63.7836 42.7493 63.9195 42.6628 64.0938C42.5762 64.2681 42.5577 64.4684 42.6107 64.6556C42.6638 64.8429 42.7846 65.0036 42.9497 65.1067Z" fill="white"/>
</svg>
