<svg width="250" height="309" viewBox="0 0 250 309" fill="none" xmlns="http://www.w3.org/2000/svg">
<path d="M70.3125 191.406L39.0625 222.656H12.1484C12.3438 222.196 12.653 221.793 13.0469 221.484L45.7813 192.383C46.4934 191.755 47.4099 191.408 48.3594 191.406H70.3125Z" fill="#60CFE9"/>
<path d="M238.281 224.414V234.375C238.281 235.411 237.87 236.405 237.137 237.137C236.405 237.87 235.411 238.281 234.375 238.281H15.625C14.589 238.281 13.5954 237.87 12.8629 237.137C12.1303 236.405 11.7188 235.411 11.7188 234.375V224.414C11.7173 223.802 11.8648 223.199 12.1484 222.656H237.852C238.135 223.199 238.283 223.802 238.281 224.414Z" fill="#60CFE9"/>
<path d="M171.875 151.953V152.344H140.625L125 175.781L109.375 152.344H78.125V151.953C78.1261 147.423 79.4402 142.99 81.9082 139.191C84.3762 135.392 87.8924 132.389 92.0312 130.547L113.281 121.094C113.281 124.202 114.516 127.182 116.714 129.38C118.911 131.578 121.892 132.812 125 132.812C128.108 132.812 131.089 131.578 133.286 129.38C135.484 127.182 136.719 124.202 136.719 121.094L157.969 130.547C162.108 132.389 165.624 135.392 168.092 139.191C170.56 142.99 171.874 147.423 171.875 151.953Z" fill="#FFD200"/>
<path d="M156.25 89.8437C159.138 89.8502 161.924 88.7775 164.062 86.8359V97.6562C164.062 98.6922 163.651 99.6858 162.918 100.418C162.186 101.151 161.192 101.562 160.156 101.562H147.422C150.023 97.8591 151.648 93.5601 152.148 89.0624C153.453 89.5838 154.845 89.8491 156.25 89.8437Z" fill="#86E7FD"/>
<path d="M164.063 69.414C165.823 70.9981 167.062 73.0782 167.616 75.3805C168.171 77.6827 168.015 80.0989 167.169 82.3107C166.324 84.5226 164.827 86.4263 162.878 87.771C160.929 89.1157 158.618 89.8384 156.25 89.8437C154.845 89.8491 153.453 89.5838 152.148 89.0625C152.273 88.0254 152.338 86.982 152.344 85.9375V70.3125C152.338 69.2679 152.273 68.2246 152.148 67.1875C153.453 66.6661 154.845 66.4008 156.25 66.4062C159.138 66.3997 161.924 67.4724 164.063 69.414Z" fill="#86E7FD"/>
<path d="M97.6563 70.3125V85.9375C97.6617 86.982 97.7269 88.0254 97.8516 89.0625C96.5472 89.5838 95.1547 89.8491 93.75 89.8437C90.642 89.8437 87.6613 88.6091 85.4636 86.4114C83.2659 84.2137 82.0313 81.233 82.0312 78.125C82.0426 75.0204 83.2809 72.0463 85.4761 69.8511C87.6713 67.6558 90.6455 66.4175 93.75 66.4062C95.1547 66.4008 96.5472 66.6661 97.8516 67.1875C97.7269 68.2246 97.6617 69.2679 97.6563 70.3125Z" fill="#86E7FD"/>
<path d="M152.148 67.1875C152.273 68.2246 152.338 69.2679 152.344 70.3125H144.531L136.719 62.5L121.094 70.3125H97.6563C97.6559 64.9041 99.2593 59.6171 102.264 55.1201C105.268 50.623 109.539 47.118 114.536 45.0483C119.532 42.9785 125.031 42.437 130.335 43.4923C135.639 44.5475 140.512 47.152 144.336 50.9765C148.711 55.3319 151.468 61.0514 152.148 67.1875Z" fill="#86E7FD"/>
<path d="M239.562 218.57L206.832 189.473C205.402 188.201 203.554 187.5 201.641 187.5H48.3594C46.4471 187.501 44.6013 188.202 43.1719 189.473L10.4375 218.57C9.61231 219.303 8.95173 220.202 8.49928 221.209C8.04682 222.216 7.81276 223.307 7.8125 224.41V234.375C7.8125 236.447 8.6356 238.434 10.1007 239.899C11.5659 241.364 13.553 242.188 15.625 242.188H234.375C236.447 242.188 238.434 241.364 239.899 239.899C241.364 238.434 242.188 236.447 242.188 234.375V224.41C242.187 223.307 241.953 222.216 241.501 221.209C241.048 220.202 240.388 219.303 239.562 218.57ZM228.008 218.75H48.4922L71.9297 195.312H201.641L228.008 218.75ZM48.3594 195.312H60.8828L37.4453 218.75H21.9922L48.3594 195.312ZM15.625 234.375V226.562H234.375V234.375H15.625Z" fill="#2889C6"/>
<path d="M54.6875 156.25H107.285L121.738 177.949C122.095 178.484 122.578 178.923 123.145 179.226C123.712 179.53 124.345 179.688 124.988 179.688C125.631 179.688 126.264 179.53 126.831 179.226C127.398 178.923 127.882 178.484 128.238 177.949L142.715 156.25H195.312C198.421 156.25 201.401 155.015 203.599 152.818C205.797 150.62 207.031 147.639 207.031 144.531V19.5313C207.031 16.4232 205.797 13.4425 203.599 11.2448C201.401 9.04715 198.421 7.8125 195.312 7.8125H54.6875C51.5795 7.8125 48.5988 9.04715 46.4011 11.2448C44.2034 13.4425 42.9688 16.4232 42.9688 19.5313V144.531C42.9687 147.639 44.2034 150.62 46.4011 152.818C48.5988 155.015 51.5795 156.25 54.6875 156.25ZM140.625 148.438C139.982 148.437 139.349 148.596 138.782 148.899C138.215 149.202 137.732 149.641 137.375 150.176L125 168.75L112.625 150.188C112.27 149.651 111.787 149.21 111.22 148.904C110.653 148.599 110.019 148.439 109.375 148.438H82.3867C82.9549 145.314 84.276 142.376 86.2356 139.878C88.1952 137.38 90.7342 135.397 93.6328 134.102L110.43 126.633C111.542 129.596 113.532 132.15 116.134 133.953C118.737 135.755 121.827 136.721 124.992 136.721C128.158 136.721 131.248 135.755 133.85 133.953C136.452 132.15 138.442 129.596 139.555 126.633L156.352 134.105C159.253 135.399 161.794 137.38 163.757 139.877C165.719 142.375 167.043 145.313 167.613 148.438H140.625ZM156.25 70.3125C158.322 70.3125 160.309 71.1356 161.774 72.6007C163.239 74.0659 164.062 76.053 164.062 78.125C164.062 80.197 163.239 82.1842 161.774 83.6493C160.309 85.1144 158.322 85.9375 156.25 85.9375V70.3125ZM155.246 93.6563C155.582 93.6758 155.914 93.75 156.25 93.75C157.57 93.7335 158.883 93.5471 160.156 93.1953V97.6563H153.949C154.47 96.3532 154.903 95.0169 155.246 93.6563ZM156.25 62.5C155.914 62.5 155.582 62.5742 155.246 62.5938C153.54 55.8657 149.64 49.8984 144.162 45.636C138.684 41.3736 131.941 39.0593 125 39.0593C118.059 39.0593 111.316 41.3736 105.838 45.636C100.36 49.8984 96.4598 55.8657 94.7539 62.5938C94.418 62.5742 94.0859 62.5 93.75 62.5C92.4866 62.5137 91.2298 62.6829 90.0078 63.0039C90.8601 54.3159 94.9144 46.2557 101.382 40.3919C107.849 34.5281 116.266 31.2802 124.996 31.2802C133.726 31.2802 142.143 34.5281 148.611 40.3919C155.078 46.2557 159.132 54.3159 159.984 63.0039C158.765 62.6848 157.511 62.5156 156.25 62.5ZM148.086 66.4063H146.133L139.465 59.7383C138.886 59.1584 138.138 58.7754 137.329 58.6436C136.52 58.5118 135.69 58.6379 134.957 59.0039L120.172 66.4063H101.914C102.832 60.9473 105.655 55.9903 109.881 52.4153C114.108 48.8404 119.464 46.8787 125 46.8787C130.536 46.8787 135.892 48.8404 140.119 52.4153C144.345 55.9903 147.168 60.9473 148.086 66.4063ZM93.75 70.3125V85.9375C91.678 85.9375 89.6909 85.1144 88.2257 83.6493C86.7606 82.1842 85.9375 80.197 85.9375 78.125C85.9375 76.053 86.7606 74.0659 88.2257 72.6007C89.6909 71.1356 91.678 70.3125 93.75 70.3125ZM101.562 74.2188H121.094C121.7 74.2193 122.298 74.0789 122.84 73.8086L135.938 67.2539L141.758 73.0742C142.122 73.4384 142.554 73.727 143.03 73.9234C143.506 74.1198 144.016 74.2202 144.531 74.2188H148.438V85.9375C148.436 90.0556 147.341 94.0994 145.266 97.6563H125V105.469H137.93C134.4 107.811 130.301 109.152 126.07 109.349C121.838 109.546 117.632 108.592 113.9 106.588C110.169 104.583 107.05 101.604 104.877 97.9679C102.705 94.3314 101.559 90.1736 101.562 85.9375V74.2188ZM117.188 116.16C122.306 117.53 127.694 117.53 132.812 116.16V121.094C132.812 123.166 131.989 125.153 130.524 126.618C129.059 128.083 127.072 128.906 125 128.906C122.928 128.906 120.941 128.083 119.476 126.618C118.011 125.153 117.188 123.166 117.188 121.094V116.16ZM50.7812 19.5313C50.7812 18.4952 51.1928 17.5017 51.9254 16.7691C52.6579 16.0366 53.6515 15.625 54.6875 15.625H195.312C196.348 15.625 197.342 16.0366 198.075 16.7691C198.807 17.5017 199.219 18.4952 199.219 19.5313V144.531C199.219 145.567 198.807 146.561 198.075 147.293C197.342 148.026 196.348 148.438 195.312 148.438H175.523C174.925 143.787 173.141 139.368 170.343 135.605C167.544 131.843 163.825 128.863 159.543 126.953L140.625 118.555V112.961C143.971 111.021 146.93 108.481 149.355 105.469H160.156C162.228 105.469 164.215 104.646 165.681 103.181C167.146 101.715 167.969 99.7283 167.969 97.6563V88.3516C170.484 85.5392 171.875 81.8983 171.875 78.125C171.875 74.3518 170.484 70.7109 167.969 67.8984V66.4063C167.969 55.0102 163.442 44.081 155.383 36.0228C147.325 27.9646 136.396 23.4375 125 23.4375C113.604 23.4375 102.675 27.9646 94.6165 36.0228C86.5583 44.081 82.0312 55.0102 82.0312 66.4063V67.8984C80.0421 70.1455 78.7458 72.9203 78.2989 75.8878C77.8519 78.8554 78.2734 81.8889 79.5124 84.6222C80.7514 87.3555 82.755 89.6717 85.2814 91.2914C87.8078 92.9111 90.749 93.765 93.75 93.75C94.0859 93.75 94.418 93.6758 94.7539 93.6563C95.7887 97.683 97.6143 101.464 100.125 104.778C102.635 108.092 105.779 110.874 109.375 112.961V118.555L90.457 126.953C86.176 128.865 82.4581 131.845 79.6599 135.607C76.8616 139.37 75.0768 143.787 74.4766 148.438H54.6875C53.6515 148.438 52.6579 148.026 51.9254 147.293C51.1928 146.561 50.7812 145.567 50.7812 144.531V19.5313Z" fill="#2889C6"/>
<path d="M109.375 78.125H117.188V85.9375H109.375V78.125Z" fill="#2889C6"/>
<path d="M132.812 78.125H140.625V85.9375H132.812V78.125Z" fill="#2889C6"/>
<path d="M121.094 203.125H128.906V210.938H121.094V203.125Z" fill="#2889C6"/>
<path d="M136.719 203.125H144.531V210.938H136.719V203.125Z" fill="#2889C6"/>
<path d="M105.469 203.125H113.281V210.938H105.469V203.125Z" fill="#2889C6"/>
<path d="M21.695 308.468C19.415 308.468 17.339 307.952 15.467 306.92C13.595 305.864 12.119 304.364 11.039 302.42C9.95897 300.476 9.41897 298.22 9.41897 295.652C9.41897 293.06 9.95897 290.792 11.039 288.848C12.119 286.904 13.595 285.416 15.467 284.384C17.339 283.328 19.415 282.8 21.695 282.8C23.975 282.8 26.039 283.328 27.887 284.384C29.759 285.416 31.235 286.904 32.315 288.848C33.419 290.792 33.971 293.06 33.971 295.652C33.971 298.22 33.419 300.476 32.315 302.42C31.235 304.364 29.759 305.864 27.887 306.92C26.015 307.952 23.951 308.468 21.695 308.468ZM21.695 306.704C23.615 306.704 25.343 306.248 26.879 305.336C28.415 304.424 29.627 303.14 30.515 301.484C31.403 299.804 31.847 297.86 31.847 295.652C31.847 293.444 31.403 291.5 30.515 289.82C29.627 288.14 28.415 286.844 26.879 285.932C25.343 285.02 23.615 284.564 21.695 284.564C19.751 284.564 17.999 285.02 16.439 285.932C14.879 286.844 13.655 288.14 12.767 289.82C11.903 291.476 11.471 293.42 11.471 295.652C11.471 297.86 11.903 299.804 12.767 301.484C13.655 303.14 14.879 304.424 16.439 305.336C17.999 306.248 19.751 306.704 21.695 306.704ZM73.3633 306.308V308H64.2553V306.308H67.6393V297.236C67.6393 294.02 66.3673 292.412 63.8233 292.412C62.6713 292.412 61.4833 292.796 60.2593 293.564C59.0353 294.308 57.8593 295.352 56.7313 296.696V297.02V306.308H60.1153V308H51.3313V306.308H54.7513V297.236C54.7513 295.676 54.4273 294.488 53.7793 293.672C53.1313 292.832 52.1713 292.412 50.8993 292.412C49.7713 292.412 48.5833 292.796 47.3353 293.564C46.1113 294.332 44.9233 295.4 43.7713 296.768V306.308H47.1913V308H37.6153V306.308H41.7913V292.736H37.6153V291.044H43.7713V295.004C46.2673 292.052 48.8353 290.576 51.4753 290.576C52.8193 290.576 53.9353 290.972 54.8233 291.764C55.7353 292.532 56.3233 293.66 56.5873 295.148C59.1073 292.1 61.7113 290.576 64.3993 290.576C66.0073 290.576 67.2673 291.128 68.1793 292.232C69.1153 293.312 69.5833 294.908 69.5833 297.02V306.308H73.3633ZM99.1293 306.308V308H90.0213V306.308H93.4413V297.452C93.4413 294.092 92.0133 292.412 89.1573 292.412C87.9333 292.412 86.6613 292.808 85.3413 293.6C84.0213 294.392 82.7253 295.472 81.4533 296.84V306.308H84.8733V308H75.2973V306.308H79.4733V292.736H75.2973V291.044H81.4533V295.148C82.8213 293.684 84.1773 292.556 85.5213 291.764C86.8653 290.972 88.2693 290.576 89.7333 290.576C91.5093 290.576 92.9013 291.14 93.9093 292.268C94.9173 293.396 95.4213 295.064 95.4213 297.272V306.308H99.1293ZM105.777 286.22C105.177 286.22 104.673 286.064 104.265 285.752C103.857 285.416 103.653 285.008 103.653 284.528C103.653 284.048 103.857 283.64 104.265 283.304C104.673 282.968 105.177 282.8 105.777 282.8C106.425 282.8 106.953 282.968 107.361 283.304C107.793 283.616 108.009 284.024 108.009 284.528C108.009 285.008 107.805 285.416 107.397 285.752C106.989 286.064 106.449 286.22 105.777 286.22ZM111.465 306.308V308H101.097V306.308H105.273V292.736H101.097V291.044H107.253V306.308H111.465ZM146.693 287.084V304.22H151.013V308H137.981V304.22H142.013V295.508C142.013 293.996 142.217 292.04 142.625 289.64L133.481 308.144H130.925L121.853 289.856C122.189 292.256 122.357 294.14 122.357 295.508V304.22H126.389V308H113.609V304.22H117.929V287.084H113.609V283.304H123.149L132.365 301.7L141.401 283.304H151.013V287.084H146.693ZM162.588 308.504C160.908 308.504 159.336 308.132 157.872 307.388C156.408 306.644 155.232 305.588 154.344 304.22C153.456 302.852 153.012 301.292 153.012 299.54C153.012 297.788 153.456 296.228 154.344 294.86C155.232 293.492 156.408 292.436 157.872 291.692C159.336 290.948 160.908 290.576 162.588 290.576C164.22 290.576 165.768 290.948 167.232 291.692C168.72 292.436 169.908 293.492 170.796 294.86C171.708 296.228 172.164 297.788 172.164 299.54C172.164 301.292 171.72 302.852 170.832 304.22C169.968 305.588 168.804 306.644 167.34 307.388C165.876 308.132 164.292 308.504 162.588 308.504ZM162.624 304.94C164.016 304.94 165.168 304.448 166.08 303.464C167.016 302.48 167.484 301.172 167.484 299.54C167.484 297.908 167.016 296.6 166.08 295.616C165.168 294.632 164.016 294.14 162.624 294.14C161.208 294.14 160.032 294.632 159.096 295.616C158.184 296.6 157.728 297.908 157.728 299.54C157.728 301.172 158.184 302.48 159.096 303.464C160.032 304.448 161.208 304.94 162.624 304.94ZM187.348 290.576C188.74 290.576 190.036 290.96 191.236 291.728C192.436 292.472 193.396 293.528 194.116 294.896C194.836 296.24 195.196 297.752 195.196 299.432C195.196 301.136 194.8 302.684 194.008 304.076C193.24 305.468 192.172 306.56 190.804 307.352C189.436 308.12 187.912 308.504 186.232 308.504C183.976 308.504 181.936 307.592 180.112 305.768L178.816 308H176.224V286.868H173.02V283.304H180.652V294.284C181.588 293.132 182.632 292.232 183.784 291.584C184.96 290.912 186.148 290.576 187.348 290.576ZM185.152 304.724C186.736 304.724 188.02 304.232 189.004 303.248C189.988 302.264 190.48 300.98 190.48 299.396C190.48 297.932 190.06 296.732 189.22 295.796C188.38 294.836 187.276 294.356 185.908 294.356C185.044 294.356 184.156 294.644 183.244 295.22C182.332 295.796 181.468 296.6 180.652 297.632V302.924C182.188 304.124 183.688 304.724 185.152 304.724ZM203.048 287.84C202.16 287.84 201.416 287.6 200.816 287.12C200.216 286.64 199.916 286.052 199.916 285.356C199.916 284.612 200.216 284 200.816 283.52C201.416 283.04 202.16 282.8 203.048 282.8C203.984 282.8 204.74 283.04 205.316 283.52C205.916 284 206.216 284.612 206.216 285.356C206.216 286.076 205.916 286.676 205.316 287.156C204.74 287.612 203.984 287.84 203.048 287.84ZM209.276 304.436V308H197.54V304.436H201.14V294.608H197.54V291.044H205.64V304.436H209.276ZM222.167 304.436V308H210.431V304.436H214.031V286.868H210.431V283.304H218.531V304.436H222.167ZM241.725 305.408C239.325 307.472 236.553 308.504 233.409 308.504C231.729 308.504 230.145 308.168 228.657 307.496C227.193 306.824 226.005 305.84 225.093 304.544C224.181 303.248 223.725 301.7 223.725 299.9C223.725 298.028 224.181 296.396 225.093 295.004C226.005 293.588 227.217 292.496 228.729 291.728C230.241 290.96 231.849 290.576 233.553 290.576C235.041 290.576 236.361 290.804 237.513 291.26C238.689 291.716 239.601 292.364 240.249 293.204C240.921 294.02 241.257 294.968 241.257 296.048C241.257 297.128 240.921 298.064 240.249 298.856C239.601 299.624 238.737 300.2 237.657 300.584C236.601 300.968 235.461 301.16 234.237 301.16C233.085 301.16 232.017 301.04 231.033 300.8C230.073 300.56 229.077 300.224 228.045 299.792C228.069 301.328 228.609 302.54 229.665 303.428C230.721 304.292 232.029 304.724 233.589 304.724C235.965 304.7 238.053 303.944 239.853 302.456L241.725 305.408ZM233.877 294.104C232.797 294.104 231.765 294.404 230.781 295.004C229.821 295.58 229.089 296.36 228.585 297.344C230.073 297.872 231.597 298.136 233.157 298.136C234.237 298.112 235.101 297.92 235.749 297.56C236.421 297.2 236.757 296.696 236.757 296.048C236.757 295.472 236.493 295.004 235.965 294.644C235.437 294.284 234.741 294.104 233.877 294.104Z" fill="#2889C6"/>
</svg>
