<svg width="40" height="38" viewBox="0 0 40 38" fill="none" xmlns="http://www.w3.org/2000/svg">
<path d="M24.1675 16.5044C24.1675 18.806 22.3016 20.6719 20 20.6719C17.6984 20.6719 15.8325 18.806 15.8325 16.5044C15.8325 14.2028 17.6984 12.3369 20 12.3369C22.3016 12.3369 24.1675 14.2028 24.1675 16.5044Z" fill="#FD907E"/>
<path d="M23.75 22.3369H16.25C13.7225 22.3369 11.6675 24.392 11.6675 26.9194V29.4194C11.6675 30.1091 12.2278 30.6694 12.9175 30.6694H27.085C27.7753 30.6694 28.335 30.1091 28.335 29.4194V26.9194C28.3325 24.3944 26.2775 22.3369 23.75 22.3369Z" fill="#FD907E"/>
<path d="M35 0.671875H5C2.24243 0.671875 0 2.91431 0 5.67188V32.3394C0 35.0969 2.24243 37.3394 5 37.3394H35C37.7576 37.3394 40 35.0969 40 32.3394V5.67188C40 2.91431 37.7576 0.671875 35 0.671875ZM35 34.0044H5C4.0802 34.0044 3.33252 33.2567 3.33252 32.3369V9.00439H36.665V32.3369C36.6675 33.2567 35.9198 34.0044 35 34.0044Z" fill="#FC573B"/>
</svg>