<svg width="40" height="34" viewBox="0 0 40 34" fill="none" xmlns="http://www.w3.org/2000/svg">
<path d="M26.6639 6.6665C24.4942 6.6665 22.662 8.06383 21.972 9.99859H12.4982C11.1209 9.99859 9.99854 11.1209 9.99854 12.4983V14.998C9.99854 15.9178 10.7434 16.6653 11.6658 16.6653C12.5882 16.6653 13.3331 15.9178 13.3331 14.998V13.3307H21.972C22.662 15.2679 24.4942 16.6653 26.6639 16.6653C29.4211 16.6653 31.6633 14.423 31.6633 11.6659C31.6633 8.90872 29.4211 6.6665 26.6639 6.6665ZM26.6639 13.3332C25.7441 13.3332 24.9967 12.5858 24.9967 11.6659C24.9967 10.746 25.7441 9.99859 26.6639 9.99859C27.5838 9.99859 28.3312 10.746 28.3312 11.6659C28.3287 12.5858 27.5813 13.3332 26.6639 13.3332Z" fill="#D9A4FC"/>
<path d="M37.0804 0H2.91464C1.30734 0 0 1.30984 0 2.91713V25.4143C0 27.0216 1.30734 28.3315 2.91713 28.3315H15.6805C15.4856 29.1663 14.9656 30.5212 13.5783 31.9085C13.3408 32.146 13.2683 32.5059 13.3983 32.8159C13.5258 33.1284 13.8308 33.3308 14.1682 33.3308H25.8343C26.1717 33.3308 26.4767 33.1284 26.6042 32.8159C26.7317 32.5034 26.6617 32.146 26.4242 31.9085C25.0394 30.5237 24.5069 29.1688 24.2995 28.3315H37.0829C38.6902 28.3315 40 27.0241 40 25.4143V2.91713C39.995 1.30984 38.6877 0 37.0804 0ZM36.6629 21.6648H3.33208V3.33458H36.6629V21.6648Z" fill="#BE63F9"/>
</svg>